Russolo-10ptRegular.ufo
<glyph name="exclam" format="2">
  <advance width="476.54651162790697"/>
  <unicode hex="0021"/>
  <note>
exclam
</note>
  <outline>
    <contour>
      <point x="193.32558139534885" y="307.4496124031008" type="curve"/>
      <point x="283.6085271317829" y="307.4496124031008" type="line"/>
      <point x="277.13953488372096" y="758.2868217054264"/>
      <point x="331.97286821705427" y="1054.4302325581396"/>
      <point x="331.97286821705427" y="1201.593023255814" type="curve" smooth="yes"/>
      <point x="331.97286821705427" y="1301.5697674418604"/>
      <point x="281.5077519379845" y="1309.3100775193798"/>
      <point x="298.015503875969" y="1462.3875968992247" type="curve"/>
      <point x="180.2248062015504" y="1462.3875968992247" type="line"/>
      <point x="196.7325581395349" y="1309.3100775193798"/>
      <point x="144.2674418604651" y="1301.5697674418604"/>
      <point x="144.2674418604651" y="1201.593023255814" type="curve" smooth="yes"/>
      <point x="144.2674418604651" y="1054.4302325581396"/>
      <point x="199.10077519379846" y="758.2868217054264"/>
    </contour>
    <contour>
      <point x="238.1201550387597" y="-19.468992248062015" type="curve" smooth="yes"/>
      <point x="302.52713178294573" y="-19.468992248062015"/>
      <point x="346.54651162790697" y="33.48837209302326"/>
      <point x="346.54651162790697" y="102.44573643410853" type="curve" smooth="yes"/>
      <point x="346.54651162790697" y="170.7093023255814"/>
      <point x="302.52713178294573" y="222.36046511627907"/>
      <point x="238.1201550387597" y="222.36046511627907" type="curve" smooth="yes"/>
      <point x="173.71317829457365" y="222.36046511627907"/>
      <point x="129.69379844961242" y="170.7093023255814"/>
      <point x="129.69379844961242" y="102.44573643410853" type="curve" smooth="yes"/>
      <point x="129.69379844961242" y="33.48837209302326"/>
      <point x="173.71317829457365" y="-19.468992248062015"/>
    </contour>
  </outline>
</glyph>
<glyph name="quotedbl" format="2">
  <advance width="636.8875968992248"/>
  <unicode hex="0022"/>
  <note>
quotedbl
</note>
  <outline>
    <contour>
      <point x="387.1782945736434" y="803.8798449612403" type="line"/>
      <point x="495.1937984496124" y="803.8798449612403" type="line"/>
      <point x="517.2751937984497" y="1360.468992248062" type="line"/>
      <point x="368.1782945736434" y="1360.468992248062" type="line"/>
    </contour>
    <contour>
      <point x="139.30620155038758" y="803.8798449612403" type="line"/>
      <point x="245.9341085271318" y="803.8798449612403" type="line"/>
      <point x="269.015503875969" y="1360.468992248062" type="line"/>
      <point x="120.6124031007752" y="1360.468992248062" type="line"/>
    </contour>
  </outline>
</glyph>
<glyph name="numbersign" format="2">
  <advance width="1439.8100775193798"/>
  <unicode hex="0023"/>
  <note>
numbersign
</note>
  <outline>
    <contour>
      <point x="777.062015503876" y="0.0" type="line"/>
      <point x="925.4031007751938" y="0.0" type="line"/>
      <point x="1222.6666666666667" y="1432.0813953488373" type="line"/>
      <point x="1074.3255813953488" y="1432.0813953488373" type="line"/>
    </contour>
    <contour>
      <point x="123.3062015503876" y="462.2674418604651" type="line"/>
      <point x="1249.891472868217" y="462.2674418604651" type="line"/>
      <point x="1249.891472868217" y="573.0387596899225" type="line"/>
      <point x="123.3062015503876" y="573.0387596899225" type="line"/>
    </contour>
    <contour>
      <point x="228.2674418604651" y="0.0" type="line"/>
      <point x="376.30232558139534" y="0.0" type="line"/>
      <point x="675.2596899224807" y="1432.0813953488373" type="line"/>
      <point x="526.9186046511628" y="1432.0813953488373" type="line"/>
    </contour>
    <contour>
      <point x="189.2248062015504" y="867.4302325581396" type="line"/>
      <point x="1316.5038759689924" y="867.4302325581396" type="line"/>
      <point x="1316.5038759689924" y="978.8953488372093" type="line"/>
      <point x="189.2248062015504" y="978.8953488372093" type="line"/>
    </contour>
  </outline>
</glyph>
<glyph name="percent" format="2">
  <advance width="1649.3255813953488"/>
  <unicode hex="0025"/>
  <note>
percent
</note>
  <outline>
    <contour>
      <point x="246.31007751937983" y="-25.75581395348837" type="line"/>
      <point x="382.8333333333333" y="-25.75581395348837" type="line"/>
      <point x="1381.953488372093" y="1442.531007751938" type="line"/>
      <point x="1246.4302325581396" y="1442.531007751938" type="line"/>
    </contour>
    <contour>
      <point x="1207.2868217054263" y="-23.856589147286822" type="curve" smooth="yes"/>
      <point x="1386.1627906976744" y="-23.856589147286822"/>
      <point x="1509.406976744186" y="146.75581395348837"/>
      <point x="1509.406976744186" y="385.531007751938" type="curve" smooth="yes"/>
      <point x="1509.406976744186" y="620.6124031007752"/>
      <point x="1381.7751937984497" y="795.3062015503876"/>
      <point x="1207.2868217054263" y="795.3062015503876" type="curve" smooth="yes"/>
      <point x="1035.1860465116279" y="795.3062015503876"/>
      <point x="906.1666666666666" y="618.9186046511628"/>
      <point x="906.1666666666666" y="385.531007751938" type="curve" smooth="yes"/>
      <point x="906.1666666666666" y="146.75581395348837"/>
      <point x="1030.4108527131782" y="-23.856589147286822"/>
    </contour>
    <contour>
      <point x="1207.2868217054263" y="81.91472868217055" type="curve" smooth="yes"/>
      <point x="1093.7325581395348" y="81.91472868217055"/>
      <point x="1038.3023255813953" y="197.34496124031008"/>
      <point x="1038.3023255813953" y="385.531007751938" type="curve" smooth="yes"/>
      <point x="1038.3023255813953" y="575.1046511627907"/>
      <point x="1093.7325581395348" y="690.8410852713179"/>
      <point x="1207.2868217054263" y="690.8410852713179" type="curve" smooth="yes"/>
      <point x="1321.5348837209303" y="690.8410852713179"/>
      <point x="1377.9651162790697" y="574.7170542635658"/>
      <point x="1377.9651162790697" y="385.531007751938" type="curve" smooth="yes"/>
      <point x="1377.9651162790697" y="197.34496124031008"/>
      <point x="1322.5348837209303" y="81.91472868217055"/>
    </contour>
    <contour>
      <point x="441.7325581395349" y="641.9806201550388" type="curve" smooth="yes"/>
      <point x="619.6085271317829" y="641.9806201550388"/>
      <point x="743.546511627907" y="811.5930232558139"/>
      <point x="743.546511627907" y="1051.7558139534883" type="curve" smooth="yes"/>
      <point x="743.546511627907" y="1285.4496124031007"/>
      <point x="615.5271317829457" y="1460.8372093023256"/>
      <point x="441.7325581395349" y="1460.8372093023256" type="curve" smooth="yes"/>
      <point x="267.93798449612405" y="1460.8372093023256"/>
      <point x="139.91860465116278" y="1284.7558139534883"/>
      <point x="139.91860465116278" y="1051.7558139534883" type="curve" smooth="yes"/>
      <point x="139.91860465116278" y="812.5930232558139"/>
      <point x="264.16279069767444" y="641.9806201550388"/>
    </contour>
    <contour>
      <point x="441.7325581395349" y="747.4457364341085" type="curve" smooth="yes"/>
      <point x="328.1782945736434" y="747.4457364341085"/>
      <point x="272.7480620155039" y="862.1821705426356"/>
      <point x="272.7480620155039" y="1051.7558139534883" type="curve" smooth="yes"/>
      <point x="272.7480620155039" y="1242.3294573643411"/>
      <point x="328.1782945736434" y="1355.3720930232557"/>
      <point x="441.7325581395349" y="1355.3720930232557" type="curve" smooth="yes"/>
      <point x="555.2868217054264" y="1355.3720930232557"/>
      <point x="611.7170542635658" y="1240.2480620155038"/>
      <point x="611.7170542635658" y="1051.7558139534883" type="curve" smooth="yes"/>
      <point x="611.7170542635658" y="863.2635658914729"/>
      <point x="555.2868217054264" y="747.4457364341085"/>
    </contour>
  </outline>
</glyph>
<glyph name="ampersand" format="2">
  <advance width="1369.3139534883721"/>
  <unicode hex="0026"/>
  <note>
ampersand
</note>
  <outline>
    <contour>
      <point x="601.8720930232558" y="-29.08139534883721" type="curve" smooth="yes"/>
      <point x="728.2170542635658" y="-29.08139534883721"/>
      <point x="881.953488372093" y="-5.612403100775194"/>
      <point x="953.0542635658915" y="42.406976744186046" type="curve"/>
      <point x="889.2829457364342" y="138.54651162790697" type="line"/>
      <point x="853.6085271317829" y="111.85271317829458"/>
      <point x="685.8333333333334" y="82.60852713178295"/>
      <point x="595.8720930232558" y="82.60852713178295" type="curve" smooth="yes"/>
      <point x="385.3178294573643" y="82.60852713178295"/>
      <point x="316.7248062015504" y="221.5891472868217"/>
      <point x="316.7248062015504" y="403.63178294573646" type="curve" smooth="yes"/>
      <point x="316.7248062015504" y="629.6550387596899"/>
      <point x="427.4612403100775" y="721.8798449612403"/>
      <point x="614.7286821705426" y="721.4922480620155" type="curve"/>
      <point x="625.0348837209302" y="835.8759689922481" type="line"/>
      <point x="483.15503875968994" y="831.1007751937984"/>
      <point x="396.7248062015504" y="924.6937984496124"/>
      <point x="396.7248062015504" y="1078.6744186046512" type="curve" smooth="yes"/>
      <point x="396.7248062015504" y="1240.4108527131782"/>
      <point x="496.6860465116279" y="1348.6976744186047"/>
      <point x="645.3217054263566" y="1348.6976744186047" type="curve" smooth="yes"/>
      <point x="817.6860465116279" y="1348.6976744186047" type="line"/>
      <point x="817.6860465116279" y="1460.3875968992247" type="line"/>
      <point x="641.3217054263566" y="1460.3875968992247" type="line" smooth="yes"/>
      <point x="383.8565891472868" y="1460.3875968992247"/>
      <point x="234.0" y="1314.406976744186"/>
      <point x="234.0" y="1078.6744186046512" type="curve" smooth="yes"/>
      <point x="234.0" y="946.0"/>
      <point x="285.98062015503876" y="845.7751937984497"/>
      <point x="372.1046511627907" y="788.0" type="curve"/>
      <point x="241.12403100775194" y="726.6744186046511"/>
      <point x="139.2248062015504" y="597.8178294573644"/>
      <point x="139.2248062015504" y="397.63178294573646" type="curve" smooth="yes"/>
      <point x="139.2248062015504" y="138.30620155038758"/>
      <point x="275.68992248062017" y="-29.08139534883721"/>
    </contour>
    <contour>
      <point x="1037.4612403100775" y="-27.08139534883721" type="curve" smooth="yes"/>
      <point x="1103.8255813953488" y="-27.08139534883721"/>
      <point x="1180.2945736434108" y="-14.0"/>
      <point x="1233.0077519379845" y="13.550387596899224" type="curve"/>
      <point x="1233.0077519379845" y="147.11627906976744" type="line"/>
      <point x="1167.6860465116279" y="105.52713178294573"/>
      <point x="1128.093023255814" y="90.30232558139535"/>
      <point x="1073.6434108527133" y="90.30232558139535" type="curve" smooth="yes"/>
      <point x="1043.2131782945737" y="90.30232558139535"/>
      <point x="1036.2325581395348" y="191.18992248062017"/>
      <point x="1036.2325581395348" y="289.86434108527135" type="curve" smooth="yes"/>
      <point x="1036.2325581395348" y="721.4922480620155" type="line"/>
      <point x="1180.9263565891472" y="721.4922480620155" type="line"/>
      <point x="1180.9263565891472" y="835.1821705426356" type="line"/>
      <point x="1036.2325581395348" y="835.1821705426356" type="line"/>
      <point x="1036.2325581395348" y="1116.8139534883721" type="line"/>
      <point x="947.0348837209302" y="1116.8139534883721" type="line"/>
      <point x="959.8294573643411" y="891.9341085271318"/>
      <point x="913.5271317829457" y="835.1821705426356"/>
      <point x="743.5697674418604" y="835.1821705426356" type="curve" smooth="yes"/>
      <point x="606.0968992248062" y="835.1821705426356" type="line"/>
      <point x="588.7093023255813" y="721.4922480620155" type="line"/>
      <point x="869.6511627906976" y="721.4922480620155" type="line"/>
      <point x="869.6511627906976" y="220.10077519379846" type="line" smooth="yes"/>
      <point x="869.6511627906976" y="78.6124031007752"/>
      <point x="895.1162790697674" y="-27.08139534883721"/>
    </contour>
  </outline>
</glyph>
<glyph name="quotesingle" format="2">
  <advance width="387.9341085271318"/>
  <unicode hex="0027"/>
  <note>
quotesingle
</note>
  <outline>
    <contour>
      <point x="139.30620155038758" y="803.8798449612403" type="line"/>
      <point x="245.9341085271318" y="803.8798449612403" type="line"/>
      <point x="269.015503875969" y="1360.468992248062" type="line"/>
      <point x="120.6124031007752" y="1360.468992248062" type="line"/>
    </contour>
  </outline>
</glyph>
<glyph name="parenleft" format="2">
  <advance width="631.4031007751938"/>
  <unicode hex="0028"/>
  <note>
parenleft
</note>
  <outline>
    <contour>
      <point x="473.40697674418607" y="-396.83720930232556" type="curve"/>
      <point x="529.5658914728682" y="-333.9186046511628" type="line"/>
      <point x="358.0968992248062" y="-62.08527131782945"/>
      <point x="253.72868217054264" y="272.01937984496124"/>
      <point x="253.72868217054264" y="569.8759689922481" type="curve" smooth="yes"/>
      <point x="253.72868217054264" y="870.2635658914729"/>
      <point x="363.3217054263566" y="1215.2674418604652"/>
      <point x="533.484496124031" y="1488.7519379844962" type="curve"/>
      <point x="468.79457364341084" y="1537.9767441860465" type="line"/>
      <point x="215.32558139534885" y="1207.015503875969"/>
      <point x="105.9186046511628" y="920.3643410852713"/>
      <point x="105.9186046511628" y="573.3449612403101" type="curve" smooth="yes"/>
      <point x="105.9186046511628" y="223.56976744186048"/>
      <point x="216.85658914728683" y="-67.53100775193798"/>
    </contour>
  </outline>
</glyph>
<glyph name="parenright" format="2">
  <advance width="631.0968992248062"/>
  <unicode hex="0029"/>
  <note>
parenright
</note>
  <outline>
    <contour>
      <point x="158.68992248062017" y="-396.83720930232556" type="line"/>
      <point x="414.62790697674416" y="-67.83720930232558"/>
      <point x="525.1782945736434" y="223.56976744186048"/>
      <point x="525.1782945736434" y="573.3449612403101" type="curve" smooth="yes"/>
      <point x="525.1782945736434" y="919.6705426356589"/>
      <point x="416.4651162790698" y="1207.015503875969"/>
      <point x="162.30232558139534" y="1538.9767441860465" type="curve"/>
      <point x="97.9186046511628" y="1488.7519379844962" type="line"/>
      <point x="269.7751937984496" y="1213.65503875969"/>
      <point x="378.06201550387595" y="870.8759689922481"/>
      <point x="378.06201550387595" y="569.8759689922481" type="curve" smooth="yes"/>
      <point x="378.06201550387595" y="271.3255813953488"/>
      <point x="273.3062015503876" y="-62.16666666666667"/>
      <point x="101.83720930232558" y="-333.9186046511628" type="curve"/>
    </contour>
  </outline>
</glyph>
<glyph name="asterisk" format="2">
  <advance width="856.8527131782946"/>
  <unicode hex="002A"/>
  <note>
asterisk
</note>
  <outline>
    <contour>
      <point x="437.5891472868217" y="1128.65503875969" type="line"/>
      <point x="560.2403100775193" y="1188.2248062015503"/>
      <point x="633.6899224806201" y="1194.124031007752"/>
      <point x="672.546511627907" y="1216.8992248062016" type="curve" smooth="yes"/>
      <point x="686.8720930232558" y="1225.7558139534883"/>
      <point x="692.9147286821706" y="1259.7558139534883"/>
      <point x="731.9341085271318" y="1282.6124031007753" type="curve"/>
      <point x="699.4651162790698" y="1337.8565891472867" type="line"/>
      <point x="660.1395348837209" y="1315.0"/>
      <point x="627.4651162790698" y="1325.1821705426357"/>
      <point x="614.4457364341085" y="1317.3255813953488" type="curve" smooth="yes"/>
      <point x="575.5891472868217" y="1294.5503875968993"/>
      <point x="531.077519379845" y="1236.5503875968993"/>
      <point x="419.26356589147287" y="1159.9186046511627" type="curve"/>
    </contour>
    <contour>
      <point x="157.3875968992248" y="950.7170542635658" type="line"/>
      <point x="195.71317829457365" y="972.5736434108527"/>
      <point x="229.08139534883722" y="961.3914728682171"/>
      <point x="243.40697674418604" y="969.2480620155038" type="curve" smooth="yes"/>
      <point x="282.26356589147287" y="992.0232558139535"/>
      <point x="324.468992248062" y="1051.7170542635658"/>
      <point x="437.5891472868217" y="1128.65503875969" type="curve"/>
      <point x="419.26356589147287" y="1159.9186046511627" type="line"/>
      <point x="296.9186046511628" y="1101.3488372093022"/>
      <point x="225.1627906976744" y="1091.7558139534883"/>
      <point x="185.30620155038758" y="1069.6744186046512" type="curve" smooth="yes"/>
      <point x="173.28682170542635" y="1062.124031007752"/>
      <point x="164.24418604651163" y="1028.8178294573643"/>
      <point x="124.9186046511628" y="1005.9612403100775" type="curve"/>
    </contour>
    <contour>
      <point x="395.9573643410853" y="811.3914728682171" type="curve"/>
      <point x="459.8953488372093" y="811.3914728682171" type="line"/>
      <point x="459.8953488372093" y="856.1046511627907"/>
      <point x="486.52713178294573" y="878.922480620155"/>
      <point x="486.52713178294573" y="895.6356589147287" type="curve" smooth="yes"/>
      <point x="486.52713178294573" y="942.7984496124031"/>
      <point x="456.2829457364341" y="1006.7790697674419"/>
      <point x="446.44573643410854" y="1143.2868217054263" type="curve"/>
      <point x="409.40697674418607" y="1143.2868217054263" type="line"/>
      <point x="399.56976744186045" y="1008.0852713178294"/>
      <point x="371.3255813953488" y="941.4922480620155"/>
      <point x="371.3255813953488" y="895.6356589147287" type="curve" smooth="yes"/>
      <point x="371.3255813953488" y="877.922480620155"/>
      <point x="395.9573643410853" y="856.4108527131783"/>
    </contour>
    <contour>
      <point x="418.56976744186045" y="1128.65503875969" type="curve"/>
      <point x="437.5891472868217" y="1159.9186046511627" type="line"/>
      <point x="325.7751937984496" y="1236.5503875968993"/>
      <point x="281.26356589147287" y="1294.5503875968993"/>
      <point x="242.40697674418604" y="1317.3255813953488" type="curve" smooth="yes"/>
      <point x="229.3875968992248" y="1325.1821705426357"/>
      <point x="196.01937984496124" y="1315.0"/>
      <point x="156.69379844961242" y="1337.1627906976744" type="curve"/>
      <point x="124.9186046511628" y="1282.6124031007753" type="line"/>
      <point x="163.24418604651163" y="1259.7558139534883"/>
      <point x="169.98062015503876" y="1225.7558139534883"/>
      <point x="184.30620155038758" y="1216.8992248062016" type="curve" smooth="yes"/>
      <point x="223.1627906976744" y="1194.124031007752"/>
      <point x="295.9186046511628" y="1187.531007751938"/>
    </contour>
    <contour>
      <point x="613.4457364341085" y="969.2480620155038" type="curve" smooth="yes"/>
      <point x="627.7713178294574" y="961.3914728682171"/>
      <point x="661.1395348837209" y="972.5736434108527"/>
      <point x="699.4651162790698" y="950.7170542635658" type="curve"/>
      <point x="731.9341085271318" y="1005.2674418604652" type="line"/>
      <point x="692.6085271317829" y="1028.124031007752"/>
      <point x="683.5658914728682" y="1062.124031007752"/>
      <point x="671.546511627907" y="1069.6744186046512" type="curve" smooth="yes"/>
      <point x="631.6899224806201" y="1091.7558139534883"/>
      <point x="558.9341085271318" y="1101.3488372093022"/>
      <point x="437.5891472868217" y="1159.9186046511627" type="curve"/>
      <point x="418.56976744186045" y="1128.65503875969" type="line"/>
      <point x="532.3837209302326" y="1051.0232558139535"/>
      <point x="574.5891472868217" y="992.0232558139535"/>
    </contour>
    <contour>
      <point x="409.40697674418607" y="1143.2868217054263" type="curve"/>
      <point x="446.44573643410854" y="1143.2868217054263" type="line"/>
      <point x="456.2829457364341" y="1279.7945736434108"/>
      <point x="486.52713178294573" y="1343.0813953488373"/>
      <point x="486.52713178294573" y="1390.937984496124" type="curve" smooth="yes"/>
      <point x="486.52713178294573" y="1407.6511627906978"/>
      <point x="459.8953488372093" y="1430.468992248062"/>
      <point x="459.8953488372093" y="1475.1821705426357" type="curve"/>
      <point x="395.9573643410853" y="1475.1821705426357" type="line"/>
      <point x="395.9573643410853" y="1429.468992248062"/>
      <point x="371.3255813953488" y="1407.9573643410852"/>
      <point x="371.3255813953488" y="1390.937984496124" type="curve" smooth="yes"/>
      <point x="371.3255813953488" y="1345.0813953488373"/>
      <point x="399.56976744186045" y="1278.4883720930231"/>
    </contour>
  </outline>
</glyph>
<glyph name="plus" format="2">
  <advance width="1112.9147286821706"/>
  <unicode hex="002B"/>
  <note>
plus
</note>
  <outline>
    <contour>
      <point x="139.3875968992248" y="589.0658914728682" type="line"/>
      <point x="973.5271317829457" y="589.0658914728682" type="line"/>
      <point x="973.5271317829457" y="748.546511627907" type="line"/>
      <point x="139.3875968992248" y="748.546511627907" type="line"/>
    </contour>
    <contour>
      <point x="491.98062015503876" y="251.73643410852713" type="line"/>
      <point x="620.9341085271318" y="251.73643410852713" type="line"/>
      <point x="620.9341085271318" y="1085.875968992248" type="line"/>
      <point x="491.98062015503876" y="1085.875968992248" type="line"/>
    </contour>
  </outline>
</glyph>
<glyph name="comma" format="2">
  <advance width="539.0736434108527"/>
  <unicode hex="002C"/>
  <note>
comma
</note>
  <outline>
    <contour>
      <point x="129.2248062015504" y="-148.1201550387597" type="curve"/>
      <point x="275.87209302325584" y="-148.1201550387597" type="line"/>
      <point x="330.8914728682171" y="-48.406976744186046"/>
      <point x="382.4612403100775" y="80.42635658914729"/>
      <point x="412.84883720930236" y="203.36434108527132" type="curve"/>
      <point x="227.95736434108528" y="203.36434108527132" type="line"/>
      <point x="193.32558139534885" y="134.40697674418604"/>
      <point x="142.46899224806202" y="-45.06201550387597"/>
    </contour>
  </outline>
</glyph>
<glyph name="hyphen" format="2">
  <advance width="683.5193798449612"/>
  <unicode hex="002D"/>
  <note>
hyphen
</note>
  <outline>
    <contour>
      <point x="82.83720930232558" y="450.1046511627907" type="line"/>
      <point x="565.9922480620155" y="450.1046511627907" type="line"/>
      <point x="601.3759689922481" y="605.3217054263566" type="line"/>
      <point x="116.83333333333333" y="605.3217054263566" type="line"/>
    </contour>
  </outline>
</glyph>
<glyph name="period" format="2">
  <advance width="513.8488372093024"/>
  <unicode hex="002E"/>
  <note>
period
</note>
  <outline>
    <contour>
      <point x="257.07751937984494" y="-10.449612403100776" type="curve" smooth="yes"/>
      <point x="328.1162790697674" y="-10.449612403100776"/>
      <point x="383.23643410852713" y="39.42635658914729"/>
      <point x="383.23643410852713" y="117.01550387596899" type="curve" smooth="yes"/>
      <point x="383.23643410852713" y="194.2984496124031"/>
      <point x="328.1162790697674" y="243.86821705426357"/>
      <point x="257.07751937984494" y="243.86821705426357" type="curve" smooth="yes"/>
      <point x="185.7325581395349" y="243.86821705426357"/>
      <point x="130.6124031007752" y="194.6046511627907"/>
      <point x="130.6124031007752" y="117.01550387596899" type="curve" smooth="yes"/>
      <point x="130.6124031007752" y="40.42635658914729"/>
      <point x="185.03875968992247" y="-10.449612403100776"/>
    </contour>
  </outline>
</glyph>
<glyph name="slash" format="2">
  <advance width="788.0968992248062"/>
  <unicode hex="002F"/>
  <note>
slash
</note>
  <outline>
    <contour>
      <point x="73.6124031007752" y="-388.9186046511628" type="line"/>
      <point x="206.07751937984497" y="-388.9186046511628" type="line"/>
      <point x="714.484496124031" y="1495.0" type="line"/>
      <point x="583.0193798449612" y="1495.0" type="line"/>
    </contour>
  </outline>
</glyph>
<glyph name="zero" format="2">
  <advance width="1357.7248062015503"/>
  <unicode hex="0030"/>
  <note>
zero
</note>
  <anchor x="672.077519379845" y="715.0" name="center"/>
  <outline>
    <contour>
      <point x="679.015503875969" y="-28.08139534883721" type="curve" smooth="yes"/>
      <point x="1012.5232558139535" y="-28.08139534883721"/>
      <point x="1250.8062015503876" y="281.8565891472868"/>
      <point x="1250.8062015503876" y="715.0" type="curve" smooth="yes"/>
      <point x="1250.8062015503876" y="1138.8178294573643"/>
      <point x="1003.8914728682171" y="1457.7751937984497"/>
      <point x="679.015503875969" y="1457.7751937984497" type="curve" smooth="yes"/>
      <point x="351.44573643410854" y="1457.7751937984497"/>
      <point x="106.9186046511628" y="1140.5116279069769"/>
      <point x="106.9186046511628" y="715.0" type="curve" smooth="yes"/>
      <point x="106.9186046511628" y="284.63178294573646"/>
      <point x="347.2829457364341" y="-28.08139534883721"/>
    </contour>
    <contour>
      <point x="679.015503875969" y="85.30232558139535" type="curve" smooth="yes"/>
      <point x="447.4612403100775" y="85.30232558139535"/>
      <point x="294.56201550387595" y="332.44573643410854"/>
      <point x="294.56201550387595" y="715.0" type="curve" smooth="yes"/>
      <point x="294.56201550387595" y="1096.860465116279"/>
      <point x="447.4612403100775" y="1345.391472868217"/>
      <point x="679.015503875969" y="1345.391472868217" type="curve" smooth="yes"/>
      <point x="910.2635658914729" y="1345.391472868217"/>
      <point x="1061.8565891472867" y="1095.1666666666667"/>
      <point x="1061.8565891472867" y="715.0" type="curve" smooth="yes"/>
      <point x="1061.8565891472867" y="333.8333333333333"/>
      <point x="910.9573643410853" y="85.30232558139535"/>
    </contour>
  </outline>
</glyph>
<glyph name="one" format="2">
  <advance width="631.2751937984497"/>
  <unicode hex="0031"/>
  <note>
one
</note>
  <outline>
    <contour>
      <point x="324.40697674418607" y="-1.0" type="line"/>
      <point x="495.66279069767444" y="-1.0" type="line"/>
      <point x="495.66279069767444" y="1427.2248062015503" type="line"/>
      <point x="420.95348837209303" y="1427.2248062015503" type="line"/>
      <point x="96.6124031007752" y="970.4341085271318" type="line"/>
      <point x="167.79457364341084" y="915.5581395348837" type="line"/>
      <point x="390.63178294573646" y="1212.3178294573643" type="line"/>
      <point x="324.40697674418607" y="1235.968992248062" type="line"/>
    </contour>
  </outline>
</glyph>
<glyph name="two" format="2">
  <advance width="1176.3178294573643"/>
  <unicode hex="0032"/>
  <note>
two
</note>
  <outline>
    <contour>
      <point x="96.6124031007752" y="0.0" type="line"/>
      <point x="1072.7054263565892" y="0.0" type="line"/>
      <point x="1072.7054263565892" y="140.97286821705427" type="line"/>
      <point x="322.5232558139535" y="140.97286821705427" type="line"/>
      <point x="286.5232558139535" y="70.15891472868216" type="line"/>
      <point x="470.984496124031" y="224.31782945736433"/>
      <point x="747.031007751938" y="519.1627906976744"/>
      <point x="811.7054263565891" y="586.6744186046511" type="curve" smooth="yes"/>
      <point x="1016.1201550387597" y="805.6821705426356"/>
      <point x="1050.7674418604652" y="923.2131782945736"/>
      <point x="1050.7674418604652" y="1050.1666666666667" type="curve" smooth="yes"/>
      <point x="1050.7674418604652" y="1303.5736434108528"/>
      <point x="867.5426356589147" y="1460.3875968992247"/>
      <point x="604.9341085271318" y="1460.3875968992247" type="curve" smooth="yes"/>
      <point x="330.4263565891473" y="1460.3875968992247"/>
      <point x="161.85658914728683" y="1290.8372093023256"/>
      <point x="161.85658914728683" y="1084.8372093023256" type="curve" smooth="yes"/>
      <point x="161.85658914728683" y="1067.4496124031007"/>
      <point x="162.5503875968992" y="1030.6937984496124"/>
      <point x="168.93798449612405" y="983.6744186046511" type="curve"/>
      <point x="329.84883720930236" y="985.7558139534884" type="line"/>
      <point x="329.84883720930236" y="1062.1434108527133" type="line" smooth="yes"/>
      <point x="329.84883720930236" y="1213.922480620155"/>
      <point x="420.87209302325584" y="1352.2480620155038"/>
      <point x="598.6899224806201" y="1352.2480620155038" type="curve" smooth="yes"/>
      <point x="743.6937984496124" y="1352.2480620155038"/>
      <point x="874.8372093023256" y="1271.9186046511627"/>
      <point x="874.8372093023256" y="1078.0" type="curve" smooth="yes"/>
      <point x="874.8372093023256" y="879.546511627907"/>
      <point x="722.0968992248062" y="672.9573643410853"/>
      <point x="495.85271317829455" y="428.5077519379845" type="curve" smooth="yes"/>
    </contour>
  </outline>
</glyph>
<glyph name="three" format="2">
  <advance width="1119.7054263565892"/>
  <unicode hex="0033"/>
  <note>
three
</note>
  <outline>
    <contour>
      <point x="539.3837209302326" y="-29.531007751937985" type="curve" smooth="yes"/>
      <point x="828.6046511627907" y="-29.531007751937985"/>
      <point x="1014.4806201550388" y="140.3875968992248"/>
      <point x="1014.4806201550388" y="399.5503875968992" type="curve" smooth="yes"/>
      <point x="1014.4806201550388" y="613.3875968992248"/>
      <point x="878.9496124031008" y="755.0"/>
      <point x="668.7674418604652" y="786.2635658914729" type="curve"/>
      <point x="527.4341085271318" y="697.6744186046511" type="line"/>
      <point x="823.7248062015503" y="710.1627906976744"/>
      <point x="989.5426356589147" y="860.0813953488372"/>
      <point x="989.5426356589147" y="1080.7558139534883" type="curve" smooth="yes"/>
      <point x="989.5426356589147" y="1308.531007751938"/>
      <point x="827.5232558139535" y="1457.7751937984497"/>
      <point x="574.3837209302326" y="1457.7751937984497" type="curve" smooth="yes"/>
      <point x="297.468992248062" y="1457.7751937984497"/>
      <point x="134.0" y="1288.062015503876"/>
      <point x="129.30620155038758" y="1049.5503875968993" type="curve"/>
      <point x="284.9108527131783" y="1048.8565891472867" type="line"/>
      <point x="276.6860465116279" y="1207.2713178294573"/>
      <point x="379.68992248062017" y="1350.9418604651162"/>
      <point x="569.3837209302326" y="1350.9418604651162" type="curve" smooth="yes"/>
      <point x="733.8139534883721" y="1350.9418604651162"/>
      <point x="825.1627906976744" y="1243.9418604651162"/>
      <point x="825.1627906976744" y="1073.9806201550387" type="curve" smooth="yes"/>
      <point x="825.1627906976744" y="897.3062015503876"/>
      <point x="720.5697674418604" y="792.7131782945736"/>
      <point x="525.6899224806201" y="792.7131782945736" type="curve" smooth="yes"/>
      <point x="329.63178294573646" y="792.7131782945736" type="line"/>
      <point x="329.63178294573646" y="697.6744186046511" type="line"/>
      <point x="529.6899224806201" y="697.6744186046511" type="line" smooth="yes"/>
      <point x="716.1007751937984" y="697.6744186046511"/>
      <point x="835.7751937984497" y="593.7558139534884"/>
      <point x="835.7751937984497" y="399.63178294573646" type="curve" smooth="yes"/>
      <point x="835.7751937984497" y="212.75193798449612"/>
      <point x="723.1201550387597" y="75.22093023255815"/>
      <point x="545.3837209302326" y="75.22093023255815" type="curve" smooth="yes"/>
      <point x="380.42248062015506" y="75.22093023255815"/>
      <point x="269.4612403100775" y="196.5077519379845"/>
      <point x="269.4612403100775" y="363.16279069767444" type="curve" smooth="yes"/>
      <point x="269.4612403100775" y="395.6937984496124" type="line"/>
      <point x="101.9186046511628" y="395.6937984496124" type="line"/>
      <point x="101.9186046511628" y="355.24418604651163" type="line" smooth="yes"/>
      <point x="101.9186046511628" y="119.0813953488372"/>
      <point x="266.24418604651163" y="-29.531007751937985"/>
    </contour>
  </outline>
</glyph>
<glyph name="four" format="2">
  <advance width="1159.8875968992247"/>
  <unicode hex="0034"/>
  <note>
four
</note>
  <outline>
    <contour>
      <point x="726.8953488372093" y="0.0" type="line"/>
      <point x="878.031007751938" y="0.0" type="line"/>
      <point x="878.031007751938" y="470.16279069767444" type="line"/>
      <point x="714.2984496124031" y="352.9612403100775" type="line"/>
      <point x="1059.8875968992247" y="352.9612403100775" type="line"/>
      <point x="1059.8875968992247" y="477.13953488372096" type="line"/>
      <point x="714.2984496124031" y="477.13953488372096" type="line"/>
      <point x="878.031007751938" y="386.4922480620155" type="line"/>
      <point x="878.031007751938" y="884.2906976744187" type="line"/>
      <point x="726.8953488372093" y="884.2906976744187" type="line"/>
      <point x="726.8953488372093" y="386.4922480620155" type="line"/>
      <point x="846.7093023255813" y="477.13953488372096" type="line"/>
      <point x="217.9341085271318" y="477.13953488372096" type="line"/>
      <point x="290.4418604651163" y="429.0" type="line"/>
      <point x="443.0348837209302" y="753.0193798449612"/>
      <point x="537.6046511627907" y="1023.2403100775193"/>
      <point x="627.8682170542636" y="1440.406976744186" type="curve"/>
      <point x="486.2829457364341" y="1440.406976744186" type="line"/>
      <point x="388.0813953488372" y="1014.7519379844962"/>
      <point x="285.2674418604651" y="728.4302325581396"/>
      <point x="96.9186046511628" y="352.9612403100775" type="curve"/>
      <point x="846.7093023255813" y="352.9612403100775" type="line"/>
      <point x="726.8953488372093" y="470.16279069767444" type="line"/>
    </contour>
  </outline>
</glyph>
<glyph name="five" format="2">
  <advance width="1085.5232558139535"/>
  <unicode hex="0035"/>
  <note>
five
</note>
  <outline>
    <contour>
      <point x="451.19767441860466" y="-30.468992248062015" type="curve" smooth="yes"/>
      <point x="743.6240310077519" y="-30.468992248062015"/>
      <point x="982.6046511627907" y="180.32558139534885"/>
      <point x="982.6046511627907" y="465.0" type="curve" smooth="yes"/>
      <point x="982.6046511627907" y="721.5503875968992"/>
      <point x="789.546511627907" y="885.2441860465116"/>
      <point x="521.2403100775193" y="885.2441860465116" type="curve" smooth="yes"/>
      <point x="394.5077519379845" y="885.2441860465116"/>
      <point x="299.7519379844961" y="844.6744186046511"/>
      <point x="219.75193798449612" y="785.4922480620155" type="curve"/>
      <point x="277.9341085271318" y="770.0426356589147" type="line"/>
      <point x="395.22093023255815" y="1357.391472868217" type="line"/>
      <point x="289.43023255813955" y="1283.8837209302326" type="line"/>
      <point x="897.7286821705426" y="1283.8837209302326" type="line"/>
      <point x="897.7286821705426" y="1430.0" type="line"/>
      <point x="304.36821705426354" y="1430.0" type="line"/>
      <point x="165.91860465116278" y="729.2054263565891" type="line"/>
      <point x="216.77131782945736" y="701.2286821705426" type="line"/>
      <point x="286.4651162790698" y="743.7790697674419"/>
      <point x="394.015503875969" y="767.0038759689922"/>
      <point x="476.7519379844961" y="767.0038759689922" type="curve" smooth="yes"/>
      <point x="689.2015503875969" y="767.0038759689922"/>
      <point x="813.1434108527131" y="650.1860465116279"/>
      <point x="813.1434108527131" y="455.28682170542635" type="curve" smooth="yes"/>
      <point x="813.1434108527131" y="236.3875968992248"/>
      <point x="646.0581395348837" y="87.07751937984497"/>
      <point x="450.3410852713178" y="87.07751937984497" type="curve" smooth="yes"/>
      <point x="326.54651162790697" y="87.07751937984497"/>
      <point x="215.18217054263565" y="144.0968992248062"/>
      <point x="150.5503875968992" y="194.7906976744186" type="curve"/>
      <point x="96.6124031007752" y="103.95736434108527" type="line"/>
      <point x="201.30620155038758" y="21.344961240310077"/>
      <point x="309.8953488372093" y="-30.468992248062015"/>
    </contour>
  </outline>
</glyph>
<glyph name="six" format="2">
  <advance width="1166.3410852713178"/>
  <unicode hex="0036"/>
  <note>
six
</note>
  <outline>
    <contour>
      <point x="570.3837209302326" y="-33.0" type="curve" smooth="yes"/>
      <point x="899.8720930232558" y="-35.6124031007752"/>
      <point x="1062.7286821705427" y="166.8372093023256"/>
      <point x="1062.7286821705427" y="446.38759689922483" type="curve" smooth="yes"/>
      <point x="1062.7286821705427" y="722.0193798449612"/>
      <point x="885.1162790697674" y="910.1821705426356"/>
      <point x="603.6085271317829" y="910.1821705426356" type="curve" smooth="yes"/>
      <point x="436.13565891472865" y="910.1821705426356"/>
      <point x="262.3604651162791" y="827.7713178294574"/>
      <point x="198.75193798449612" y="611.484496124031" type="curve"/>
      <point x="266.05426356589146" y="634.5658914728682" type="line"/>
      <point x="267.2170542635659" y="793.6705426356589"/>
      <point x="294.05426356589146" y="931.7984496124031"/>
      <point x="407.22093023255815" y="1071.0658914728683" type="curve" smooth="yes"/>
      <point x="466.30232558139534" y="1156.9612403100775"/>
      <point x="607.9767441860465" y="1292.0232558139535"/>
      <point x="842.3449612403101" y="1326.6162790697674" type="curve"/>
      <point x="840.9573643410853" y="1450.2635658914728" type="line"/>
      <point x="561.3914728682171" y="1429.7325581395348"/>
      <point x="383.08527131782944" y="1254.6744186046512"/>
      <point x="310.69767441860466" y="1162.0852713178294" type="curve" smooth="yes"/>
      <point x="107.16279069767442" y="931.5542635658915"/>
      <point x="107.9186046511628" y="621.9186046511628"/>
      <point x="107.9186046511628" y="527.4496124031008" type="curve" smooth="yes"/>
      <point x="107.9186046511628" y="85.87596899224806"/>
      <point x="321.16279069767444" y="-30.6937984496124"/>
    </contour>
    <contour>
      <point x="584.2209302325581" y="87.01550387596899" type="curve" smooth="yes"/>
      <point x="378.13565891472865" y="89.32170542635659"/>
      <point x="277.15503875968994" y="265.79457364341084"/>
      <point x="279.7674418604651" y="460.61240310077517" type="curve" smooth="yes"/>
      <point x="282.37984496124034" y="694.5736434108527"/>
      <point x="445.64728682170545" y="785.6976744186046"/>
      <point x="607.0581395348837" y="785.6976744186046" type="curve" smooth="yes"/>
      <point x="840.7364341085271" y="785.6976744186046"/>
      <point x="896.6550387596899" y="589.1007751937984"/>
      <point x="896.6550387596899" y="436.63178294573646" type="curve" smooth="yes"/>
      <point x="896.6550387596899" y="210.5891472868217"/>
      <point x="759.1627906976744" y="85.40310077519379"/>
    </contour>
  </outline>
</glyph>
<glyph name="seven" format="2">
  <advance width="1107.6434108527133"/>
  <unicode hex="0037"/>
  <note>
seven
</note>
  <outline>
    <contour>
      <point x="313.5077519379845" y="0.0" type="curve"/>
      <point x="475.5813953488372" y="0.0" type="line"/>
      <point x="566.1511627906976" y="567.6937984496124"/>
      <point x="738.4767441860465" y="1019.4263565891473"/>
      <point x="1011.031007751938" y="1418.0813953488373" type="curve"/>
      <point x="101.0" y="1418.0813953488373" type="line"/>
      <point x="101.0" y="1258.577519379845" type="line"/>
      <point x="856.077519379845" y="1258.577519379845" type="line"/>
      <point x="801.0387596899225" y="1326.1860465116279" type="line"/>
      <point x="605.1782945736434" y="1010.3023255813954"/>
      <point x="422.484496124031" y="574.3449612403101"/>
    </contour>
  </outline>
</glyph>
<glyph name="eight" format="2">
  <advance width="1125.9922480620155"/>
  <unicode hex="0038"/>
  <note>
eight
</note>
  <outline>
    <contour>
      <point x="563.8953488372093" y="-30.6937984496124" type="curve" smooth="yes"/>
      <point x="845.7286821705426" y="-30.6937984496124"/>
      <point x="1023.3798449612403" y="131.08139534883722"/>
      <point x="1023.3798449612403" y="383.1007751937984" type="curve" smooth="yes"/>
      <point x="1023.3798449612403" y="607.2635658914729"/>
      <point x="867.7480620155038" y="760.5697674418604"/>
      <point x="593.8527131782946" y="847.4263565891473" type="curve" smooth="yes"/>
      <point x="367.78682170542635" y="920.5503875968992"/>
      <point x="318.6046511627907" y="1003.3062015503876"/>
      <point x="318.6046511627907" y="1108.3062015503876" type="curve" smooth="yes"/>
      <point x="318.6046511627907" y="1250.3488372093022"/>
      <point x="416.8914728682171" y="1341.7170542635658"/>
      <point x="579.8720930232558" y="1341.7170542635658" type="curve" smooth="yes"/>
      <point x="731.3217054263566" y="1341.7170542635658"/>
      <point x="835.7325581395348" y="1241.4922480620155"/>
      <point x="835.7325581395348" y="1104.2248062015503" type="curve" smooth="yes"/>
      <point x="835.7325581395348" y="1008.2441860465116"/>
      <point x="780.6279069767442" y="894.937984496124"/>
      <point x="519.8410852713179" y="795.937984496124" type="curve"/>
      <point x="683.484496124031" y="757.8992248062016" type="line"/>
      <point x="830.0542635658915" y="824.6550387596899"/>
      <point x="958.9728682170543" y="966.1046511627907"/>
      <point x="958.9728682170543" y="1115.8992248062016" type="curve" smooth="yes"/>
      <point x="958.9728682170543" y="1324.6744186046512"/>
      <point x="764.8914728682171" y="1445.7751937984497"/>
      <point x="558.4651162790698" y="1445.7751937984497" type="curve" smooth="yes"/>
      <point x="325.8759689922481" y="1445.0813953488373"/>
      <point x="168.6124031007752" y="1307.1434108527133"/>
      <point x="168.6124031007752" y="1091.8178294573643" type="curve" smooth="yes"/>
      <point x="168.6124031007752" y="911.0232558139535"/>
      <point x="326.0" y="785.8410852713179"/>
      <point x="509.12015503875966" y="724.6782945736434" type="curve" smooth="yes"/>
      <point x="794.7558139534884" y="626.7790697674419"/>
      <point x="864.3062015503876" y="524.5930232558139"/>
      <point x="864.3062015503876" y="384.0" type="curve" smooth="yes"/>
      <point x="864.3062015503876" y="195.79457364341084"/>
      <point x="750.8565891472869" y="81.75193798449612"/>
      <point x="548.3449612403101" y="81.75193798449612" type="curve" smooth="yes"/>
      <point x="347.3643410852713" y="81.75193798449612"/>
      <point x="235.4031007751938" y="203.81395348837208"/>
      <point x="235.4031007751938" y="382.83720930232556" type="curve" smooth="yes"/>
      <point x="234.7093023255814" y="516.6550387596899"/>
      <point x="296.2015503875969" y="637.4922480620155"/>
      <point x="534.0968992248062" y="757.9806201550388" type="curve"/>
      <point x="421.38759689922483" y="800.3875968992248" type="line"/>
      <point x="220.6124031007752" y="713.3255813953489"/>
      <point x="102.6124031007752" y="555.7131782945736"/>
      <point x="102.6124031007752" y="363.24418604651163" type="curve" smooth="yes"/>
      <point x="102.6124031007752" y="122.2248062015504"/>
      <point x="298.1434108527132" y="-30.6937984496124"/>
    </contour>
  </outline>
</glyph>
<glyph name="nine" format="2">
  <advance width="1166.0348837209303"/>
  <unicode hex="0039"/>
  <note>
nine
</note>
  <outline>
    <contour>
      <point x="289.3062015503876" y="-38.55038759689923" type="line"/>
      <point x="548.7519379844962" y="-19.406976744186046"/>
      <point x="714.5697674418604" y="98.06589147286822"/>
      <point x="795.9767441860465" y="171.92248062015503" type="curve" smooth="yes"/>
      <point x="864.6899224806201" y="233.77906976744185"/>
      <point x="915.6279069767442" y="310.2674418604651"/>
      <point x="950.7093023255813" y="376.3488372093023" type="curve" smooth="yes"/>
      <point x="1060.3410852713178" y="582.2868217054264"/>
      <point x="1058.422480620155" y="805.5503875968992"/>
      <point x="1058.422480620155" y="884.2635658914729" type="curve" smooth="yes"/>
      <point x="1058.422480620155" y="1325.8372093023256"/>
      <point x="844.484496124031" y="1442.406976744186"/>
      <point x="595.9573643410853" y="1444.7131782945737" type="curve" smooth="yes"/>
      <point x="276.1821705426357" y="1447.3255813953488"/>
      <point x="103.6124031007752" y="1244.875968992248"/>
      <point x="103.6124031007752" y="962.5503875968992" type="curve" smooth="yes"/>
      <point x="103.6124031007752" y="680.6744186046511"/>
      <point x="287.468992248062" y="492.51162790697674"/>
      <point x="562.0387596899225" y="492.51162790697674" type="curve" smooth="yes"/>
      <point x="730.2054263565891" y="492.51162790697674"/>
      <point x="894.9612403100775" y="579.7790697674419"/>
      <point x="967.5891472868217" y="800.922480620155" type="curve"/>
      <point x="896.8178294573644" y="777.1472868217054" type="line"/>
      <point x="899.1240310077519" y="631.2248062015503"/>
      <point x="883.3875968992248" y="490.3217054263566"/>
      <point x="770.2209302325581" y="351.7480620155039" type="curve" smooth="yes"/>
      <point x="711.1395348837209" y="265.85271317829455"/>
      <point x="571.546511627907" y="130.7906976744186"/>
      <point x="301.1007751937984" y="99.66666666666666" type="curve"/>
    </contour>
    <contour>
      <point x="559.2829457364342" y="621.8527131782946" type="curve" smooth="yes"/>
      <point x="326.2984496124031" y="621.8527131782946"/>
      <point x="272.4612403100775" y="822.6124031007752"/>
      <point x="272.4612403100775" y="972.3062015503876" type="curve" smooth="yes"/>
      <point x="272.4612403100775" y="1199.7364341085272"/>
      <point x="408.5658914728682" y="1324.922480620155"/>
      <point x="582.1201550387597" y="1322.6162790697674" type="curve" smooth="yes"/>
      <point x="786.8178294573644" y="1321.0038759689924"/>
      <point x="885.7170542635658" y="1139.6744186046512"/>
      <point x="883.1046511627907" y="948.3255813953489" type="curve" smooth="yes"/>
      <point x="880.4922480620155" y="712.9767441860465"/>
      <point x="717.9186046511628" y="621.8527131782946"/>
    </contour>
  </outline>
</glyph>
<glyph name="greater" format="2">
  <advance width="1112.9147286821706"/>
  <unicode hex="003E"/>
  <note>
greater
</note>
  <outline>
    <contour>
      <point x="139.3875968992248" y="284.86434108527135" type="line"/>
      <point x="944.6860465116279" y="621.8604651162791" type="line"/>
      <point x="944.6860465116279" y="745.0581395348837" type="line"/>
      <point x="139.3875968992248" y="1081.0542635658915" type="line"/>
      <point x="139.3875968992248" y="932.6937984496124" type="line"/>
      <point x="740.9186046511628" y="683.3062015503876" type="line"/>
      <point x="139.3875968992248" y="433.2248062015504" type="line"/>
    </contour>
  </outline>
</glyph>
<glyph name="question" format="2">
  <advance width="1073.7480620155038"/>
  <unicode hex="003F"/>
  <note>
question
</note>
  <outline>
    <contour>
      <point x="442.79457364341084" y="407.2751937984496" type="curve"/>
      <point x="547.077519379845" y="407.2751937984496" type="line"/>
      <point x="543.8527131782946" y="468.91472868217056"/>
      <point x="536.8333333333334" y="549.484496124031"/>
      <point x="536.8333333333334" y="597.5891472868217" type="curve" smooth="yes"/>
      <point x="536.8333333333334" y="829.546511627907"/>
      <point x="950.6046511627907" y="824.531007751938"/>
      <point x="950.6046511627907" y="1159.5116279069769" type="curve" smooth="yes"/>
      <point x="950.6046511627907" y="1357.8372093023256"/>
      <point x="795.0968992248062" y="1462.0"/>
      <point x="516.7325581395348" y="1462.0" type="curve" smooth="yes"/>
      <point x="247.6124031007752" y="1462.0"/>
      <point x="120.83720930232558" y="1364.0"/>
      <point x="120.83720930232558" y="1158.7558139534883" type="curve" smooth="yes"/>
      <point x="120.83720930232558" y="1142.062015503876"/>
      <point x="120.83720930232558" y="1125.1434108527133"/>
      <point x="120.83720930232558" y="1087.5736434108528" type="curve"/>
      <point x="282.42248062015506" y="1087.5736434108528" type="line"/>
      <point x="271.5658914728682" y="1126.8565891472867"/>
      <point x="271.1782945736434" y="1149.5697674418604"/>
      <point x="271.1782945736434" y="1168.0" type="curve" smooth="yes"/>
      <point x="271.1782945736434" y="1287.124031007752"/>
      <point x="366.85271317829455" y="1350.6162790697674"/>
      <point x="514.4263565891473" y="1350.6162790697674" type="curve" smooth="yes"/>
      <point x="681.3062015503876" y="1350.6162790697674"/>
      <point x="769.7558139534884" y="1270.6976744186047"/>
      <point x="769.7558139534884" y="1138.4496124031007" type="curve" smooth="yes"/>
      <point x="769.7558139534884" y="885.6705426356589"/>
      <point x="424.63178294573646" y="949.3798449612403"/>
      <point x="424.63178294573646" y="586.5891472868217" type="curve" smooth="yes"/>
      <point x="424.63178294573646" y="523.3023255813954"/>
      <point x="433.8565891472868" y="464.42248062015506"/>
    </contour>
    <contour>
      <point x="500.12015503875966" y="-19.468992248062015" type="curve" smooth="yes"/>
      <point x="564.5271317829457" y="-19.468992248062015"/>
      <point x="608.546511627907" y="33.48837209302326"/>
      <point x="608.546511627907" y="102.44573643410853" type="curve" smooth="yes"/>
      <point x="608.546511627907" y="170.7093023255814"/>
      <point x="564.5271317829457" y="222.36046511627907"/>
      <point x="500.12015503875966" y="222.36046511627907" type="curve" smooth="yes"/>
      <point x="435.71317829457365" y="222.36046511627907"/>
      <point x="391.6937984496124" y="170.7093023255814"/>
      <point x="391.6937984496124" y="102.44573643410853" type="curve" smooth="yes"/>
      <point x="391.6937984496124" y="33.48837209302326"/>
      <point x="435.71317829457365" y="-19.468992248062015"/>
    </contour>
  </outline>
</glyph>
<glyph name="at" format="2">
  <advance width="1749.5426356589148"/>
  <unicode hex="0040"/>
  <note>
at
</note>
  <outline>
    <contour>
      <point x="918.8333333333334" y="-34.16279069767442" type="curve" smooth="yes"/>
      <point x="1214.3410852713178" y="-34.16279069767442"/>
      <point x="1477.8488372093022" y="127.63178294573643"/>
      <point x="1612.093023255814" y="376.68992248062017" type="curve"/>
      <point x="1489.5271317829458" y="387.7519379844961" type="line"/>
      <point x="1370.9147286821706" y="195.75193798449612"/>
      <point x="1159.2209302325582" y="71.91472868217055"/>
      <point x="916.5271317829457" y="71.91472868217055" type="curve" smooth="yes"/>
      <point x="549.077519379845" y="71.91472868217055"/>
      <point x="249.85271317829458" y="360.34496124031006"/>
      <point x="249.85271317829458" y="713.9186046511628" type="curve" smooth="yes"/>
      <point x="249.85271317829458" y="1066.8798449612402"/>
      <point x="549.077519379845" y="1355.3100775193798"/>
      <point x="916.5271317829457" y="1355.3100775193798" type="curve" smooth="yes"/>
      <point x="1240.6705426356589" y="1355.3100775193798"/>
      <point x="1480.4263565891472" y="1134.7984496124031"/>
      <point x="1480.4263565891472" y="832.531007751938" type="curve" smooth="yes"/>
      <point x="1480.4263565891472" y="740.8372093023256"/>
      <point x="1454.1201550387598" y="649.6937984496124"/>
      <point x="1409.0387596899225" y="581.1627906976744" type="curve" smooth="yes"/>
      <point x="1368.4457364341085" y="516.2829457364342"/>
      <point x="1306.4651162790697" y="445.8139534883721"/>
      <point x="1226.891472868217" y="425.0" type="curve" smooth="yes"/>
      <point x="1191.5232558139535" y="428.468992248062"/>
      <point x="1145.7054263565892" y="446.9186046511628"/>
      <point x="1151.4612403100775" y="510.55426356589146" type="curve"/>
      <point x="1299.4186046511627" y="1088.5697674418604" type="line"/>
      <point x="1148.468992248062" y="1088.5697674418604" type="line"/>
      <point x="1123.1821705426357" y="994.4418604651163" type="line"/>
      <point x="1098.8565891472867" y="1077.0581395348838"/>
      <point x="1044.468992248062" y="1108.5697674418604"/>
      <point x="953.4883720930233" y="1108.5697674418604" type="curve" smooth="yes"/>
      <point x="684.8372093023256" y="1108.5697674418604"/>
      <point x="481.77906976744185" y="836.5697674418604"/>
      <point x="481.77906976744185" y="591.3488372093024" type="curve" smooth="yes"/>
      <point x="481.77906976744185" y="420.00387596899225"/>
      <point x="587.3488372093024" y="309.6782945736434"/>
      <point x="764.8565891472869" y="309.6782945736434" type="curve" smooth="yes"/>
      <point x="870.5503875968992" y="309.6782945736434"/>
      <point x="963.6744186046511" y="345.04651162790697"/>
      <point x="1022.8565891472869" y="438.17054263565893" type="curve"/>
      <point x="1044.4263565891472" y="369.1085271317829"/>
      <point x="1084.4263565891472" y="322.6782945736434"/>
      <point x="1184.5697674418604" y="322.6782945736434" type="curve" smooth="yes"/>
      <point x="1256.7325581395348" y="322.6782945736434"/>
      <point x="1323.9767441860465" y="348.7596899224806"/>
      <point x="1384.6899224806202" y="395.00387596899225" type="curve" smooth="yes"/>
      <point x="1449.0968992248063" y="443.2480620155039"/>
      <point x="1493.484496124031" y="500.1666666666667"/>
      <point x="1530.422480620155" y="574.4108527131783" type="curve" smooth="yes"/>
      <point x="1569.9728682170542" y="654.6550387596899"/>
      <point x="1590.0542635658915" y="742.4302325581396"/>
      <point x="1590.0542635658915" y="832.4496124031008" type="curve" smooth="yes"/>
      <point x="1590.0542635658915" y="1210.2248062015503"/>
      <point x="1312.6472868217054" y="1460.6937984496124"/>
      <point x="918.8333333333334" y="1460.6937984496124" type="curve" smooth="yes"/>
      <point x="488.1007751937984" y="1460.6937984496124"/>
      <point x="140.91860465116278" y="1127.3875968992247"/>
      <point x="140.91860465116278" y="713.9186046511628" type="curve" smooth="yes"/>
      <point x="140.91860465116278" y="299.1434108527132"/>
      <point x="487.40697674418607" y="-34.16279069767442"/>
    </contour>
    <contour>
      <point x="801.5503875968992" y="410.61240310077517" type="curve" smooth="yes"/>
      <point x="701.2209302325581" y="410.61240310077517"/>
      <point x="635.8100775193799" y="474.43023255813955"/>
      <point x="635.8100775193799" y="579.5736434108527" type="curve" smooth="yes"/>
      <point x="635.8100775193799" y="803.6162790697674"/>
      <point x="790.6279069767442" y="1007.7170542635658"/>
      <point x="964.9573643410853" y="1007.7170542635658" type="curve" smooth="yes"/>
      <point x="1034.8565891472867" y="1007.7170542635658"/>
      <point x="1057.6124031007753" y="946.6744186046511"/>
      <point x="1057.6124031007753" y="853.7558139534884" type="curve" smooth="yes"/>
      <point x="1057.6124031007753" y="691.4108527131783"/>
      <point x="954.8992248062016" y="410.61240310077517"/>
    </contour>
  </outline>
</glyph>
<glyph name="A" format="2">
  <advance width="1541.1356589147288"/>
  <unicode hex="0041"/>
  <note>
A
</note>
  <anchor x="770.2209302325581" y="0.8139534883720927" name="bottom"/>
  <anchor x="1306.1046511627908" y="0.0" name="ogonek"/>
  <anchor x="770.2209302325581" y="1430.0" name="top"/>
  <outline>
    <contour>
      <point x="102.9186046511628" y="0.0" type="line"/>
      <point x="221.91472868217053" y="0.0" type="line"/>
      <point x="760.0" y="1206.9108527131782" type="line"/>
      <point x="709.4069767441861" y="1232.7480620155038" type="line"/>
      <point x="1252.7790697674418" y="0.0" type="line"/>
      <point x="1438.2170542635658" y="0.0" type="line"/>
      <point x="769.2209302325581" y="1470.1627906976744" type="line"/>
    </contour>
    <contour>
      <point x="335.75581395348837" y="451.02713178294573" type="line"/>
      <point x="1144.6317829457364" y="451.02713178294573" type="line"/>
      <point x="1099.062015503876" y="566.8798449612403" type="line"/>
      <point x="384.1007751937984" y="566.8798449612403" type="line"/>
    </contour>
  </outline>
</glyph>
<glyph name="B" format="2">
  <advance width="1246.1744186046512"/>
  <unicode hex="0042"/>
  <note>
B
</note>
  <anchor x="614.9147286821706" y="0.8139534883720927" name="bottom"/>
  <anchor x="614.9147286821706" y="1430.0" name="top"/>
  <outline>
    <contour>
      <point x="141.6124031007752" y="0.0" type="line"/>
      <point x="578.5077519379845" y="0.0" type="line" smooth="yes"/>
      <point x="943.8488372093024" y="0.0"/>
      <point x="1137.562015503876" y="143.14341085271317"/>
      <point x="1137.562015503876" y="413.48837209302326" type="curve" smooth="yes"/>
      <point x="1137.562015503876" y="621.4883720930233"/>
      <point x="1008.4186046511628" y="768.3875968992248"/>
      <point x="797.4806201550388" y="793.7131782945736" type="curve"/>
      <point x="797.1550387596899" y="719.3682170542636" type="line"/>
      <point x="980.4806201550388" y="764.0"/>
      <point x="1081.9302325581396" y="880.9806201550388"/>
      <point x="1081.9302325581396" y="1046.2054263565892" type="curve" smooth="yes"/>
      <point x="1081.9302325581396" y="1283.8565891472867"/>
      <point x="894.4418604651163" y="1432.0813953488373"/>
      <point x="590.9573643410853" y="1432.0813953488373" type="curve" smooth="yes"/>
      <point x="141.6124031007752" y="1432.0813953488373" type="line"/>
    </contour>
    <contour>
      <point x="315.5" y="12.306201550387597" type="line"/>
      <point x="315.5" y="787.4069767441861" type="line"/>
      <point x="244.4418604651163" y="701.9612403100775" type="line"/>
      <point x="618.3643410852713" y="701.9612403100775" type="line" smooth="yes"/>
      <point x="819.3875968992248" y="701.9612403100775"/>
      <point x="947.7364341085271" y="592.6744186046511"/>
      <point x="947.7364341085271" y="419.01937984496124" type="curve" smooth="yes"/>
      <point x="947.7364341085271" y="226.75193798449612"/>
      <point x="799.3062015503876" y="111.68992248062015"/>
      <point x="551.6085271317829" y="111.68992248062015" type="curve" smooth="yes"/>
      <point x="189.69379844961242" y="111.68992248062015" type="line"/>
    </contour>
    <contour>
      <point x="315.5" y="724.8992248062016" type="line"/>
      <point x="315.5" y="1415.9186046511627" type="line"/>
      <point x="162.48837209302326" y="1320.391472868217" type="line"/>
      <point x="578.5077519379845" y="1320.391472868217" type="line" smooth="yes"/>
      <point x="793.4069767441861" y="1320.391472868217"/>
      <point x="895.1860465116279" y="1198.9031007751937"/>
      <point x="895.1860465116279" y="1035.4302325581396" type="curve" smooth="yes"/>
      <point x="895.1860465116279" y="870.937984496124"/>
      <point x="783.2441860465116" y="811.0387596899225"/>
      <point x="590.9573643410853" y="811.0387596899225" type="curve" smooth="yes"/>
      <point x="249.39922480620154" y="811.0387596899225" type="line"/>
    </contour>
  </outline>
</glyph>
<glyph name="C" format="2">
  <advance width="1539.7054263565892"/>
  <unicode hex="0043"/>
  <note>
C
</note>
  <anchor x="758.7519379844962" y="0.8139534883720927" name="bottom"/>
  <anchor x="808.745" y="1430.0" name="top"/>
  <outline>
    <contour>
      <point x="821.7519379844962" y="-20.406976744186046" type="curve" smooth="yes"/>
      <point x="1099.3410852713178" y="-20.406976744186046"/>
      <point x="1302.2558139534883" y="110.71317829457364"/>
      <point x="1435.093023255814" y="376.7519379844961" type="curve"/>
      <point x="1255.7558139534883" y="376.7519379844961" type="line"/>
      <point x="1167.6937984496124" y="194.6705426356589"/>
      <point x="1015.4883720930233" y="94.67054263565892"/>
      <point x="822.9767441860465" y="94.67054263565892" type="curve" smooth="yes"/>
      <point x="506.50387596899225" y="94.67054263565892"/>
      <point x="291.78682170542635" y="344.1007751937984"/>
      <point x="291.78682170542635" y="714.9186046511628" type="curve" smooth="yes"/>
      <point x="291.78682170542635" y="1086.0426356589148"/>
      <point x="504.8914728682171" y="1335.5542635658915"/>
      <point x="819.0581395348837" y="1335.5542635658915" type="curve" smooth="yes"/>
      <point x="1016.1821705426356" y="1335.5542635658915"/>
      <point x="1181.4496124031007" y="1232.9418604651162"/>
      <point x="1255.9806201550387" y="1055.0852713178294" type="curve"/>
      <point x="1429.5426356589148" y="1055.0852713178294" type="line"/>
      <point x="1333.6434108527133" y="1305.2674418604652"/>
      <point x="1098.1782945736434" y="1449.937984496124"/>
      <point x="819.6705426356589" y="1449.937984496124" type="curve" smooth="yes"/>
      <point x="407.26356589147287" y="1449.937984496124"/>
      <point x="111.9186046511628" y="1140.1434108527133"/>
      <point x="111.9186046511628" y="714.6124031007752" type="curve" smooth="yes"/>
      <point x="111.9186046511628" y="283.16279069767444"/>
      <point x="402.0387596899225" y="-20.406976744186046"/>
    </contour>
  </outline>
</glyph>
<glyph name="D" format="2">
  <advance width="1430.7674418604652"/>
  <unicode hex="0044"/>
  <note>
D
</note>
  <anchor x="719.546511627907" y="-13.75581395348837" name="bottom"/>
  <anchor x="232.015503875969" y="715.0" name="center"/>
  <anchor x="719.546511627907" y="1430.0" name="top"/>
  <outline>
    <contour>
      <point x="141.6124031007752" y="0.0" type="line"/>
      <point x="525.2403100775193" y="0.0" type="line" smooth="yes"/>
      <point x="781.2364341085272" y="0.0"/>
      <point x="905.1976744186046" y="25.143410852713178"/>
      <point x="1048.15503875969" y="113.10077519379846" type="curve" smooth="yes"/>
      <point x="1211.5852713178294" y="212.32558139534885"/>
      <point x="1317.8488372093022" y="416.8565891472868"/>
      <point x="1317.8488372093022" y="715.3875968992248" type="curve" smooth="yes"/>
      <point x="1317.8488372093022" y="972.6744186046511"/>
      <point x="1236.8294573643411" y="1172.531007751938"/>
      <point x="1101.2170542635658" y="1280.2248062015503" type="curve" smooth="yes"/>
      <point x="949.3410852713179" y="1401.406976744186"/>
      <point x="804.0116279069767" y="1432.0813953488373"/>
      <point x="462.2403100775194" y="1432.0813953488373" type="curve" smooth="yes"/>
      <point x="141.6124031007752" y="1432.0813953488373" type="line"/>
    </contour>
    <contour>
      <point x="324.8062015503876" y="11.143410852713178" type="line"/>
      <point x="324.8062015503876" y="1420.937984496124" type="line"/>
      <point x="190.1627906976744" y="1320.391472868217" type="line"/>
      <point x="520.3449612403101" y="1320.391472868217" type="line" smooth="yes"/>
      <point x="949.8372093023256" y="1320.391472868217"/>
      <point x="1140.5116279069769" y="1142.4302325581396"/>
      <point x="1140.5116279069769" y="721.0813953488372" type="curve" smooth="yes"/>
      <point x="1140.5116279069769" y="293.4263565891473"/>
      <point x="946.4496124031008" y="111.68992248062015"/>
      <point x="515.1201550387597" y="111.68992248062015" type="curve" smooth="yes"/>
      <point x="190.1627906976744" y="111.68992248062015" type="line"/>
    </contour>
  </outline>
</glyph>
<glyph name="E" format="2">
  <advance width="1138.0736434108528"/>
  <unicode hex="0045"/>
  <note>
E
</note>
  <anchor x="561.0581395348837" y="0.8139534883720927" name="bottom"/>
  <anchor x="881.6007751937984" y="0.0" name="ogonek"/>
  <anchor x="603.8333333333334" y="1430.0" name="top"/>
  <anchor x="4.019379844961241" y="1430.0" name="topleft"/>
  <outline>
    <contour>
      <point x="141.6124031007752" y="0.0" type="line"/>
      <point x="1024.3798449612402" y="0.0" type="line"/>
      <point x="1024.3798449612402" y="111.68992248062015" type="line"/>
      <point x="206.484496124031" y="111.68992248062015" type="line"/>
      <point x="315.5" y="13.224806201550388" type="line"/>
      <point x="315.5" y="777.1201550387597" type="line"/>
      <point x="204.26356589147287" y="673.0426356589147" type="line"/>
      <point x="1024.3798449612402" y="673.0426356589147" type="line"/>
      <point x="1024.3798449612402" y="784.7325581395348" type="line"/>
      <point x="206.484496124031" y="784.7325581395348" type="line"/>
      <point x="315.5" y="686.2674418604652" type="line"/>
      <point x="315.5" y="1421.0813953488373" type="line"/>
      <point x="183.1627906976744" y="1320.391472868217" type="line"/>
      <point x="1024.3798449612402" y="1320.391472868217" type="line"/>
      <point x="1024.3798449612402" y="1432.0813953488373" type="line"/>
      <point x="141.6124031007752" y="1432.0813953488373" type="line"/>
    </contour>
  </outline>
</glyph>
<glyph name="F" format="2">
  <advance width="1102.891472868217"/>
  <unicode hex="0046"/>
  <note>
F
</note>
  <anchor x="541.7325581395348" y="0.8139534883720927" name="bottom"/>
  <anchor x="541.7325581395348" y="1430.0" name="top"/>
  <outline>
    <contour>
      <point x="141.6124031007752" y="0.0" type="line"/>
      <point x="315.5" y="0.0" type="line"/>
      <point x="315.5" y="770.7945736434109" type="line"/>
      <point x="193.0" y="667.4922480620155" type="line"/>
      <point x="992.1976744186046" y="667.4922480620155" type="line"/>
      <point x="992.1976744186046" y="778.4883720930233" type="line"/>
      <point x="175.93798449612405" y="778.4883720930233" type="line"/>
      <point x="315.5" y="677.3294573643411" type="line"/>
      <point x="315.5" y="1416.9186046511627" type="line"/>
      <point x="183.1627906976744" y="1320.391472868217" type="line"/>
      <point x="992.1976744186046" y="1320.391472868217" type="line"/>
      <point x="992.1976744186046" y="1432.0813953488373" type="line"/>
      <point x="141.6124031007752" y="1432.0813953488373" type="line"/>
    </contour>
  </outline>
</glyph>
<glyph name="G" format="2">
  <advance width="1619.9922480620155"/>
  <unicode hex="0047"/>
  <note>
G
</note>
  <anchor x="807.2209302325581" y="0.8139534883720927" name="bottom"/>
  <anchor x="807.2209302325581" y="1430.0" name="top"/>
  <outline>
    <contour>
      <point x="814.6899224806201" y="-20.406976744186046" type="curve" smooth="yes"/>
      <point x="1208.953488372093" y="-20.406976744186046"/>
      <point x="1488.6860465116279" y="253.91860465116278"/>
      <point x="1513.3798449612402" y="656.0813953488372" type="curve"/>
      <point x="1330.0426356589148" y="656.0813953488372" type="line"/>
      <point x="1309.5116279069769" y="318.71317829457365"/>
      <point x="1108.2441860465117" y="97.42635658914729"/>
      <point x="813.9961240310078" y="91.2015503875969" type="curve"/>
      <point x="502.13565891472865" y="98.42635658914729"/>
      <point x="295.25581395348837" y="346.3255813953488"/>
      <point x="295.25581395348837" y="714.2248062015503" type="curve" smooth="yes"/>
      <point x="295.25581395348837" y="1082.8178294573643"/>
      <point x="504.4418604651163" y="1334.4108527131782"/>
      <point x="813.9961240310078" y="1338.3294573643411" type="curve"/>
      <point x="1011.1201550387597" y="1335.7170542635658"/>
      <point x="1166.2441860465117" y="1234.1046511627908"/>
      <point x="1253.531007751938" y="1059.2480620155038" type="curve"/>
      <point x="1442.7054263565892" y="1059.2480620155038" type="line"/>
      <point x="1338.1744186046512" y="1296.8992248062016"/>
      <point x="1095.5658914728683" y="1449.937984496124"/>
      <point x="813.9961240310078" y="1449.937984496124" type="curve" smooth="yes"/>
      <point x="405.8139534883721" y="1449.937984496124"/>
      <point x="111.9186046511628" y="1140.1434108527133"/>
      <point x="111.9186046511628" y="714.0" type="curve" smooth="yes"/>
      <point x="111.9186046511628" y="280.9186046511628"/>
      <point x="398.6511627906977" y="-20.406976744186046"/>
    </contour>
    <contour>
      <point x="959.3875968992248" y="543.3914728682171" type="line"/>
      <point x="1446.139534883721" y="543.3914728682171" type="line"/>
      <point x="1446.139534883721" y="655.0813953488372" type="line"/>
      <point x="959.3875968992248" y="655.0813953488372" type="line"/>
    </contour>
  </outline>
</glyph>
<glyph name="H" format="2">
  <advance width="1520.1782945736434"/>
  <unicode hex="0048"/>
  <note>
H
</note>
  <anchor x="760.5891472868217" y="0.8139534883720927" name="bottom"/>
  <anchor x="760.5891472868217" y="715.0" name="center"/>
  <anchor x="760.5891472868217" y="1430.0" name="top"/>
  <anchor x="4.019379844961241" y="1430.0" name="topleft"/>
  <outline>
    <contour>
      <point x="141.6124031007752" y="0.0" type="line"/>
      <point x="315.9496124031008" y="0.0" type="line"/>
      <point x="315.9496124031008" y="779.8333333333334" type="line"/>
      <point x="172.24418604651163" y="677.0426356589147" type="line"/>
      <point x="1336.0968992248063" y="677.0426356589147" type="line"/>
      <point x="1204.5348837209303" y="779.8333333333334" type="line"/>
      <point x="1204.5348837209303" y="0.0" type="line"/>
      <point x="1378.5658914728683" y="0.0" type="line"/>
      <point x="1378.5658914728683" y="1432.0813953488373" type="line"/>
      <point x="1204.5348837209303" y="1432.0813953488373" type="line"/>
      <point x="1204.5348837209303" y="686.6356589147287" type="line"/>
      <point x="1336.0968992248063" y="789.4263565891473" type="line"/>
      <point x="172.24418604651163" y="789.4263565891473" type="line"/>
      <point x="315.9496124031008" y="686.6356589147287" type="line"/>
      <point x="315.9496124031008" y="1432.0813953488373" type="line"/>
      <point x="141.6124031007752" y="1432.0813953488373" type="line"/>
    </contour>
  </outline>
</glyph>
<glyph name="I" format="2">
  <advance width="456.4186046511628"/>
  <unicode hex="0049"/>
  <note>
I
</note>
  <anchor x="228.7093023255814" y="0.8139534883720927" name="bottom"/>
  <anchor x="245.13565891472868" y="0.0" name="ogonek"/>
  <anchor x="228.7093023255814" y="1430.0" name="top"/>
  <anchor x="3.325581395348838" y="1430.0" name="topleft"/>
  <outline>
    <contour>
      <point x="141.6124031007752" y="0.0" type="line"/>
      <point x="315.5" y="0.0" type="line"/>
      <point x="315.5" y="1432.0813953488373" type="line"/>
      <point x="141.6124031007752" y="1432.0813953488373" type="line"/>
    </contour>
  </outline>
</glyph>
<glyph name="J" format="2">
  <advance width="807.7209302325582"/>
  <unicode hex="004A"/>
  <note>
J
</note>
  <anchor x="416.15503875968994" y="0.8139534883720927" name="bottom"/>
  <anchor x="416.15503875968994" y="1430.0" name="top"/>
  <outline>
    <contour>
      <point x="106.3062015503876" y="-55.41085271317829" type="line"/>
      <point x="167.24418604651163" y="-102.28682170542636"/>
      <point x="264.015503875969" y="-149.08139534883722"/>
      <point x="370.9108527131783" y="-149.08139534883722" type="curve" smooth="yes"/>
      <point x="558.5387596899225" y="-149.08139534883722"/>
      <point x="668.4961240310078" y="-6.3100775193798455"/>
      <point x="668.4961240310078" y="237.7248062015504" type="curve" smooth="yes"/>
      <point x="668.4961240310078" y="1432.0813953488373" type="line"/>
      <point x="494.30232558139534" y="1432.0813953488373" type="line"/>
      <point x="494.30232558139534" y="268.0348837209302" type="line" smooth="yes"/>
      <point x="494.30232558139534" y="34.52713178294574"/>
      <point x="464.72868217054264" y="-29.922480620155035"/>
      <point x="361.3410852713178" y="-29.922480620155035" type="curve" smooth="yes"/>
      <point x="255.99612403100775" y="-29.922480620155035"/>
      <point x="165.56976744186048" y="33.872093023255815"/>
      <point x="106.3062015503876" y="76.44186046511628" type="curve"/>
    </contour>
  </outline>
</glyph>
<glyph name="K" format="2">
  <advance width="1414.906976744186"/>
  <unicode hex="004B"/>
  <note>
K
</note>
  <anchor x="683.6705426356589" y="0.8139534883720927" name="bottom"/>
  <anchor x="683.6705426356589" y="1430.0" name="top"/>
  <outline>
    <contour>
      <point x="141.6124031007752" y="0.0" type="line"/>
      <point x="315.5" y="0.0" type="line"/>
      <point x="315.5" y="1432.0813953488373" type="line"/>
      <point x="141.6124031007752" y="1432.0813953488373" type="line"/>
    </contour>
    <contour>
      <point x="296.66279069767444" y="476.73643410852713" type="line"/>
      <point x="1234.8062015503876" y="1432.0813953488373" type="line"/>
      <point x="1074.8139534883721" y="1432.0813953488373" type="line"/>
      <point x="233.13953488372093" y="570.4302325581396" type="line"/>
    </contour>
    <contour>
      <point x="1089.7945736434108" y="0.0" type="line"/>
      <point x="1312.9883720930234" y="0.0" type="line"/>
      <point x="607.0077519379845" y="848.6705426356589" type="line"/>
      <point x="480.2596899224806" y="731.1240310077519" type="line"/>
    </contour>
  </outline>
</glyph>
<glyph name="L" format="2">
  <advance width="1109.6627906976744"/>
  <unicode hex="004C"/>
  <note>
L
</note>
  <anchor x="555.1782945736434" y="0.8139534883720927" name="bottom"/>
  <anchor x="218.9341085271318" y="715.0" name="center"/>
  <anchor x="728.5813953488372" y="786.1007751937984" name="dot"/>
  <anchor x="1043.7248062015503" y="10.0" name="ogonek"/>
  <anchor x="360.72868217054264" y="1430.0" name="top"/>
  <anchor x="-46.08139534883721" y="1430.0" name="topleft"/>
  <anchor x="785.5232558139535" y="1430.0" name="topright"/>
  <outline>
    <contour>
      <point x="141.6124031007752" y="0.0" type="line"/>
      <point x="1004.3565891472869" y="0.0" type="line"/>
      <point x="1004.3565891472869" y="104.75193798449612" type="line"/>
      <point x="185.85658914728683" y="104.75193798449612" type="line"/>
      <point x="319.8062015503876" y="17.08139534883721" type="line"/>
      <point x="319.8062015503876" y="1430.0" type="line"/>
      <point x="141.6124031007752" y="1430.0" type="line"/>
    </contour>
  </outline>
</glyph>
<glyph name="M" format="2">
  <advance width="1723.9922480620155"/>
  <unicode hex="004D"/>
  <note>
M
</note>
  <anchor x="861.9961240310078" y="0.8139534883720927" name="bottom"/>
  <anchor x="861.9961240310078" y="1430.0" name="top"/>
  <outline>
    <contour>
      <point x="141.6124031007752" y="0.0" type="line"/>
      <point x="289.13565891472865" y="0.0" type="line"/>
      <point x="289.13565891472865" y="1323.8255813953488" type="line"/>
      <point x="204.7325581395349" y="1302.9496124031007" type="line"/>
      <point x="850.8953488372093" y="57.248062015503876" type="line"/>
      <point x="1488.0387596899225" y="1331.7015503875969" type="line"/>
      <point x="1411.9612403100775" y="1302.3178294573643" type="line"/>
      <point x="1411.9612403100775" y="0.0" type="line"/>
      <point x="1582.3798449612402" y="0.0" type="line"/>
      <point x="1582.3798449612402" y="1432.0813953488373" type="line"/>
      <point x="1366.124031007752" y="1432.0813953488373" type="line"/>
      <point x="779.7558139534884" y="262.1782945736434" type="line"/>
      <point x="927.5852713178294" y="276.7480620155039" type="line"/>
      <point x="330.1162790697674" y="1432.0813953488373" type="line"/>
      <point x="141.6124031007752" y="1432.0813953488373" type="line"/>
    </contour>
  </outline>
</glyph>
<glyph name="N" format="2">
  <advance width="1549.9767441860465"/>
  <unicode hex="004E"/>
  <note>
N
</note>
  <anchor x="775.4883720930233" y="0.8139534883720927" name="bottom"/>
  <anchor x="775.4883720930233" y="1430.0" name="top"/>
  <outline>
    <contour>
      <point x="145.08139534883722" y="0.0" type="line"/>
      <point x="291.9108527131783" y="0.0" type="line"/>
      <point x="291.9108527131783" y="1255.422480620155" type="line"/>
      <point x="207.87596899224806" y="1268.1124031007753" type="line"/>
      <point x="1236.1666666666667" y="0.0" type="line"/>
      <point x="1408.3643410852712" y="0.0" type="line"/>
      <point x="1408.3643410852712" y="1432.0813953488373" type="line"/>
      <point x="1260.8410852713178" y="1432.0813953488373" type="line"/>
      <point x="1260.8410852713178" y="137.1124031007752" type="line"/>
      <point x="1328.7131782945737" y="174.25581395348837" type="line"/>
      <point x="319.64728682170545" y="1432.0813953488373" type="line"/>
      <point x="141.6124031007752" y="1432.0813953488373" type="line"/>
    </contour>
  </outline>
</glyph>
<glyph name="O" format="2">
  <advance width="1625.9108527131782"/>
  <unicode hex="004F"/>
  <note>
O
</note>
  <anchor x="813.3023255813954" y="-13.75581395348837" name="bottom"/>
  <anchor x="813.3023255813954" y="715.0" name="center"/>
  <anchor x="925.9108527131783" y="0.0" name="ogonek"/>
  <anchor x="813.3023255813954" y="1430.0" name="top"/>
  <anchor x="15.813953488372093" y="1430.0" name="topleft"/>
  <anchor x="1413.0387596899225" y="1430.0" name="topright"/>
  <outline>
    <contour>
      <point x="813.3023255813954" y="-20.406976744186046" type="curve" smooth="yes"/>
      <point x="1227.2596899224807" y="-20.406976744186046"/>
      <point x="1513.9922480620155" y="282.3062015503876"/>
      <point x="1513.9922480620155" y="711.9186046511628" type="curve" smooth="yes"/>
      <point x="1513.9922480620155" y="1142.531007751938"/>
      <point x="1224.5658914728683" y="1449.937984496124"/>
      <point x="813.3023255813954" y="1449.937984496124" type="curve" smooth="yes"/>
      <point x="403.7325581395349" y="1449.937984496124"/>
      <point x="111.9186046511628" y="1141.531007751938"/>
      <point x="111.9186046511628" y="711.9186046511628" type="curve" smooth="yes"/>
      <point x="111.9186046511628" y="282.3062015503876"/>
      <point x="400.0387596899225" y="-20.406976744186046"/>
    </contour>
    <contour>
      <point x="813.3023255813954" y="91.8953488372093" type="curve"/>
      <point x="502.13565891472865" y="99.12015503875969"/>
      <point x="295.25581395348837" y="347.01937984496124"/>
      <point x="295.25581395348837" y="713.531007751938" type="curve" smooth="yes"/>
      <point x="295.25581395348837" y="1081.4302325581396"/>
      <point x="504.4418604651163" y="1333.7170542635658"/>
      <point x="813.3023255813954" y="1338.3294573643411" type="curve"/>
      <point x="1122.1627906976744" y="1333.7170542635658"/>
      <point x="1331.3488372093022" y="1081.4302325581396"/>
      <point x="1331.3488372093022" y="713.531007751938" type="curve" smooth="yes"/>
      <point x="1331.3488372093022" y="346.3255813953488"/>
      <point x="1125.1627906976744" y="99.12015503875969"/>
    </contour>
  </outline>
</glyph>
<glyph name="P" format="2">
  <advance width="1136.1124031007753"/>
  <unicode hex="0050"/>
  <note>
P
</note>
  <anchor x="559.3837209302326" y="-54.689922480620154" name="bottom"/>
  <anchor x="559.3837209302326" y="1430.0" name="top"/>
  <outline>
    <contour>
      <point x="141.6124031007752" y="0.0" type="line"/>
      <point x="312.031007751938" y="0.0" type="line"/>
      <point x="312.031007751938" y="640.5116279069767" type="line"/>
      <point x="208.81007751937983" y="559.0038759689922" type="line"/>
      <point x="512.7054263565891" y="559.0038759689922" type="line" smooth="yes"/>
      <point x="666.7674418604652" y="559.0038759689922"/>
      <point x="783.9108527131783" y="590.3100775193799"/>
      <point x="875.2364341085272" y="656.6976744186046" type="curve" smooth="yes"/>
      <point x="971.0930232558139" y="726.3100775193799"/>
      <point x="1026.5" y="850.9612403100775"/>
      <point x="1026.5" y="998.6550387596899" type="curve" smooth="yes"/>
      <point x="1026.5" y="1130.65503875969"/>
      <point x="984.9496124031008" y="1238.2868217054263"/>
      <point x="907.4806201550388" y="1307.6744186046512" type="curve" smooth="yes"/>
      <point x="811.2984496124031" y="1392.3062015503876"/>
      <point x="679.2170542635658" y="1432.0813953488373"/>
      <point x="497.7480620155039" y="1432.0813953488373" type="curve" smooth="yes"/>
      <point x="141.6124031007752" y="1432.0813953488373" type="line"/>
    </contour>
    <contour>
      <point x="312.031007751938" y="578.7790697674419" type="line"/>
      <point x="312.031007751938" y="1416.6937984496124" type="line"/>
      <point x="173.7751937984496" y="1325.2480620155038" type="line"/>
      <point x="467.3178294573643" y="1325.2480620155038" type="line" smooth="yes"/>
      <point x="732.5077519379845" y="1325.2480620155038"/>
      <point x="852.1627906976744" y="1219.0852713178294"/>
      <point x="852.1627906976744" y="990.4108527131783" type="curve" smooth="yes"/>
      <point x="852.1627906976744" y="792.4263565891473"/>
      <point x="739.4457364341085" y="669.3062015503876"/>
      <point x="467.3178294573643" y="669.3062015503876" type="curve" smooth="yes"/>
      <point x="233.17441860465118" y="669.3062015503876" type="line"/>
    </contour>
  </outline>
</glyph>
<glyph name="Q" format="2">
  <advance width="1625.9108527131782"/>
  <unicode hex="0051"/>
  <note>
Q
</note>
  <anchor x="771.3837209302326" y="36.91472868217055" name="bottom"/>
  <anchor x="771.3837209302326" y="1390.4302325581396" name="top"/>
  <anchor x="813.3023255813954" y="752.3064153100775" name="center"/>
  <anchor x="925.9108527131783" y="33.79457364341086" name="ogonek"/>
  <anchor x="15.813953488372093" y="1470.8182569767441" name="topleft"/>
  <anchor x="1413.0387596899225" y="1470.8182569767441" name="topright"/>
  <outline>
    <contour>
      <point x="1034.7906976744187" y="-377.24418604651163" type="curve" smooth="yes"/>
      <point x="1143.3992248062016" y="-377.24418604651163"/>
      <point x="1164.3372093023256" y="-366.6937984496124"/>
      <point x="1160.1744186046512" y="-256.00387596899225" type="curve"/>
      <point x="1130.2984496124031" y="-256.00387596899225"/>
      <point x="1100.1162790697674" y="-256.00387596899225"/>
      <point x="1070.2403100775193" y="-256.00387596899225" type="curve" smooth="yes"/>
      <point x="921.6046511627907" y="-256.00387596899225"/>
      <point x="842.4806201550388" y="-212.4108527131783"/>
      <point x="842.4806201550388" y="-132.14341085271317" type="curve" smooth="yes"/>
      <point x="842.4806201550388" y="75.2829457364341" type="line"/>
      <point x="681.5930232558139" y="75.2829457364341" type="line"/>
      <point x="681.5930232558139" y="-134.51162790697674" type="line" smooth="yes"/>
      <point x="681.5930232558139" y="-241.67441860465115"/>
      <point x="747.531007751938" y="-309.38759689922483"/>
      <point x="813.5077519379845" y="-337.63178294573646" type="curve" smooth="yes"/>
      <point x="879.2209302325581" y="-366.93798449612405"/>
      <point x="932.9961240310078" y="-377.24418604651163"/>
    </contour>
    <component base="O" yScale="1.0049116666666666" yOffset="33.79457364341086"/>
  </outline>
</glyph>
<glyph name="R" format="2">
  <advance width="1189.8062015503876"/>
  <unicode hex="0052"/>
  <note>
R
</note>
  <anchor x="589.8527131782946" y="0.8139534883720927" name="bottom"/>
  <anchor x="589.8527131782946" y="1430.0" name="top"/>
  <outline>
    <contour>
      <point x="141.6124031007752" y="0.0" type="line"/>
      <point x="312.031007751938" y="0.0" type="line"/>
      <point x="312.031007751938" y="686.1821705426356" type="line"/>
      <point x="231.0968992248062" y="618.4302325581396" type="line"/>
      <point x="511.3604651162791" y="618.4302325581396" type="line"/>
      <point x="598.9341085271318" y="618.4302325581396" type="line"/>
      <point x="851.2596899224807" y="653.1666666666666"/>
      <point x="1026.5" y="766.6356589147287"/>
      <point x="1026.5" y="1024.2054263565892" type="curve" smooth="yes"/>
      <point x="1026.5" y="1304.8992248062016"/>
      <point x="815.1550387596899" y="1432.0813953488373"/>
      <point x="497.7480620155039" y="1432.0813953488373" type="curve" smooth="yes"/>
      <point x="141.6124031007752" y="1432.0813953488373" type="line"/>
    </contour>
    <contour>
      <point x="256.7674418604651" y="725.2635658914729" type="line"/>
      <point x="312.031007751938" y="652.6550387596899" type="line"/>
      <point x="312.031007751938" y="1400.6317829457364" type="line"/>
      <point x="184.6124031007752" y="1325.2480620155038" type="line"/>
      <point x="467.3178294573643" y="1325.2480620155038" type="line" smooth="yes"/>
      <point x="732.5077519379845" y="1325.2480620155038"/>
      <point x="852.1627906976744" y="1245.3294573643411"/>
      <point x="852.1627906976744" y="1025.6744186046512" type="curve" smooth="yes"/>
      <point x="852.1627906976744" y="812.4263565891473"/>
      <point x="739.4457364341085" y="725.2635658914729"/>
      <point x="467.3178294573643" y="725.2635658914729" type="curve" smooth="yes"/>
    </contour>
    <contour>
      <point x="450.26356589147287" y="618.4302325581396" type="line"/>
      <point x="536.2635658914729" y="618.4302325581396"/>
      <point x="647.7751937984497" y="611.7558139534884"/>
      <point x="716.2635658914729" y="563.4302325581396" type="curve" smooth="yes"/>
      <point x="772.7751937984497" y="522.7558139534884"/>
      <point x="800.5697674418604" y="499.20542635658916"/>
      <point x="865.2635658914729" y="211.98062015503876" type="curve" smooth="yes"/>
      <point x="879.8759689922481" y="144.2248062015504"/>
      <point x="895.8759689922481" y="71.2248062015504"/>
      <point x="911.1821705426356" y="0.0" type="curve"/>
      <point x="1085.1937984496124" y="0.0" type="line"/>
      <point x="1058.8875968992247" y="95.6124031007752"/>
      <point x="1031.8875968992247" y="218.91860465116278"/>
      <point x="1017.2751937984497" y="286.98062015503876" type="curve" smooth="yes"/>
      <point x="971.5813953488372" y="498.83720930232556"/>
      <point x="923.8682170542636" y="567.8372093023256"/>
      <point x="885.2751937984497" y="605.4302325581396" type="curve" smooth="yes"/>
      <point x="842.0116279069767" y="648.0"/>
      <point x="804.0116279069767" y="658.6744186046511"/>
      <point x="758.0736434108527" y="670.5930232558139" type="curve"/>
    </contour>
  </outline>
</glyph>
<glyph name="S" format="2">
  <advance width="1237.4418604651162"/>
  <unicode hex="0053"/>
  <note>
S
</note>
  <anchor x="619.2209302325581" y="0.8139534883720927" name="bottom"/>
  <anchor x="619.2209302325581" y="1430.0" name="top"/>
  <outline>
    <contour>
      <point x="620.9147286821706" y="-29.856589147286822" type="curve" smooth="yes"/>
      <point x="967.6472868217054" y="-29.856589147286822"/>
      <point x="1127.8294573643411" y="119.3062015503876"/>
      <point x="1127.8294573643411" y="409.26356589147287" type="curve" smooth="yes"/>
      <point x="1127.8294573643411" y="647.2635658914729"/>
      <point x="923.1744186046511" y="753.7325581395348"/>
      <point x="656.7713178294574" y="824.8139534883721" type="curve" smooth="yes"/>
      <point x="369.23643410852713" y="907.7751937984497"/>
      <point x="334.4612403100775" y="981.1821705426356"/>
      <point x="334.4612403100775" y="1105.124031007752" type="curve" smooth="yes"/>
      <point x="334.4612403100775" y="1278.2674418604652"/>
      <point x="464.87209302325584" y="1347.2286821705427"/>
      <point x="598.8333333333334" y="1347.2286821705427" type="curve" smooth="yes"/>
      <point x="806.6705426356589" y="1347.2286821705427"/>
      <point x="923.7364341085271" y="1204.6162790697674"/>
      <point x="921.9612403100775" y="1093.8178294573643" type="curve"/>
      <point x="1095.360465116279" y="1093.8178294573643" type="line"/>
      <point x="1084.6666666666667" y="1312.6744186046512"/>
      <point x="868.0542635658915" y="1463.6937984496124"/>
      <point x="610.6085271317829" y="1463.6937984496124" type="curve" smooth="yes"/>
      <point x="322.4496124031008" y="1463.6937984496124"/>
      <point x="158.75581395348837" y="1310.1627906976744"/>
      <point x="158.75581395348837" y="1069.2674418604652" type="curve" smooth="yes"/>
      <point x="158.75581395348837" y="864.2674418604652"/>
      <point x="307.93798449612405" y="762.1472868217054"/>
      <point x="583.4263565891473" y="683.922480620155" type="curve" smooth="yes"/>
      <point x="791.5077519379845" y="623.6976744186046"/>
      <point x="955.6744186046511" y="576.3294573643411"/>
      <point x="955.6744186046511" y="370.7751937984496" type="curve" smooth="yes"/>
      <point x="955.6744186046511" y="201.7325581395349"/>
      <point x="846.0" y="89.38372093023256"/>
      <point x="628.9961240310078" y="89.38372093023256" type="curve" smooth="yes"/>
      <point x="415.50387596899225" y="89.38372093023256"/>
      <point x="296.2984496124031" y="213.68992248062017"/>
      <point x="278.5426356589147" y="409.83720930232556" type="curve"/>
      <point x="105.6124031007752" y="409.83720930232556" type="line"/>
      <point x="121.36821705426357" y="133.32558139534885"/>
      <point x="310.9186046511628" y="-29.856589147286822"/>
    </contour>
  </outline>
</glyph>
<glyph name="T" format="2">
  <advance width="1430.1782945736434"/>
  <unicode hex="0054"/>
  <note>
T
</note>
  <anchor x="715.5891472868217" y="0.8139534883720927" name="bottom"/>
  <anchor x="715.5891472868217" y="715.0" name="center"/>
  <anchor x="715.5891472868217" y="1430.0" name="top"/>
  <outline>
    <contour>
      <point x="627.4922480620155" y="0.0" type="line"/>
      <point x="802.6860465116279" y="0.0" type="line"/>
      <point x="802.6860465116279" y="1412.1434108527133" type="line"/>
      <point x="606.1007751937984" y="1290.5581395348838" type="line"/>
      <point x="1324.1782945736434" y="1290.5581395348838" type="line"/>
      <point x="1324.1782945736434" y="1432.0813953488373" type="line"/>
      <point x="106.0" y="1432.0813953488373" type="line"/>
      <point x="106.0" y="1290.5581395348838" type="line"/>
      <point x="824.077519379845" y="1290.5581395348838" type="line"/>
      <point x="627.4922480620155" y="1412.1434108527133" type="line"/>
    </contour>
  </outline>
</glyph>
<glyph name="U" format="2">
  <advance width="1477.8100775193798"/>
  <unicode hex="0055"/>
  <note>
U
</note>
  <anchor x="739.7519379844962" y="0.8139534883720927" name="bottom"/>
  <anchor x="868.015503875969" y="0.0" name="ogonek"/>
  <anchor x="739.7519379844962" y="1430.0" name="top"/>
  <anchor x="1387.2829457364342" y="1430.0" name="topright"/>
  <outline>
    <contour>
      <point x="738.7519379844962" y="-29.550387596899224" type="curve" smooth="yes"/>
      <point x="1051.0348837209303" y="-29.550387596899224"/>
      <point x="1348.1976744186047" y="219.69379844961242"/>
      <point x="1348.1976744186047" y="549.8798449612403" type="curve" smooth="yes"/>
      <point x="1348.1976744186047" y="1432.0813953488373" type="line"/>
      <point x="1201.593023255814" y="1432.0813953488373" type="line"/>
      <point x="1198.8178294573643" y="540.1046511627907" type="line" smooth="yes"/>
      <point x="1198.124031007752" y="278.0387596899225"/>
      <point x="989.5271317829457" y="82.83333333333333"/>
      <point x="738.7519379844962" y="82.83333333333333" type="curve" smooth="yes"/>
      <point x="501.07751937984494" y="82.83333333333333"/>
      <point x="292.3992248062016" y="260.6937984496124"/>
      <point x="292.3992248062016" y="550.5116279069767" type="curve" smooth="yes"/>
      <point x="292.3992248062016" y="1432.0813953488373" type="line"/>
      <point x="129.6124031007752" y="1432.0813953488373" type="line"/>
      <point x="129.6124031007752" y="557.5116279069767" type="line" smooth="yes"/>
      <point x="129.6124031007752" y="221.7751937984496"/>
      <point x="424.38759689922483" y="-29.550387596899224"/>
    </contour>
  </outline>
</glyph>
<glyph name="V" format="2">
  <advance width="1520.3217054263566"/>
  <unicode hex="0056"/>
  <note>
V
</note>
  <anchor x="760.5077519379845" y="0.8139534883720927" name="bottom"/>
  <anchor x="760.5077519379845" y="1430.0" name="top"/>
  <outline>
    <contour>
      <point x="759.5077519379845" y="-33.224806201550386" type="line"/>
      <point x="1416.7093023255813" y="1432.0813953488373" type="line"/>
      <point x="1277.7558139534883" y="1432.0813953488373" type="line"/>
      <point x="722.5891472868217" y="182.68217054263567" type="line"/>
      <point x="824.5658914728682" y="197.88372093023256" type="line"/>
      <point x="278.11240310077517" y="1432.0813953488373" type="line"/>
      <point x="103.6124031007752" y="1432.0813953488373" type="line"/>
    </contour>
  </outline>
</glyph>
<glyph name="X" format="2">
  <advance width="1447.6007751937984"/>
  <unicode hex="0058"/>
  <note>
X
</note>
  <anchor x="723.2596899224807" y="0.8139534883720927" name="bottom"/>
  <anchor x="723.2596899224807" y="1430.0" name="top"/>
  <outline>
    <contour>
      <point x="1127.3682170542636" y="0.0" type="line"/>
      <point x="1343.9883720930234" y="0.0" type="line"/>
      <point x="347.1317829457364" y="1428.0" type="line"/>
      <point x="129.51162790697674" y="1428.0" type="line"/>
    </contour>
    <contour>
      <point x="109.16279069767442" y="0.0" type="line"/>
      <point x="243.58527131782947" y="0.0" type="line"/>
      <point x="766.9108527131783" y="734.2441860465116" type="line"/>
      <point x="681.4651162790698" y="810.0968992248062" type="line"/>
    </contour>
    <contour>
      <point x="750.4031007751938" y="684.4728682170543" type="line"/>
      <point x="1275.3798449612402" y="1432.0813953488373" type="line"/>
      <point x="1141.6511627906978" y="1432.0813953488373" type="line"/>
      <point x="664.2635658914729" y="760.3255813953489" type="line"/>
    </contour>
  </outline>
</glyph>
<glyph name="Y" format="2">
  <advance width="1333.5852713178294"/>
  <unicode hex="0059"/>
  <note>
Y
</note>
  <anchor x="674.9147286821706" y="6.937984496124031" name="bottom"/>
  <anchor x="666.4457364341085" y="1430.0" name="top"/>
  <anchor x="-5.6937984496124034" y="1430.0" name="topleft"/>
  <outline>
    <contour>
      <point x="590.5930232558139" y="0.0" type="line"/>
      <point x="764.4806201550388" y="0.0" type="line"/>
      <point x="764.4806201550388" y="612.3682170542636" type="line"/>
      <point x="1229.9728682170542" y="1432.0813953488373" type="line"/>
      <point x="1090.6511627906978" y="1432.0813953488373" type="line"/>
      <point x="631.4883720930233" y="599.7829457364342" type="line"/>
      <point x="752.9922480620155" y="674.6705426356589" type="line"/>
      <point x="312.51937984496124" y="1432.0813953488373" type="line"/>
      <point x="102.9186046511628" y="1432.0813953488373" type="line"/>
      <point x="590.5930232558139" y="605.1434108527131" type="line"/>
    </contour>
  </outline>
</glyph>
<glyph name="Z" format="2">
  <advance width="1376.2790697674418"/>
  <unicode hex="005A"/>
  <note>
Z
</note>
  <anchor x="688.1395348837209" y="0.8139534883720927" name="bottom"/>
  <anchor x="688.1395348837209" y="715.0" name="center"/>
  <anchor x="688.1395348837209" y="1430.0" name="top"/>
  <outline>
    <contour>
      <point x="102.6124031007752" y="0.0" type="line"/>
      <point x="1237.6666666666667" y="0.0" type="line"/>
      <point x="1236.0542635658915" y="132.50387596899225" type="line"/>
      <point x="232.40697674418604" y="132.50387596899225" type="line"/>
      <point x="298.9496124031008" y="20.91860465116279" type="line"/>
      <point x="1272.6666666666667" y="1432.0813953488373" type="line"/>
      <point x="165.85658914728683" y="1432.0813953488373" type="line"/>
      <point x="165.85658914728683" y="1299.577519379845" type="line"/>
      <point x="1141.7325581395348" y="1299.577519379845" type="line"/>
      <point x="1076.2480620155038" y="1410.7751937984497" type="line"/>
    </contour>
  </outline>
</glyph>
<glyph name="bracketleft" format="2">
  <advance width="649.4651162790698"/>
  <unicode hex="005B"/>
  <note>
bracketleft
</note>
  <outline>
    <contour>
      <point x="137.30620155038758" y="-386.61240310077517" type="line"/>
      <point x="546.4651162790698" y="-386.61240310077517" type="line"/>
      <point x="546.4651162790698" y="-253.67829457364343" type="line"/>
      <point x="274.7906976744186" y="-253.67829457364343" type="line"/>
      <point x="274.7906976744186" y="1330.1472868217054" type="line"/>
      <point x="546.4651162790698" y="1330.1472868217054" type="line"/>
      <point x="546.4651162790698" y="1462.3875968992247" type="line"/>
      <point x="137.30620155038758" y="1462.3875968992247" type="line"/>
    </contour>
  </outline>
</glyph>
<glyph name="bracketright" format="2">
  <advance width="649.4651162790698"/>
  <unicode hex="005D"/>
  <note>
bracketright
</note>
  <outline>
    <contour>
      <point x="103.0" y="-386.61240310077517" type="line"/>
      <point x="512.1589147286821" y="-386.61240310077517" type="line"/>
      <point x="512.1589147286821" y="1462.3875968992247" type="line"/>
      <point x="103.0" y="1462.3875968992247" type="line"/>
      <point x="103.0" y="1330.1472868217054" type="line"/>
      <point x="375.36821705426354" y="1330.1472868217054" type="line"/>
      <point x="375.36821705426354" y="-253.67829457364343" type="line"/>
      <point x="103.0" y="-253.67829457364343" type="line"/>
    </contour>
  </outline>
</glyph>
<glyph name="asciicircum" format="2">
  <advance width="1141.0503875968993"/>
  <unicode hex="005E"/>
  <note>
asciicircum
</note>
  <outline>
    <contour>
      <point x="133.91860465116278" y="802.4108527131783" type="line"/>
      <point x="283.05426356589146" y="802.4108527131783" type="line"/>
      <point x="619.3798449612403" y="1348.2480620155038" type="line"/>
      <point x="522.8953488372093" y="1343.7170542635658" type="line"/>
      <point x="857.9961240310078" y="802.4108527131783" type="line"/>
      <point x="1007.1317829457364" y="802.4108527131783" type="line"/>
      <point x="611.0116279069767" y="1446.7558139534883" type="line"/>
      <point x="528.0387596899225" y="1446.7558139534883" type="line"/>
    </contour>
  </outline>
</glyph>
<glyph name="underscore" format="2">
  <advance width="1457.9418604651164"/>
  <unicode hex="005F"/>
  <note>
underscore
</note>
  <outline>
    <contour>
      <point x="87.3875968992248" y="-363.3643410852713" type="line"/>
      <point x="1370.5542635658915" y="-363.3643410852713" type="line"/>
      <point x="1370.5542635658915" y="-236.34883720930233" type="line"/>
      <point x="87.3875968992248" y="-236.34883720930233" type="line"/>
    </contour>
  </outline>
</glyph>
<glyph name="a" format="2">
  <advance width="1196.5813953488373"/>
  <unicode hex="0061"/>
  <note>
a
</note>
  <anchor x="568.7519379844962" y="-8.205426356589147" name="bottom"/>
  <anchor x="1013.2170542635658" y="0.0" name="ogonek"/>
  <anchor x="578.7519379844962" y="1013.8565891472869" name="top"/>
  <outline>
    <contour>
      <point x="546.1201550387597" y="-32.16279069767442" type="curve" smooth="yes"/>
      <point x="766.9961240310078" y="-32.16279069767442"/>
      <point x="914.8333333333334" y="89.53100775193798"/>
      <point x="970.4457364341085" y="322.48837209302326" type="curve"/>
      <point x="923.3255813953489" y="369.7519379844961" type="line"/>
      <point x="914.7945736434109" y="0.0" type="line"/>
      <point x="1087.2751937984497" y="0.0" type="line"/>
      <point x="1087.2751937984497" y="997.6317829457364" type="line"/>
      <point x="914.4069767441861" y="997.6317829457364" type="line"/>
      <point x="914.4069767441861" y="608.9612403100775" type="line"/>
      <point x="969.6705426356589" y="648.8372093023256" type="line"/>
      <point x="914.5271317829457" y="890.6317829457364"/>
      <point x="762.9147286821706" y="1024.3255813953488"/>
      <point x="543.7325581395348" y="1024.3255813953488" type="curve" smooth="yes"/>
      <point x="270.16279069767444" y="1024.3255813953488"/>
      <point x="83.6124031007752" y="805.0193798449612"/>
      <point x="83.6124031007752" y="485.468992248062" type="curve" smooth="yes"/>
      <point x="83.6124031007752" y="173.91860465116278"/>
      <point x="266.24418604651163" y="-32.16279069767442"/>
    </contour>
    <contour>
      <point x="566.077519379845" y="85.60852713178295" type="curve" smooth="yes"/>
      <point x="363.6666666666667" y="85.60852713178295"/>
      <point x="247.31782945736433" y="229.18217054263565"/>
      <point x="247.31782945736433" y="494.0813953488372" type="curve" smooth="yes"/>
      <point x="247.31782945736433" y="759.2868217054264"/>
      <point x="363.97286821705427" y="905.8604651162791"/>
      <point x="563.6899224806201" y="905.8604651162791" type="curve" smooth="yes"/>
      <point x="764.7131782945736" y="905.8604651162791"/>
      <point x="898.8372093023256" y="732.4108527131783"/>
      <point x="898.8372093023256" y="484.0813953488372" type="curve" smooth="yes"/>
      <point x="898.8372093023256" y="245.13953488372093"/>
      <point x="769.7131782945736" y="85.60852713178295"/>
    </contour>
  </outline>
</glyph>
<glyph name="b" format="2">
  <advance width="1198.968992248062"/>
  <unicode hex="0062"/>
  <note>
b
</note>
  <anchor x="602.8720930232558" y="7.058139534883722" name="bottom"/>
  <anchor x="602.8720930232558" y="1516.7751937984497" name="top"/>
  <outline>
    <contour>
      <point x="652.8488372093024" y="-29.387596899224807" type="curve" smooth="yes"/>
      <point x="931.7248062015503" y="-29.387596899224807"/>
      <point x="1115.3565891472867" y="175.69379844961242"/>
      <point x="1115.3565891472867" y="486.8565891472868" type="curve" smooth="yes"/>
      <point x="1115.3565891472867" y="806.0193798449612"/>
      <point x="929.8062015503876" y="1024.3255813953488"/>
      <point x="655.2364341085272" y="1024.3255813953488" type="curve" smooth="yes"/>
      <point x="437.05426356589146" y="1024.3255813953488"/>
      <point x="283.13565891472865" y="889.3255813953489"/>
      <point x="228.2984496124031" y="649.2248062015503" type="curve"/>
      <point x="284.56201550387595" y="608.9612403100775" type="line"/>
      <point x="284.56201550387595" y="1516.7751937984497" type="line"/>
      <point x="114.6124031007752" y="1516.7751937984497" type="line"/>
      <point x="114.6124031007752" y="0.0" type="line"/>
      <point x="282.1744186046512" y="0.0" type="line"/>
      <point x="282.1744186046512" y="368.7519379844961" type="line"/>
      <point x="226.2170542635659" y="328.1821705426357" type="line"/>
      <point x="282.82945736434107" y="94.3062015503876"/>
      <point x="429.3604651162791" y="-29.387596899224807"/>
    </contour>
    <contour>
      <point x="632.8914728682171" y="87.68992248062015" type="curve" smooth="yes"/>
      <point x="429.56201550387595" y="87.68992248062015"/>
      <point x="300.43798449612405" y="248.22093023255815"/>
      <point x="300.43798449612405" y="486.16279069767444" type="curve" smooth="yes"/>
      <point x="300.43798449612405" y="735.1046511627907"/>
      <point x="434.56201550387595" y="907.5542635658915"/>
      <point x="635.2790697674419" y="907.5542635658915" type="curve" smooth="yes"/>
      <point x="833.9961240310078" y="907.5542635658915"/>
      <point x="951.6511627906976" y="760.6744186046511"/>
      <point x="951.6511627906976" y="495.468992248062" type="curve" smooth="yes"/>
      <point x="951.6511627906976" y="231.26356589147287"/>
      <point x="835.3023255813954" y="87.68992248062015"/>
    </contour>
  </outline>
</glyph>
<glyph name="c" format="2">
  <advance width="987.2790697674419"/>
  <unicode hex="0063"/>
  <note>
c
</note>
  <anchor x="494.13953488372096" y="-6.244186046511628" name="bottom"/>
  <anchor x="584.1395348837209" y="1013.8565891472869" name="top"/>
  <outline>
    <contour>
      <point x="590.2829457364342" y="-32.16279069767442" type="curve" smooth="yes"/>
      <point x="707.1589147286821" y="-32.16279069767442"/>
      <point x="810.6472868217054" y="-1.0"/>
      <point x="902.5852713178294" y="65.48837209302326" type="curve"/>
      <point x="902.5852713178294" y="211.7093023255814" type="line"/>
      <point x="825.0968992248062" y="136.15891472868216"/>
      <point x="705.6085271317829" y="84.91472868217055"/>
      <point x="595.8333333333334" y="84.91472868217055" type="curve" smooth="yes"/>
      <point x="389.95348837209303" y="84.91472868217055"/>
      <point x="254.48062015503876" y="250.87596899224806"/>
      <point x="254.48062015503876" y="498.61240310077517" type="curve" smooth="yes"/>
      <point x="254.48062015503876" y="745.6744186046511"/>
      <point x="390.95348837209303" y="906.5542635658915"/>
      <point x="596.1395348837209" y="906.5542635658915" type="curve" smooth="yes"/>
      <point x="704.9961240310078" y="906.5542635658915"/>
      <point x="826.4031007751938" y="856.3100775193799"/>
      <point x="901.5852713178294" y="781.7596899224807" type="curve"/>
      <point x="901.5852713178294" y="925.9806201550388" type="line"/>
      <point x="809.3410852713179" y="992.468992248062"/>
      <point x="703.1589147286821" y="1024.3255813953488"/>
      <point x="589.9767441860465" y="1024.3255813953488" type="curve" smooth="yes"/>
      <point x="322.75581395348837" y="1024.3255813953488"/>
      <point x="83.6124031007752" y="833.2868217054264"/>
      <point x="83.6124031007752" y="498.3062015503876" type="curve" smooth="yes"/>
      <point x="83.6124031007752" y="155.40697674418604"/>
      <point x="322.4496124031008" y="-32.16279069767442"/>
    </contour>
  </outline>
</glyph>
<glyph name="d" format="2">
  <advance width="1198.2751937984497"/>
  <unicode hex="0064"/>
  <note>
d
</note>
  <anchor x="583.3410852713179" y="7.058139534883722" name="bottom"/>
  <anchor x="997.3410852713179" y="1326.2441860465117" name="center"/>
  <anchor x="597.0968992248062" y="1516.7751937984497" name="top"/>
  <anchor x="1270.5852713178294" y="1516.7751937984497" name="topright"/>
  <outline>
    <contour>
      <point x="546.1201550387597" y="-29.387596899224807" type="curve" smooth="yes"/>
      <point x="768.6085271317829" y="-29.387596899224807"/>
      <point x="917.1395348837209" y="89.3875968992248"/>
      <point x="973.7519379844962" y="325.26356589147287" type="curve"/>
      <point x="916.1007751937984" y="364.8333333333333" type="line"/>
      <point x="916.1007751937984" y="0.0" type="line"/>
      <point x="1083.6627906976744" y="0.0" type="line"/>
      <point x="1083.6627906976744" y="1516.7751937984497" type="line"/>
      <point x="915.4069767441861" y="1516.7751937984497" type="line"/>
      <point x="915.4069767441861" y="608.6550387596899" type="line"/>
      <point x="970.6705426356589" y="647.9186046511628" type="line"/>
      <point x="915.8333333333334" y="891.3255813953489"/>
      <point x="762.9147286821706" y="1025.937984496124"/>
      <point x="543.7325581395348" y="1025.937984496124" type="curve" smooth="yes"/>
      <point x="270.16279069767444" y="1025.937984496124"/>
      <point x="83.6124031007752" y="809.3255813953489"/>
      <point x="83.6124031007752" y="488.16279069767444" type="curve" smooth="yes"/>
      <point x="83.6124031007752" y="174.3875968992248"/>
      <point x="267.24418604651163" y="-29.387596899224807"/>
    </contour>
    <contour>
      <point x="566.077519379845" y="88.68992248062015" type="curve" smooth="yes"/>
      <point x="363.6666666666667" y="88.68992248062015"/>
      <point x="247.31782945736433" y="229.65116279069767"/>
      <point x="247.31782945736433" y="495.7751937984496" type="curve" smooth="yes"/>
      <point x="247.31782945736433" y="764.5930232558139"/>
      <point x="363.97286821705427" y="907.8604651162791"/>
      <point x="563.6899224806201" y="907.8604651162791" type="curve" smooth="yes"/>
      <point x="765.7131782945736" y="907.8604651162791"/>
      <point x="898.8372093023256" y="733.7984496124031"/>
      <point x="898.8372093023256" y="482.8565891472868" type="curve" smooth="yes"/>
      <point x="898.8372093023256" y="243.30232558139534"/>
      <point x="769.7131782945736" y="88.68992248062015"/>
    </contour>
  </outline>
</glyph>
<glyph name="e" format="2">
  <advance width="1114.2984496124031"/>
  <unicode hex="0065"/>
  <note>
e
</note>
  <anchor x="557.3023255813954" y="-22.775193798449614" name="bottom"/>
  <anchor x="718.2596899224807" y="10.0" name="ogonek"/>
  <anchor x="557.3023255813954" y="1013.8565891472869" name="top"/>
  <outline>
    <contour>
      <point x="562.3837209302326" y="-32.16279069767442" type="curve" smooth="yes"/>
      <point x="791.422480620155" y="-32.16279069767442"/>
      <point x="952.3604651162791" y="93.14341085271317"/>
      <point x="1014.8294573643411" y="311.98062015503876" type="curve"/>
      <point x="869.3875968992248" y="311.98062015503876" type="line"/>
      <point x="835.1007751937984" y="180.36434108527132"/>
      <point x="717.5077519379845" y="84.91472868217055"/>
      <point x="566.4651162790698" y="84.91472868217055" type="curve" smooth="yes"/>
      <point x="365.1162790697674" y="84.91472868217055"/>
      <point x="257.78682170542635" y="256.85271317829455"/>
      <point x="257.78682170542635" y="493.0813953488372" type="curve" smooth="yes"/>
      <point x="257.78682170542635" y="741.1046511627907"/>
      <point x="375.4418604651163" y="906.8604651162791"/>
      <point x="562.3837209302326" y="906.8604651162791" type="curve" smooth="yes"/>
      <point x="737.937984496124" y="906.8604651162791"/>
      <point x="851.6550387596899" y="761.9612403100775"/>
      <point x="871.6550387596899" y="508.8178294573643" type="curve"/>
      <point x="1035.6860465116279" y="508.8178294573643" type="line"/>
      <point x="1013.4418604651163" y="830.3255813953489"/>
      <point x="832.8100775193799" y="1024.3255813953488"/>
      <point x="560.3023255813954" y="1024.3255813953488" type="curve" smooth="yes"/>
      <point x="273.63178294573646" y="1024.3255813953488"/>
      <point x="83.6124031007752" y="806.4069767441861"/>
      <point x="83.6124031007752" y="488.24418604651163" type="curve" smooth="yes"/>
      <point x="83.6124031007752" y="176.30620155038758"/>
      <point x="268.93798449612405" y="-32.16279069767442"/>
    </contour>
    <contour>
      <point x="217.19379844961242" y="508.1240310077519" type="line"/>
      <point x="993.1162790697674" y="508.8178294573643" type="line"/>
      <point x="990.8100775193799" y="610.8759689922481" type="line"/>
      <point x="194.2984496124031" y="610.8759689922481" type="line"/>
    </contour>
  </outline>
</glyph>
<glyph name="f" format="2">
  <advance width="789.6162790697674"/>
  <unicode hex="0066"/>
  <note>
f
</note>
  <anchor x="395.15503875968994" y="7.058139534883722" name="bottom"/>
  <anchor x="395.15503875968994" y="1516.7751937984497" name="top"/>
  <outline>
    <contour>
      <point x="284.468992248062" y="0.0" type="line"/>
      <point x="452.031007751938" y="0.0" type="line"/>
      <point x="452.031007751938" y="1074.0658914728683" type="line" smooth="yes"/>
      <point x="452.031007751938" y="1306.5387596899225"/>
      <point x="434.42248062015506" y="1420.860465116279"/>
      <point x="541.1550387596899" y="1420.860465116279" type="curve" smooth="yes"/>
      <point x="592.9922480620155" y="1420.860465116279"/>
      <point x="641.9496124031008" y="1404.4108527131782"/>
      <point x="641.9496124031008" y="1352.6162790697674" type="curve" smooth="yes"/>
      <point x="641.9496124031008" y="1334.2286821705427"/>
      <point x="636.6434108527131" y="1310.8410852713178"/>
      <point x="629.2558139534883" y="1284.515503875969" type="curve"/>
      <point x="749.8837209302326" y="1284.515503875969" type="line"/>
      <point x="757.6589147286821" y="1298.7596899224807"/>
      <point x="766.9651162790698" y="1337.1666666666667"/>
      <point x="766.9651162790698" y="1368.2480620155038" type="curve" smooth="yes"/>
      <point x="766.9651162790698" y="1476.0813953488373"/>
      <point x="651.6627906976744" y="1543.7945736434108"/>
      <point x="523.4418604651163" y="1543.7945736434108" type="curve" smooth="yes"/>
      <point x="316.7906976744186" y="1543.7945736434108"/>
      <point x="284.468992248062" y="1348.7713178294573"/>
      <point x="284.468992248062" y="1107.7558139534883" type="curve" smooth="yes"/>
    </contour>
    <contour>
      <point x="77.0" y="862.515503875969" type="line"/>
      <point x="674.4573643410853" y="862.515503875969" type="line"/>
      <point x="674.4573643410853" y="978.2868217054264" type="line"/>
      <point x="77.0" y="978.2868217054264" type="line"/>
    </contour>
  </outline>
</glyph>
<glyph name="g" format="2">
  <advance width="1186.1317829457364"/>
  <unicode hex="0067"/>
  <note>
g
</note>
  <anchor x="592.5658914728682" y="-518.9418604651163" name="bottom"/>
  <anchor x="569.9341085271318" y="1013.8565891472869" name="top"/>
  <outline>
    <contour>
      <point x="567.5038759689922" y="-564.937984496124" type="curve" smooth="yes"/>
      <point x="911.4806201550388" y="-564.937984496124"/>
      <point x="1073.5193798449613" y="-333.6744186046512"/>
      <point x="1073.5193798449613" y="109.79457364341086" type="curve" smooth="yes"/>
      <point x="1073.5193798449613" y="997.6317829457364" type="line"/>
      <point x="901.6511627906976" y="997.6317829457364" type="line"/>
      <point x="901.6511627906976" y="668.4263565891473" type="line"/>
      <point x="936.9767441860465" y="719.3643410852713" type="line"/>
      <point x="869.5891472868217" y="916.6511627906976"/>
      <point x="729.6705426356589" y="1024.3255813953488"/>
      <point x="536.5077519379845" y="1024.3255813953488" type="curve" smooth="yes"/>
      <point x="266.5503875968992" y="1024.3255813953488"/>
      <point x="83.6124031007752" y="805.0193798449612"/>
      <point x="83.6124031007752" y="485.468992248062" type="curve" smooth="yes"/>
      <point x="83.6124031007752" y="172.91860465116278"/>
      <point x="264.3255813953488" y="-32.85658914728682"/>
      <point x="539.5891472868217" y="-32.85658914728682" type="curve" smooth="yes"/>
      <point x="739.9767441860465" y="-32.85658914728682"/>
      <point x="879.8139534883721" y="87.18604651162791"/>
      <point x="942.2829457364342" y="271.4108527131783" type="curve"/>
      <point x="909.5697674418604" y="321.65503875968994" type="line"/>
      <point x="903.3449612403101" y="65.6937984496124" type="line"/>
      <point x="903.3449612403101" y="-279.08527131782944"/>
      <point x="784.7519379844962" y="-448.1666666666667"/>
      <point x="548.0348837209302" y="-448.1666666666667" type="curve" smooth="yes"/>
      <point x="365.97286821705427" y="-448.1666666666667"/>
      <point x="266.11240310077517" y="-372.9612403100775"/>
      <point x="244.56201550387595" y="-256.20542635658916" type="curve"/>
      <point x="90.24418604651163" y="-256.20542635658916" type="line"/>
      <point x="141.97674418604652" y="-460.63178294573646"/>
      <point x="313.5891472868217" y="-564.937984496124"/>
    </contour>
    <contour>
      <point x="555.3837209302326" y="84.91472868217055" type="curve" smooth="yes"/>
      <point x="358.6666666666667" y="84.91472868217055"/>
      <point x="248.01162790697674" y="227.87596899224806"/>
      <point x="248.01162790697674" y="494.0813953488372" type="curve" smooth="yes"/>
      <point x="248.01162790697674" y="760.2868217054264"/>
      <point x="360.97286821705427" y="906.8604651162791"/>
      <point x="552.9961240310078" y="906.8604651162791" type="curve" smooth="yes"/>
      <point x="747.3255813953489" y="906.8604651162791"/>
      <point x="877.4496124031008" y="734.4108527131783"/>
      <point x="877.4496124031008" y="484.0813953488372" type="curve" smooth="yes"/>
      <point x="877.4496124031008" y="246.13953488372093"/>
      <point x="752.0193798449612" y="84.91472868217055"/>
    </contour>
  </outline>
</glyph>
<glyph name="h" format="2">
  <advance width="1084.9496124031007"/>
  <unicode hex="0068"/>
  <note>
h
</note>
  <anchor x="541.2403100775193" y="0.0" name="bottom"/>
  <anchor x="206.484496124031" y="1326.2441860465117" name="center"/>
  <anchor x="541.2403100775193" y="1516.7751937984497" name="top"/>
  <outline>
    <contour>
      <point x="114.6124031007752" y="0.0" type="line"/>
      <point x="288.031007751938" y="0.0" type="line"/>
      <point x="288.031007751938" y="575.8565891472869" type="line" smooth="yes"/>
      <point x="288.031007751938" y="768.2480620155038"/>
      <point x="398.4612403100775" y="905.1666666666666"/>
      <point x="568.9341085271318" y="905.1666666666666" type="curve" smooth="yes"/>
      <point x="733.1627906976744" y="905.1666666666666"/>
      <point x="812.2248062015503" y="805.4922480620155"/>
      <point x="812.2248062015503" y="568.8992248062016" type="curve" smooth="yes"/>
      <point x="812.2248062015503" y="0.0" type="line"/>
      <point x="985.6434108527131" y="0.0" type="line"/>
      <point x="985.6434108527131" y="601.2635658914729" type="line" smooth="yes"/>
      <point x="985.6434108527131" y="876.7751937984497"/>
      <point x="855.1550387596899" y="1023.6317829457364"/>
      <point x="606.5232558139535" y="1023.6317829457364" type="curve" smooth="yes"/>
      <point x="405.82945736434107" y="1023.6317829457364"/>
      <point x="282.6240310077519" y="910.9573643410853"/>
      <point x="241.91085271317831" y="669.7131782945736" type="curve"/>
      <point x="286.64341085271315" y="596.4573643410853" type="line"/>
      <point x="288.031007751938" y="1516.7751937984497" type="line"/>
      <point x="114.6124031007752" y="1516.7751937984497" type="line"/>
    </contour>
  </outline>
</glyph>
<glyph name="k" format="2">
  <advance width="1080.8643410852712"/>
  <unicode hex="006B"/>
  <note>
k
</note>
  <anchor x="509.23643410852713" y="0.0" name="bottom"/>
  <anchor x="543.9728682170543" y="1516.7751937984497" name="top"/>
  <outline>
    <contour>
      <point x="114.6124031007752" y="0.0" type="line"/>
      <point x="283.1744186046512" y="0.0" type="line"/>
      <point x="283.1744186046512" y="1516.7751937984497" type="line"/>
      <point x="114.6124031007752" y="1516.7751937984497" type="line"/>
    </contour>
    <contour>
      <point x="798.8527131782946" y="0.0" type="line"/>
      <point x="1008.2519379844962" y="0.0" type="line"/>
      <point x="450.6782945736434" y="629.6317829457364" type="line"/>
      <point x="346.0503875968992" y="502.515503875969" type="line"/>
    </contour>
    <contour>
      <point x="255.05426356589146" y="345.18992248062017" type="line"/>
      <point x="909.7015503875969" y="997.6317829457364" type="line"/>
      <point x="731.953488372093" y="997.6317829457364" type="line"/>
      <point x="230.51937984496124" y="496.015503875969" type="line"/>
    </contour>
  </outline>
</glyph>
<glyph name="l" format="2">
  <advance width="395.48062015503876"/>
  <unicode hex="006C"/>
  <note>
l
</note>
  <anchor x="129.89147286821705" y="0.0" name="bottom"/>
  <anchor x="202.15891472868216" y="792.1627906976744" name="center"/>
  <anchor x="563.9651162790698" y="792.1627906976744" name="dot"/>
  <anchor x="274.7906976744186" y="1511.9186046511627" name="top"/>
  <anchor x="395.3178294573643" y="1476.8372093023256" name="topright"/>
  <outline>
    <contour>
      <point x="114.6124031007752" y="0.0" type="line"/>
      <point x="280.8682170542636" y="0.0" type="line"/>
      <point x="280.8682170542636" y="1516.7751937984497" type="line"/>
      <point x="114.6124031007752" y="1516.7751937984497" type="line"/>
    </contour>
  </outline>
</glyph>
<glyph name="m" format="2">
  <advance width="1784.2790697674418"/>
  <unicode hex="006D"/>
  <note>
m
</note>
  <anchor x="892.1395348837209" y="0.0" name="bottom"/>
  <anchor x="892.1395348837209" y="1013.8565891472869" name="top"/>
  <outline>
    <contour>
      <point x="108.6124031007752" y="0.0" type="line"/>
      <point x="280.64341085271315" y="0.0" type="line"/>
      <point x="280.64341085271315" y="575.8565891472869" type="line" smooth="yes"/>
      <point x="280.64341085271315" y="769.8604651162791"/>
      <point x="396.6046511627907" y="906.1666666666666"/>
      <point x="582.7519379844962" y="906.1666666666666" type="curve" smooth="yes"/>
      <point x="740.062015503876" y="906.1666666666666"/>
      <point x="812.4302325581396" y="817.9418604651163"/>
      <point x="812.4302325581396" y="604.6356589147287" type="curve" smooth="yes"/>
      <point x="812.4302325581396" y="0.0" type="line"/>
      <point x="984.4612403100775" y="0.0" type="line"/>
      <point x="984.4612403100775" y="575.8565891472869" type="line" smooth="yes"/>
      <point x="984.4612403100775" y="770.8604651162791"/>
      <point x="1095.7286821705427" y="903.8604651162791"/>
      <point x="1282.5697674418604" y="903.8604651162791" type="curve" smooth="yes"/>
      <point x="1439.1860465116279" y="903.8604651162791"/>
      <point x="1511.6356589147288" y="817.6356589147287"/>
      <point x="1511.6356589147288" y="604.6356589147287" type="curve" smooth="yes"/>
      <point x="1511.6356589147288" y="1.0" type="line"/>
      <point x="1683.6666666666667" y="1.0" type="line"/>
      <point x="1683.6666666666667" y="651.7558139534884" type="line" smooth="yes"/>
      <point x="1683.6666666666667" y="892.2248062015503"/>
      <point x="1556.0968992248063" y="1024.3255813953488"/>
      <point x="1321.077519379845" y="1024.3255813953488" type="curve" smooth="yes"/>
      <point x="1099.1782945736434" y="1024.3255813953488"/>
      <point x="967.8294573643411" y="910.3449612403101"/>
      <point x="931.1162790697674" y="679.937984496124" type="curve"/>
      <point x="976.9922480620155" y="690.4263565891473" type="line"/>
      <point x="961.6666666666666" y="910.6317829457364"/>
      <point x="840.953488372093" y="1024.3255813953488"/>
      <point x="621.2596899224807" y="1024.3255813953488" type="curve" smooth="yes"/>
      <point x="418.9108527131783" y="1024.3255813953488"/>
      <point x="291.8682170542636" y="926.5077519379845"/>
      <point x="247.23643410852713" y="734.8333333333334" type="curve"/>
      <point x="279.9496124031008" y="686.7519379844962" type="line"/>
      <point x="280.64341085271315" y="997.6317829457364" type="line"/>
      <point x="108.6124031007752" y="997.6317829457364" type="line"/>
    </contour>
  </outline>
</glyph>
<glyph name="n" format="2">
  <advance width="1079.2558139534883"/>
  <unicode hex="006E"/>
  <note>
n
</note>
  <anchor x="537.546511627907" y="0.0" name="bottom"/>
  <anchor x="537.546511627907" y="1013.8565891472869" name="top"/>
  <outline>
    <contour>
      <point x="108.3062015503876" y="0.0" type="line"/>
      <point x="282.031007751938" y="0.0" type="line"/>
      <point x="282.031007751938" y="575.8565891472869" type="line" smooth="yes"/>
      <point x="282.031007751938" y="768.2480620155038"/>
      <point x="392.4612403100775" y="904.5542635658915"/>
      <point x="563.9341085271318" y="904.5542635658915" type="curve" smooth="yes"/>
      <point x="727.1627906976744" y="904.5542635658915"/>
      <point x="806.2248062015503" y="805.4922480620155"/>
      <point x="806.2248062015503" y="568.8992248062016" type="curve" smooth="yes"/>
      <point x="806.2248062015503" y="0.0" type="line"/>
      <point x="979.9496124031008" y="0.0" type="line"/>
      <point x="979.9496124031008" y="601.5697674418604" type="line" smooth="yes"/>
      <point x="979.9496124031008" y="876.7751937984497"/>
      <point x="849.1550387596899" y="1024.3255813953488"/>
      <point x="600.5232558139535" y="1024.3255813953488" type="curve" smooth="yes"/>
      <point x="392.6046511627907" y="1024.3255813953488"/>
      <point x="266.48062015503876" y="902.1201550387597"/>
      <point x="235.91085271317831" y="670.7131782945736" type="curve"/>
      <point x="280.64341085271315" y="595.1511627906976" type="line"/>
      <point x="282.031007751938" y="997.6317829457364" type="line"/>
      <point x="108.3062015503876" y="997.6317829457364" type="line"/>
    </contour>
  </outline>
</glyph>
<glyph name="o" format="2">
  <advance width="1136.0736434108528"/>
  <unicode hex="006F"/>
  <note>
o
</note>
  <anchor x="568.3837209302326" y="-8.205426356589147" name="bottom"/>
  <anchor x="568.3837209302326" y="497.0813953488372" name="center"/>
  <anchor x="697.2596899224807" y="0.0" name="ogonek"/>
  <anchor x="568.3837209302326" y="1013.8565891472869" name="top"/>
  <anchor x="1136.0736434108528" y="993.8565891472869" name="topright"/>
  <outline>
    <contour>
      <point x="567.3837209302326" y="-32.16279069767442" type="curve" smooth="yes"/>
      <point x="859.6666666666666" y="-32.16279069767442"/>
      <point x="1052.4612403100775" y="175.53100775193798"/>
      <point x="1052.4612403100775" y="486.16279069767444" type="curve" smooth="yes"/>
      <point x="1052.4612403100775" y="801.4069767441861"/>
      <point x="853.6666666666666" y="1024.3255813953488"/>
      <point x="567.3837209302326" y="1024.3255813953488" type="curve" smooth="yes"/>
      <point x="281.40697674418607" y="1024.3255813953488"/>
      <point x="83.6124031007752" y="801.7131782945736"/>
      <point x="83.6124031007752" y="486.16279069767444" type="curve" smooth="yes"/>
      <point x="83.6124031007752" y="175.2248062015504"/>
      <point x="276.1007751937984" y="-32.16279069767442"/>
    </contour>
    <contour>
      <point x="567.3837209302326" y="85.91472868217055" type="curve" smooth="yes"/>
      <point x="384.2984496124031" y="85.91472868217055"/>
      <point x="265.9496124031008" y="245.97674418604652"/>
      <point x="265.9496124031008" y="492.38759689922483" type="curve" smooth="yes"/>
      <point x="265.9496124031008" y="737.1860465116279"/>
      <point x="387.9108527131783" y="907.2480620155038"/>
      <point x="567.3837209302326" y="907.2480620155038" type="curve" smooth="yes"/>
      <point x="746.5503875968992" y="907.2480620155038"/>
      <point x="869.5116279069767" y="731.4922480620155"/>
      <point x="869.5116279069767" y="486.16279069767444" type="curve" smooth="yes"/>
      <point x="869.5116279069767" y="242.75193798449612"/>
      <point x="752.7751937984497" y="85.91472868217055"/>
    </contour>
  </outline>
</glyph>
<glyph name="p" format="2">
  <advance width="1184.5193798449613"/>
  <unicode hex="0070"/>
  <note>
p
</note>
  <anchor x="594.3410852713179" y="7.058139534883722" name="bottom"/>
  <anchor x="594.3410852713179" y="993.8565891472869" name="top"/>
  <outline>
    <contour>
      <point x="114.6124031007752" y="-526.0" type="line"/>
      <point x="284.56201550387595" y="-526.0" type="line"/>
      <point x="284.56201550387595" y="386.2015503875969" type="line"/>
      <point x="228.6046511627907" y="345.93798449612405" type="line"/>
      <point x="282.13565891472865" y="105.83720930232558"/>
      <point x="433.4418604651163" y="-29.162790697674417"/>
      <point x="648.0116279069767" y="-29.162790697674417" type="curve" smooth="yes"/>
      <point x="918.968992248062" y="-29.162790697674417"/>
      <point x="1100.906976744186" y="190.14341085271317"/>
      <point x="1100.906976744186" y="508.3062015503876" type="curve" smooth="yes"/>
      <point x="1100.906976744186" y="819.8565891472869"/>
      <point x="920.8875968992248" y="1024.3255813953488"/>
      <point x="645.6240310077519" y="1024.3255813953488" type="curve" smooth="yes"/>
      <point x="426.7480620155039" y="1024.3255813953488"/>
      <point x="281.82945736434107" y="902.2441860465116"/>
      <point x="226.52325581395348" y="668.6744186046511" type="curve"/>
      <point x="282.1744186046512" y="628.7984496124031" type="line"/>
      <point x="282.1744186046512" y="997.6317829457364" type="line"/>
      <point x="114.6124031007752" y="997.6317829457364" type="line"/>
    </contour>
    <contour>
      <point x="628.0542635658915" y="88.60852713178295" type="curve" smooth="yes"/>
      <point x="431.9496124031008" y="88.60852713178295"/>
      <point x="300.43798449612405" y="261.0581395348837"/>
      <point x="300.43798449612405" y="509.6937984496124" type="curve" smooth="yes"/>
      <point x="300.43798449612405" y="749.3294573643411"/>
      <point x="426.9496124031008" y="907.5542635658915"/>
      <point x="625.6666666666666" y="907.5542635658915" type="curve" smooth="yes"/>
      <point x="824.1589147286821" y="907.5542635658915"/>
      <point x="937.2015503875969" y="766.5930232558139"/>
      <point x="937.2015503875969" y="500.38759689922483" type="curve" smooth="yes"/>
      <point x="937.2015503875969" y="234.18217054263565"/>
      <point x="823.8527131782946" y="88.60852713178295"/>
    </contour>
  </outline>
</glyph>
<glyph name="q" format="2">
  <advance width="1179.2131782945737"/>
  <unicode hex="0071"/>
  <note>
q
</note>
  <anchor x="591.5658914728682" y="7.058139534883722" name="bottom"/>
  <anchor x="591.5658914728682" y="993.8565891472869" name="top"/>
  <outline>
    <contour>
      <point x="900.9573643410853" y="-526.0" type="line"/>
      <point x="1069.906976744186" y="-526.0" type="line"/>
      <point x="1069.906976744186" y="997.6317829457364" type="line"/>
      <point x="902.3449612403101" y="997.6317829457364" type="line"/>
      <point x="902.3449612403101" y="627.4108527131783" type="line"/>
      <point x="958.9961240310078" y="666.9806201550388" type="line"/>
      <point x="903.6899224806201" y="901.5503875968992"/>
      <point x="758.7713178294574" y="1024.3255813953488"/>
      <point x="538.8953488372093" y="1024.3255813953488" type="curve" smooth="yes"/>
      <point x="263.63178294573646" y="1024.3255813953488"/>
      <point x="83.6124031007752" y="819.468992248062"/>
      <point x="83.6124031007752" y="508.3062015503876" type="curve" smooth="yes"/>
      <point x="83.6124031007752" y="190.14341085271317"/>
      <point x="266.5503875968992" y="-29.162790697674417"/>
      <point x="536.5077519379845" y="-29.162790697674417" type="curve" smooth="yes"/>
      <point x="752.077519379845" y="-29.162790697674417"/>
      <point x="902.3837209302326" y="104.83720930232558"/>
      <point x="955.9147286821706" y="345.63178294573646" type="curve"/>
      <point x="900.9573643410853" y="386.2015503875969" type="line"/>
    </contour>
    <contour>
      <point x="556.4651162790698" y="88.60852713178295" type="curve" smooth="yes"/>
      <point x="361.6666666666667" y="88.60852713178295"/>
      <point x="247.31782945736433" y="234.18217054263565"/>
      <point x="247.31782945736433" y="500.38759689922483" type="curve" smooth="yes"/>
      <point x="247.31782945736433" y="764.8992248062016"/>
      <point x="360.3604651162791" y="907.5542635658915"/>
      <point x="558.8527131782946" y="907.5542635658915" type="curve" smooth="yes"/>
      <point x="758.2635658914729" y="907.5542635658915"/>
      <point x="885.0813953488372" y="747.9418604651163"/>
      <point x="885.0813953488372" y="509.6937984496124" type="curve" smooth="yes"/>
      <point x="885.0813953488372" y="261.0581395348837"/>
      <point x="753.5697674418604" y="88.60852713178295"/>
    </contour>
  </outline>
</glyph>
<glyph name="r" format="2">
  <advance width="928.8255813953489"/>
  <unicode hex="0072"/>
  <note>
r
</note>
  <anchor x="148.03488372093022" y="0.0" name="bottom"/>
  <anchor x="570.6434108527131" y="1013.8565891472869" name="top"/>
  <outline>
    <contour>
      <point x="108.6124031007752" y="0.0" type="line"/>
      <point x="282.031007751938" y="0.0" type="line"/>
      <point x="282.031007751938" y="600.7558139534884" type="line" smooth="yes"/>
      <point x="282.031007751938" y="773.4728682170543"/>
      <point x="388.84883720930236" y="905.1666666666666"/>
      <point x="541.6472868217054" y="905.1666666666666" type="curve" smooth="yes"/>
      <point x="626.3643410852713" y="905.1666666666666"/>
      <point x="724.5658914728682" y="883.6550387596899"/>
      <point x="712.077519379845" y="785.2286821705426" type="curve" smooth="yes"/>
      <point x="711.3837209302326" y="765.6162790697674"/>
      <point x="703.6085271317829" y="720.3914728682171"/>
      <point x="685.9147286821706" y="691.5542635658915" type="curve"/>
      <point x="811.968992248062" y="665.8410852713179" type="line"/>
      <point x="834.3759689922481" y="698.1860465116279"/>
      <point x="850.5193798449612" y="763.0"/>
      <point x="850.5193798449612" y="810.7558139534884" type="curve" smooth="yes"/>
      <point x="850.5193798449612" y="959.8139534883721"/>
      <point x="714.2984496124031" y="1024.3255813953488"/>
      <point x="579.5426356589147" y="1024.3255813953488" type="curve" smooth="yes"/>
      <point x="387.13565891472865" y="1024.3255813953488"/>
      <point x="276.9496124031008" y="898.4883720930233"/>
      <point x="240.15503875968994" y="675.6124031007752" type="curve"/>
      <point x="280.64341085271315" y="591.2325581395348" type="line"/>
      <point x="282.031007751938" y="997.6317829457364" type="line"/>
      <point x="108.6124031007752" y="997.6317829457364" type="line"/>
    </contour>
  </outline>
</glyph>
<glyph name="s" format="2">
  <advance width="914.3798449612403"/>
  <unicode hex="0073"/>
  <note>
s
</note>
  <anchor x="415.72868217054264" y="-13.75581395348837" name="bottom"/>
  <anchor x="457.68992248062017" y="1011.0813953488372" name="top"/>
  <outline>
    <contour>
      <point x="433.9341085271318" y="-27.08139534883721" type="curve" smooth="yes"/>
      <point x="693.2170542635658" y="-26.387596899224807"/>
      <point x="835.7674418604652" y="87.98062015503876"/>
      <point x="835.0736434108527" y="282.93798449612405" type="curve" smooth="yes"/>
      <point x="835.0736434108527" y="462.52713178294573"/>
      <point x="686.3217054263566" y="535.5077519379845"/>
      <point x="454.4031007751938" y="583.2015503875969" type="curve" smooth="yes"/>
      <point x="261.81007751937983" y="622.8139534883721"/>
      <point x="232.03488372093022" y="687.7751937984497"/>
      <point x="232.03488372093022" y="753.3682170542636" type="curve" smooth="yes"/>
      <point x="232.03488372093022" y="865.2480620155038"/>
      <point x="329.07751937984494" y="903.0038759689922"/>
      <point x="460.44573643410854" y="903.6976744186046" type="curve" smooth="yes"/>
      <point x="593.6705426356589" y="903.6976744186046"/>
      <point x="689.015503875969" y="860.4922480620155"/>
      <point x="780.2984496124031" y="805.8604651162791" type="curve"/>
      <point x="779.6046511627907" y="936.468992248062" type="line"/>
      <point x="679.2596899224807" y="992.2441860465116"/>
      <point x="594.1782945736434" y="1024.3255813953488"/>
      <point x="459.13953488372096" y="1024.3255813953488" type="curve" smooth="yes"/>
      <point x="241.87596899224806" y="1023.6317829457364"/>
      <point x="98.9186046511628" y="931.8759689922481"/>
      <point x="99.6124031007752" y="749.2054263565891" type="curve" smooth="yes"/>
      <point x="100.3062015503876" y="579.4108527131783"/>
      <point x="185.01937984496124" y="510.0426356589147"/>
      <point x="408.40697674418607" y="463.9612403100775" type="curve" smooth="yes"/>
      <point x="613.7751937984497" y="421.9612403100775"/>
      <point x="688.6317829457364" y="370.63178294573646"/>
      <point x="688.6317829457364" y="267.01937984496124" type="curve" smooth="yes"/>
      <point x="688.6317829457364" y="148.81395348837208"/>
      <point x="543.2054263565891" y="98.62790697674419"/>
      <point x="428.77131782945736" y="98.62790697674419" type="curve" smooth="yes"/>
      <point x="274.77131782945736" y="97.93410852713178"/>
      <point x="172.13953488372093" y="155.83333333333334"/>
      <point x="83.0" y="225.015503875969" type="curve"/>
      <point x="83.3875968992248" y="79.55038759689923" type="line"/>
      <point x="170.48837209302326" y="10.449612403100776"/>
      <point x="278.26356589147287" y="-27.775193798449614"/>
    </contour>
  </outline>
</glyph>
<glyph name="t" format="2">
  <advance width="784.7093023255813"/>
  <unicode hex="0074"/>
  <note>
t
</note>
  <anchor x="448.5891472868217" y="-10.0" name="bottom"/>
  <anchor x="373.1589147286822" y="588.922480620155" name="center"/>
  <anchor x="408.5891472868217" y="993.8565891472869" name="top"/>
  <anchor x="780.9341085271318" y="1400.1007751937984" name="topright"/>
  <outline>
    <contour>
      <point x="472.9573643410853" y="-28.387596899224807" type="curve" smooth="yes"/>
      <point x="541.7519379844962" y="-28.387596899224807"/>
      <point x="648.7906976744187" y="-12.612403100775193"/>
      <point x="706.4031007751938" y="3.162790697674419" type="curve"/>
      <point x="706.4031007751938" y="122.54651162790698" type="line"/>
      <point x="644.4263565891473" y="104.44573643410853"/>
      <point x="579.6705426356589" y="89.38372093023256"/>
      <point x="521.1589147286821" y="89.38372093023256" type="curve" smooth="yes"/>
      <point x="405.87209302325584" y="89.38372093023256"/>
      <point x="427.81007751937983" y="167.91472868217053"/>
      <point x="427.81007751937983" y="340.0503875968992" type="curve" smooth="yes"/>
      <point x="427.81007751937983" y="880.3294573643411" type="line"/>
      <point x="666.0581395348837" y="880.3294573643411" type="line"/>
      <point x="666.0581395348837" y="997.7131782945736" type="line"/>
      <point x="427.81007751937983" y="997.7131782945736" type="line"/>
      <point x="427.81007751937983" y="1291.875968992248" type="line"/>
      <point x="340.2015503875969" y="1291.875968992248" type="line"/>
      <point x="356.77131782945736" y="1052.3217054263566"/>
      <point x="322.51162790697674" y="996.0193798449612"/>
      <point x="77.0" y="997.7131782945736" type="curve"/>
      <point x="77.0" y="880.3294573643411" type="line"/>
      <point x="267.2674418604651" y="880.3294573643411" type="line"/>
      <point x="267.2674418604651" y="237.93798449612405" type="line" smooth="yes"/>
      <point x="267.2674418604651" y="116.96124031007751"/>
      <point x="283.24418604651163" y="-28.387596899224807"/>
    </contour>
  </outline>
</glyph>
<glyph name="u" format="2">
  <advance width="1113.1744186046512"/>
  <unicode hex="0075"/>
  <note>
u
</note>
  <anchor x="505.44573643410854" y="-13.75581395348837" name="bottom"/>
  <anchor x="931.0348837209302" y="0.0" name="ogonek"/>
  <anchor x="554.4651162790698" y="997.3255813953489" name="top"/>
  <anchor x="1262.093023255814" y="997.3255813953489" name="topright"/>
  <outline>
    <contour>
      <point x="478.0581395348837" y="-27.3062015503876" type="curve" smooth="yes"/>
      <point x="695.4883720930233" y="-27.3062015503876"/>
      <point x="822.9186046511628" y="112.24418604651163"/>
      <point x="872.1627906976744" y="379.7170542635659" type="curve"/>
      <point x="832.8372093023256" y="424.4612403100775" type="line"/>
      <point x="832.1434108527131" y="0.0" type="line"/>
      <point x="1005.1744186046511" y="0.0" type="line"/>
      <point x="1005.1744186046511" y="997.6317829457364" type="line"/>
      <point x="832.1434108527131" y="997.6317829457364" type="line"/>
      <point x="832.1434108527131" y="495.55426356589146" type="line" smooth="yes"/>
      <point x="832.1434108527131" y="245.13953488372093"/>
      <point x="711.8565891472869" y="91.77131782945736"/>
      <point x="499.07751937984494" y="91.77131782945736" type="curve" smooth="yes"/>
      <point x="325.01162790697674" y="91.77131782945736"/>
      <point x="273.33720930232556" y="202.97674418604652"/>
      <point x="273.33720930232556" y="395.30232558139534" type="curve" smooth="yes"/>
      <point x="273.33720930232556" y="997.6317829457364" type="line"/>
      <point x="99.6124031007752" y="997.6317829457364" type="line"/>
      <point x="99.6124031007752" y="342.9573643410853" type="line" smooth="yes"/>
      <point x="99.6124031007752" y="110.01937984496124"/>
      <point x="246.81395348837208" y="-27.3062015503876"/>
    </contour>
  </outline>
</glyph>
<glyph name="v" format="2">
  <advance width="1162.4806201550387"/>
  <unicode hex="0076"/>
  <note>
v
</note>
  <anchor x="581.2403100775193" y="7.058139534883722" name="bottom"/>
  <anchor x="581.2403100775193" y="993.8565891472869" name="top"/>
  <outline>
    <contour>
      <point x="567.2829457364342" y="-26.3062015503876" type="line"/>
      <point x="603.5038759689922" y="-26.3062015503876" type="line"/>
      <point x="1085.7054263565892" y="997.6317829457364" type="line"/>
      <point x="963.9961240310078" y="997.6317829457364" type="line"/>
      <point x="590.7480620155038" y="172.5813953488372" type="line"/>
      <point x="643.2170542635658" y="201.01162790697674" type="line"/>
      <point x="271.33720930232556" y="997.6317829457364" type="line"/>
      <point x="76.7751937984496" y="997.6317829457364" type="line"/>
    </contour>
  </outline>
</glyph>
<glyph name="w" format="2">
  <advance width="1637.2906976744187"/>
  <unicode hex="0077"/>
  <note>
w
</note>
  <anchor x="818.9922480620155" y="0.0" name="bottom"/>
  <anchor x="818.9922480620155" y="997.3255813953489" name="top"/>
  <outline>
    <contour>
      <point x="1053.0736434108528" y="-19.08139534883721" type="line"/>
      <point x="1089.9883720930234" y="-19.08139534883721" type="line"/>
      <point x="1563.6782945736434" y="997.3255813953489" type="line"/>
      <point x="1444.5813953488373" y="997.3255813953489" type="line"/>
      <point x="1068.8643410852712" y="162.29457364341084" type="line"/>
      <point x="1154.639534883721" y="177.09302325581396" type="line"/>
      <point x="771.577519379845" y="997.6317829457364" type="line"/>
      <point x="578.6279069767442" y="997.3255813953489" type="line"/>
    </contour>
    <contour>
      <point x="549.0581395348837" y="-19.08139534883721" type="line"/>
      <point x="585.9728682170543" y="-19.08139534883721" type="line"/>
      <point x="858.8062015503876" y="569.0968992248062" type="line"/>
      <point x="799.9108527131783" y="697.031007751938" type="line"/>
      <point x="564.0736434108527" y="162.29457364341084" type="line"/>
      <point x="638.1356589147287" y="177.09302325581396" type="line"/>
      <point x="266.56201550387595" y="997.6317829457364" type="line"/>
      <point x="73.6124031007752" y="997.3255813953489" type="line"/>
    </contour>
    <contour>
      <point x="881.9069767441861" y="587.1356589147287" type="line"/>
      <point x="1067.3372093023256" y="997.3255813953489" type="line"/>
      <point x="946.8527131782946" y="997.3255813953489" type="line"/>
      <point x="806.6666666666666" y="683.1550387596899" type="line"/>
    </contour>
  </outline>
</glyph>
<glyph name="x" format="2">
  <advance width="1119.3565891472867"/>
  <unicode hex="0078"/>
  <note>
x
</note>
  <anchor x="560.1782945736434" y="7.058139534883722" name="bottom"/>
  <anchor x="560.1782945736434" y="993.8565891472869" name="top"/>
  <outline>
    <contour>
      <point x="824.8565891472869" y="0.0" type="line"/>
      <point x="1045.7441860465117" y="0.0" type="line"/>
      <point x="299.7248062015504" y="997.6317829457364" type="line"/>
      <point x="78.83720930232558" y="997.6317829457364" type="line"/>
    </contour>
    <contour>
      <point x="87.79457364341086" y="0.0" type="line"/>
      <point x="232.2170542635659" y="0.0" type="line"/>
      <point x="585.8100775193799" y="464.7984496124031" type="line"/>
      <point x="505.2403100775194" y="549.2015503875969" type="line"/>
    </contour>
    <contour>
      <point x="606.7480620155038" y="474.65503875968994" type="line"/>
      <point x="1003.968992248062" y="997.6317829457364" type="line"/>
      <point x="857.2403100775193" y="997.6317829457364" type="line"/>
      <point x="530.8527131782946" y="564.3449612403101" type="line"/>
    </contour>
  </outline>
</glyph>
<glyph name="y" format="2">
  <advance width="1115.8294573643411"/>
  <unicode hex="0079"/>
  <note>
y
</note>
  <anchor x="794.2790697674419" y="0.0" name="bottom"/>
  <anchor x="575.2596899224807" y="997.3255813953489" name="top"/>
  <outline>
    <contour>
      <point x="297.52713178294573" y="-562.3255813953489" type="curve" smooth="yes"/>
      <point x="410.58527131782944" y="-562.3255813953489"/>
      <point x="447.9108527131783" y="-478.4108527131783"/>
      <point x="495.2984496124031" y="-345.47286821705427" type="curve" smooth="yes"/>
      <point x="533.2984496124031" y="-240.08527131782947"/>
      <point x="573.9108527131783" y="-126.47286821705427"/>
      <point x="615.9922480620155" y="-17.166666666666668" type="curve"/>
      <point x="1041.5232558139535" y="997.3255813953489" type="line"/>
      <point x="920.5077519379845" y="997.3255813953489" type="line"/>
      <point x="581.6085271317829" y="184.17829457364343" type="line"/>
      <point x="647.7054263565891" y="184.17829457364343" type="line"/>
      <point x="266.48062015503876" y="997.6317829457364" type="line"/>
      <point x="73.6124031007752" y="997.3255813953489" type="line"/>
      <point x="559.3217054263566" y="-25.689922480620154" type="line"/>
      <point x="544.8333333333334" y="98.54651162790698" type="line"/>
      <point x="445.8333333333333" y="-200.34883720930233" type="line" smooth="yes"/>
      <point x="382.484496124031" y="-382.1085271317829"/>
      <point x="370.99612403100775" y="-469.20542635658916"/>
      <point x="295.13953488372096" y="-469.20542635658916" type="curve" smooth="yes"/>
      <point x="236.18217054263565" y="-469.20542635658916"/>
      <point x="210.7325581395349" y="-432.65503875968994"/>
      <point x="210.34496124031008" y="-396.36821705426354" type="curve"/>
      <point x="125.0" y="-396.36821705426354" type="line"/>
      <point x="130.3875968992248" y="-500.8565891472868"/>
      <point x="194.46899224806202" y="-562.3255813953489"/>
    </contour>
  </outline>
</glyph>
<glyph name="z" format="2">
  <advance width="1016.4806201550388"/>
  <unicode hex="007A"/>
  <note>
z
</note>
  <anchor x="508.2403100775194" y="0.0" name="bottom"/>
  <anchor x="508.2403100775194" y="499.16279069767444" name="center"/>
  <anchor x="508.2403100775194" y="997.3255813953489" name="top"/>
  <outline>
    <contour>
      <point x="73.6124031007752" y="0.0" type="line"/>
      <point x="917.3372093023256" y="0.0" type="line"/>
      <point x="917.3372093023256" y="120.07751937984497" type="line"/>
      <point x="255.2751937984496" y="120.07751937984497" type="line"/>
      <point x="267.93023255813955" y="32.10077519379845" type="line"/>
      <point x="939.4806201550388" y="997.6317829457364" type="line"/>
      <point x="116.6937984496124" y="997.6317829457364" type="line"/>
      <point x="116.6937984496124" y="878.2480620155038" type="line"/>
      <point x="740.1434108527131" y="878.2480620155038" type="line"/>
      <point x="744.1627906976744" y="964.2248062015503" type="line"/>
    </contour>
  </outline>
</glyph>
<glyph name="braceleft" format="2">
  <advance width="752.5852713178294"/>
  <unicode hex="007B"/>
  <note>
braceleft
</note>
  <outline>
    <contour>
      <point x="649.5852713178294" y="-383.531007751938" type="curve"/>
      <point x="649.5852713178294" y="-249.9031007751938" type="line"/>
      <point x="442.0736434108527" y="-265.47286821705427"/>
      <point x="377.9108527131783" y="-198.24806201550388"/>
      <point x="377.9108527131783" y="43.406976744186046" type="curve" smooth="yes"/>
      <point x="377.9108527131783" y="347.8565891472868" type="line" smooth="yes"/>
      <point x="377.9108527131783" y="403.24418604651163"/>
      <point x="355.6860465116279" y="444.5503875968992"/>
      <point x="303.93023255813955" y="489.0813953488372" type="curve"/>
      <point x="355.6860465116279" y="535.6124031007752"/>
      <point x="377.9108527131783" y="575.6124031007752"/>
      <point x="377.9108527131783" y="629.0" type="curve" smooth="yes"/>
      <point x="377.9108527131783" y="1033.062015503876" type="line" smooth="yes"/>
      <point x="377.9108527131783" y="1261.9612403100775"/>
      <point x="453.2170542635659" y="1341.9418604651162"/>
      <point x="649.5852713178294" y="1325.6782945736434" type="curve"/>
      <point x="649.5852713178294" y="1460.0" type="line"/>
      <point x="398.99612403100775" y="1479.3255813953488"/>
      <point x="240.42635658914728" y="1337.8565891472867"/>
      <point x="240.42635658914728" y="1099.6744186046512" type="curve" smooth="yes"/>
      <point x="240.42635658914728" y="629.0" type="line" smooth="yes"/>
      <point x="240.42635658914728" y="582.0813953488372"/>
      <point x="218.8953488372093" y="567.1007751937984"/>
      <point x="95.9186046511628" y="489.468992248062" type="curve"/>
      <point x="215.2829457364341" y="415.6744186046512"/>
      <point x="240.42635658914728" y="394.16279069767444"/>
      <point x="240.42635658914728" y="347.8565891472868" type="curve" smooth="yes"/>
      <point x="240.42635658914728" y="-22.51162790697674" type="line" smooth="yes"/>
      <point x="240.42635658914728" y="-263.0813953488372"/>
      <point x="397.99612403100775" y="-401.8565891472868"/>
    </contour>
  </outline>
</glyph>
<glyph name="bar" format="2">
  <advance width="496.8914728682171"/>
  <unicode hex="007C"/>
  <note>
bar
</note>
  <outline>
    <contour>
      <point x="173.6124031007752" y="-300.0" type="line"/>
      <point x="323.27906976744185" y="-300.0" type="line"/>
      <point x="323.27906976744185" y="1664.0" type="line"/>
      <point x="173.6124031007752" y="1664.0" type="line"/>
    </contour>
  </outline>
</glyph>
<glyph name="braceright" format="2">
  <advance width="753.2790697674419"/>
  <unicode hex="007D"/>
  <note>
braceright
</note>
  <outline>
    <contour>
      <point x="103.0" y="-383.531007751938" type="line"/>
      <point x="355.2829457364341" y="-401.8565891472868"/>
      <point x="512.1589147286821" y="-263.0813953488372"/>
      <point x="512.1589147286821" y="-22.51162790697674" type="curve" smooth="yes"/>
      <point x="512.1589147286821" y="347.8565891472868" type="line" smooth="yes"/>
      <point x="512.1589147286821" y="394.16279069767444"/>
      <point x="537.3023255813954" y="414.98062015503876"/>
      <point x="657.3604651162791" y="488.7751937984496" type="curve"/>
      <point x="532.9961240310078" y="567.1007751937984"/>
      <point x="512.1589147286821" y="582.0813953488372"/>
      <point x="512.1589147286821" y="629.0" type="curve" smooth="yes"/>
      <point x="512.1589147286821" y="1099.6744186046512" type="line" smooth="yes"/>
      <point x="512.1589147286821" y="1337.8565891472867"/>
      <point x="354.2829457364341" y="1479.3255813953488"/>
      <point x="103.0" y="1460.0" type="curve"/>
      <point x="103.0" y="1325.6782945736434" type="line"/>
      <point x="300.75581395348837" y="1341.9418604651162"/>
      <point x="375.36821705426354" y="1261.9612403100775"/>
      <point x="375.36821705426354" y="1033.062015503876" type="curve" smooth="yes"/>
      <point x="375.36821705426354" y="629.0" type="line" smooth="yes"/>
      <point x="375.36821705426354" y="574.9186046511628"/>
      <point x="397.59302325581393" y="535.6124031007752"/>
      <point x="449.3488372093023" y="489.0813953488372" type="curve"/>
      <point x="397.59302325581393" y="444.5503875968992"/>
      <point x="375.36821705426354" y="403.24418604651163"/>
      <point x="375.36821705426354" y="347.8565891472868" type="curve" smooth="yes"/>
      <point x="375.36821705426354" y="43.406976744186046" type="line" smooth="yes"/>
      <point x="375.36821705426354" y="-198.24806201550388"/>
      <point x="311.20542635658916" y="-265.47286821705427"/>
      <point x="103.0" y="-249.9031007751938" type="curve"/>
    </contour>
  </outline>
</glyph>
<glyph name="asciitilde" format="2">
  <advance width="1275.9031007751937"/>
  <unicode hex="007E"/>
  <note>
asciitilde
</note>
  <outline>
    <contour>
      <point x="820.1744186046511" y="576.6782945736434" type="curve" smooth="yes"/>
      <point x="944.6821705426356" y="576.6782945736434"/>
      <point x="1060.0852713178294" y="648.3488372093024"/>
      <point x="1139.984496124031" y="732.9651162790698" type="curve"/>
      <point x="1065.2945736434108" y="836.7131782945736" type="line"/>
      <point x="1001.562015503876" y="779.7131782945736"/>
      <point x="899.3372093023256" y="737.2635658914729"/>
      <point x="817.2558139534883" y="737.2635658914729" type="curve" smooth="yes"/>
      <point x="745.4806201550388" y="737.2635658914729"/>
      <point x="696.3992248062016" y="772.2635658914729"/>
      <point x="663.1550387596899" y="791.9573643410853" type="curve" smooth="yes"/>
      <point x="584.6666666666666" y="839.0387596899225"/>
      <point x="525.5658914728682" y="866.0387596899225"/>
      <point x="448.64728682170545" y="866.0387596899225" type="curve" smooth="yes"/>
      <point x="342.3410852713178" y="866.0387596899225"/>
      <point x="232.34496124031008" y="807.1007751937984"/>
      <point x="135.91860465116278" y="692.6511627906976" type="curve"/>
      <point x="209.44573643410854" y="596.3720930232558" type="line"/>
      <point x="284.7480620155039" y="661.8604651162791"/>
      <point x="372.7480620155039" y="702.453488372093"/>
      <point x="449.95348837209303" y="702.453488372093" type="curve" smooth="yes"/>
      <point x="518.2403100775193" y="702.453488372093"/>
      <point x="574.484496124031" y="667.0038759689922"/>
      <point x="622.7480620155038" y="640.453488372093" type="curve" smooth="yes"/>
      <point x="708.6860465116279" y="589.453488372093"/>
      <point x="755.9302325581396" y="576.6782945736434"/>
    </contour>
  </outline>
</glyph>
<glyph name=".notdef" format="2">
  <advance width="1235.0"/>
  <unicode hex="007F"/>
  <note>
.notdef
</note>
  <outline>
    <contour>
      <point x="77.32945736434108" y="-349.1434108527132" type="line"/>
      <point x="1157.6705426356589" y="-349.1434108527132" type="line"/>
      <point x="1157.6705426356589" y="1412.7751937984497" type="line"/>
      <point x="77.32945736434108" y="1412.7751937984497" type="line"/>
    </contour>
    <contour>
      <point x="244.36434108527132" y="-189.96511627906978" type="line"/>
      <point x="244.36434108527132" y="1253.5968992248063" type="line"/>
      <point x="992.3294573643411" y="1253.5968992248063" type="line"/>
      <point x="992.3294573643411" y="-189.96511627906978" type="line"/>
    </contour>
  </outline>
</glyph>
<glyph name="Euro" format="2">
  <advance width="1670.2713178294573"/>
  <unicode hex="0080"/>
  <note>
Euro
</note>
  <outline>
    <contour>
      <point x="990.0116279069767" y="-25.18217054263566" type="curve" smooth="yes"/>
      <point x="1238.84496124031" y="-25.18217054263566"/>
      <point x="1410.7403100775193" y="104.32558139534883"/>
      <point x="1524.046511627907" y="328.7519379844961" type="curve"/>
      <point x="1364.15503875969" y="328.7519379844961" type="line"/>
      <point x="1289.360465116279" y="165.91860465116278"/>
      <point x="1143.953488372093" y="88.12015503875969"/>
      <point x="997.3992248062016" y="88.12015503875969" type="curve" smooth="yes"/>
      <point x="719.1124031007752" y="88.12015503875969"/>
      <point x="519.7015503875969" y="355.9767441860465"/>
      <point x="519.7015503875969" y="709.4496124031008" type="curve" smooth="yes"/>
      <point x="519.7015503875969" y="1065.7984496124031"/>
      <point x="729.6007751937984" y="1330.1666666666667"/>
      <point x="989.2364341085272" y="1330.1666666666667" type="curve" smooth="yes"/>
      <point x="1143.2596899224807" y="1330.1666666666667"/>
      <point x="1304.8294573643411" y="1238.4302325581396"/>
      <point x="1359.6046511627908" y="1091.9031007751937" type="curve"/>
      <point x="1513.8837209302326" y="1091.9031007751937" type="line"/>
      <point x="1423.1899224806202" y="1302.9612403100775"/>
      <point x="1244.7635658914728" y="1442.7751937984497"/>
      <point x="991.0116279069767" y="1442.7751937984497" type="curve" smooth="yes"/>
      <point x="617.3604651162791" y="1442.7751937984497"/>
      <point x="347.6085271317829" y="1153.0813953488373"/>
      <point x="348.6085271317829" y="708.8372093023256" type="curve" smooth="yes"/>
      <point x="348.91472868217056" y="274.36821705426354"/>
      <point x="610.6666666666666" y="-25.18217054263566"/>
    </contour>
    <contour>
      <point x="145.91860465116278" y="500.73643410852713" type="line"/>
      <point x="1032.9728682170542" y="500.73643410852713" type="line"/>
      <point x="1059.6860465116279" y="612.4263565891473" type="line"/>
      <point x="174.01937984496124" y="612.4263565891473" type="line"/>
    </contour>
    <contour>
      <point x="194.6124031007752" y="786.4922480620155" type="line"/>
      <point x="1081.6666666666667" y="786.4922480620155" type="line"/>
      <point x="1109.9922480620155" y="897.4883720930233" type="line"/>
      <point x="224.32558139534885" y="897.4883720930233" type="line"/>
    </contour>
  </outline>
</glyph>
<glyph name="sterling" format="2">
  <advance width="1262.3178294573643"/>
  <unicode hex="00A3"/>
  <note>
sterling
</note>
  <outline>
    <contour>
      <point x="353.07751937984494" y="76.75193798449612" type="curve" smooth="yes"/>
      <point x="499.81007751937983" y="76.75193798449612"/>
      <point x="723.4031007751938" y="244.6705426356589"/>
      <point x="723.4031007751938" y="471.1007751937984" type="curve" smooth="yes"/>
      <point x="723.4031007751938" y="663.1860465116279"/>
      <point x="622.6666666666666" y="722.5930232558139"/>
      <point x="503.42248062015506" y="811.531007751938" type="curve" smooth="yes"/>
      <point x="376.62790697674416" y="906.3255813953489"/>
      <point x="345.13565891472865" y="1028.7751937984497"/>
      <point x="345.13565891472865" y="1127.5116279069769" type="curve" smooth="yes"/>
      <point x="345.13565891472865" y="1276.2674418604652"/>
      <point x="452.7480620155039" y="1351.1666666666667"/>
      <point x="615.7519379844962" y="1351.1666666666667" type="curve" smooth="yes"/>
      <point x="788.4263565891473" y="1351.1666666666667"/>
      <point x="917.468992248062" y="1265.1705426356589"/>
      <point x="924.6124031007752" y="1136.0077519379845" type="curve"/>
      <point x="1069.2984496124031" y="1136.0077519379845" type="line"/>
      <point x="1049.8488372093022" y="1344.860465116279"/>
      <point x="887.6666666666666" y="1459.468992248062"/>
      <point x="626.8333333333334" y="1459.468992248062" type="curve" smooth="yes"/>
      <point x="337.4263565891473" y="1459.468992248062"/>
      <point x="182.20542635658916" y="1303.0426356589148"/>
      <point x="182.20542635658916" y="1086.391472868217" type="curve" smooth="yes"/>
      <point x="182.20542635658916" y="882.9612403100775"/>
      <point x="306.4922480620155" y="787.7364341085271"/>
      <point x="425.1240310077519" y="707.2674418604652" type="curve" smooth="yes"/>
      <point x="531.2054263565891" y="635.2674418604652"/>
      <point x="555.1666666666666" y="591.2480620155038"/>
      <point x="555.1666666666666" y="453.34496124031006" type="curve" smooth="yes"/>
      <point x="555.1666666666666" y="295.015503875969"/>
      <point x="363.6356589147287" y="155.05426356589146"/>
      <point x="158.69379844961242" y="149.52325581395348" type="curve"/>
      <point x="247.48837209302326" y="48.60852713178295"/>
      <point x="238.19767441860466" y="76.75193798449612"/>
    </contour>
    <contour>
      <point x="158.69379844961242" y="0.0" type="line"/>
      <point x="1114.0116279069766" y="0.0" type="line"/>
      <point x="1114.0116279069766" y="149.52325581395348" type="line"/>
      <point x="158.69379844961242" y="149.52325581395348" type="line"/>
    </contour>
    <contour>
      <point x="154.7751937984496" y="653.4728682170543" type="line"/>
      <point x="998.4651162790698" y="653.4728682170543" type="line"/>
      <point x="998.4651162790698" y="766.5503875968992" type="line"/>
      <point x="154.7751937984496" y="766.5503875968992" type="line"/>
    </contour>
  </outline>
</glyph>
<glyph name="currency" format="2">
  <advance width="1233.108527131783"/>
  <unicode hex="00A4"/>
  <note>
currency
</note>
  <outline>
    <contour>
      <point x="228.5891472868217" y="240.02713178294573" type="line"/>
      <point x="372.30232558139534" y="383.7403100775194" type="line"/>
      <point x="439.62790697674416" y="333.27131782945736"/>
      <point x="524.3410852713179" y="303.18992248062017"/>
      <point x="616.0542635658915" y="303.18992248062017" type="curve" smooth="yes"/>
      <point x="707.4612403100775" y="303.18992248062017"/>
      <point x="792.1744186046511" y="333.27131782945736"/>
      <point x="859.5" y="383.7403100775194" type="curve"/>
      <point x="1004.2131782945737" y="240.02713178294573" type="line"/>
      <point x="1086.1899224806202" y="321.69767441860466" type="line"/>
      <point x="942.1705426356589" y="466.4108527131783" type="line"/>
      <point x="992.6395348837209" y="534.4302325581396"/>
      <point x="1022.7209302325582" y="618.4496124031008"/>
      <point x="1022.7209302325582" y="709.8565891472869" type="curve" smooth="yes"/>
      <point x="1022.7209302325582" y="801.5697674418604"/>
      <point x="992.6395348837209" y="886.2829457364342"/>
      <point x="942.1705426356589" y="953.6085271317829" type="curve"/>
      <point x="1085.8837209302326" y="1097.3217054263566" type="line"/>
      <point x="1003.2131782945737" y="1179.9922480620155" type="line"/>
      <point x="859.5" y="1036.2790697674418" type="line"/>
      <point x="792.1744186046511" y="1086.4418604651162"/>
      <point x="707.4612403100775" y="1116.5232558139535"/>
      <point x="616.0542635658915" y="1116.5232558139535" type="curve" smooth="yes"/>
      <point x="525.3410852713179" y="1116.5232558139535"/>
      <point x="440.62790697674416" y="1086.4418604651162"/>
      <point x="372.6085271317829" y="1036.2790697674418" type="curve"/>
      <point x="228.8953488372093" y="1178.9922480620155" type="line"/>
      <point x="146.91860465116278" y="1097.3217054263566" type="line"/>
      <point x="290.63178294573646" y="953.6085271317829" type="line"/>
      <point x="239.46899224806202" y="886.2829457364342"/>
      <point x="209.3875968992248" y="801.5697674418604"/>
      <point x="209.3875968992248" y="709.8565891472869" type="curve" smooth="yes"/>
      <point x="209.3875968992248" y="618.4496124031008"/>
      <point x="239.46899224806202" y="534.4302325581396"/>
      <point x="289.63178294573646" y="466.4108527131783" type="curve"/>
      <point x="146.91860465116278" y="322.69767441860466" type="line"/>
    </contour>
    <contour>
      <point x="616.0542635658915" y="424.3488372093023" type="curve" smooth="yes"/>
      <point x="458.2596899224806" y="424.3488372093023"/>
      <point x="330.54651162790697" y="552.062015503876"/>
      <point x="330.54651162790697" y="709.8565891472869" type="curve" smooth="yes"/>
      <point x="330.54651162790697" y="867.6511627906976"/>
      <point x="458.2596899224806" y="995.3643410852713"/>
      <point x="616.0542635658915" y="995.3643410852713" type="curve" smooth="yes"/>
      <point x="773.8488372093024" y="995.3643410852713"/>
      <point x="901.562015503876" y="867.6511627906976"/>
      <point x="901.562015503876" y="709.8565891472869" type="curve" smooth="yes"/>
      <point x="901.562015503876" y="552.062015503876"/>
      <point x="773.8488372093024" y="424.3488372093023"/>
    </contour>
  </outline>
</glyph>
<glyph name="brokenbar" format="2">
  <advance width="496.8914728682171"/>
  <unicode hex="00A6"/>
  <note>
brokenbar
</note>
  <outline>
    <contour>
      <point x="173.6124031007752" y="-300.0" type="line"/>
      <point x="323.27906976744185" y="-300.0" type="line"/>
      <point x="323.27906976744185" y="502.9612403100775" type="line"/>
      <point x="173.6124031007752" y="502.9612403100775" type="line"/>
    </contour>
    <contour>
      <point x="173.6124031007752" y="889.0387596899225" type="line"/>
      <point x="323.27906976744185" y="889.0387596899225" type="line"/>
      <point x="323.27906976744185" y="1664.0" type="line"/>
      <point x="173.6124031007752" y="1664.0" type="line"/>
    </contour>
  </outline>
</glyph>
<glyph name="section" format="2">
  <advance width="1361.7325581395348"/>
  <unicode hex="00A7"/>
  <note>
section
</note>
  <outline>
    <contour>
      <point x="666.7131782945736" y="-444.51162790697674" type="curve" smooth="yes"/>
      <point x="965.7325581395348" y="-444.51162790697674"/>
      <point x="1152.4263565891472" y="-314.43023255813955"/>
      <point x="1152.4263565891472" y="-100.41085271317829" type="curve" smooth="yes"/>
      <point x="1152.4263565891472" y="87.83333333333333"/>
      <point x="1037.5077519379845" y="187.75193798449612"/>
      <point x="777.7131782945736" y="232.0581395348837" type="curve"/>
      <point x="769.5503875968992" y="132.75581395348837" type="line"/>
      <point x="1079.34496124031" y="186.4496124031008"/>
      <point x="1225.1201550387598" y="305.83720930232556"/>
      <point x="1225.1201550387598" y="522.8565891472869" type="curve" smooth="yes"/>
      <point x="1225.1201550387598" y="710.2635658914729"/>
      <point x="1118.1821705426357" y="832.6511627906976"/>
      <point x="841.1821705426356" y="925.4883720930233" type="curve" smooth="yes"/>
      <point x="635.5116279069767" y="994.7325581395348"/>
      <point x="514.4883720930233" y="1040.5697674418604"/>
      <point x="514.4883720930233" y="1131.4302325581396" type="curve" smooth="yes"/>
      <point x="514.4883720930233" y="1242.593023255814"/>
      <point x="581.7751937984497" y="1365.3720930232557"/>
      <point x="676.3255813953489" y="1365.3720930232557" type="curve" smooth="yes"/>
      <point x="783.0387596899225" y="1365.3720930232557"/>
      <point x="837.937984496124" y="1234.5116279069769"/>
      <point x="836.8565891472869" y="1069.0038759689924" type="curve"/>
      <point x="1143.4263565891472" y="1069.0038759689924" type="line"/>
      <point x="1143.4263565891472" y="1122.7364341085272" type="line" smooth="yes"/>
      <point x="1143.4263565891472" y="1350.062015503876"/>
      <point x="978.3449612403101" y="1475.531007751938"/>
      <point x="688.0193798449612" y="1475.531007751938" type="curve" smooth="yes"/>
      <point x="391.3062015503876" y="1475.531007751938"/>
      <point x="194.6124031007752" y="1341.4496124031007"/>
      <point x="194.6124031007752" y="1133.4302325581396" type="curve" smooth="yes"/>
      <point x="194.6124031007752" y="960.4922480620155"/>
      <point x="306.36821705426354" y="873.6550387596899"/>
      <point x="613.6705426356589" y="792.4922480620155" type="curve"/>
      <point x="571.1627906976744" y="898.8759689922481" type="line"/>
      <point x="298.0" y="870.4883720930233"/>
      <point x="136.91860465116278" y="723.4069767441861"/>
      <point x="136.91860465116278" y="508.16279069767444" type="curve" smooth="yes"/>
      <point x="136.91860465116278" y="303.4496124031008"/>
      <point x="247.0" y="205.4496124031008"/>
      <point x="608.6317829457364" y="81.83720930232558" type="curve" smooth="yes"/>
      <point x="745.4883720930233" y="35.83720930232558"/>
      <point x="837.5503875968992" y="-18.0"/>
      <point x="837.5503875968992" y="-94.41085271317829" type="curve" smooth="yes"/>
      <point x="837.5503875968992" y="-209.8798449612403"/>
      <point x="775.7945736434109" y="-334.35271317829455"/>
      <point x="670.7131782945736" y="-334.35271317829455" type="curve" smooth="yes"/>
      <point x="556.9186046511628" y="-334.35271317829455"/>
      <point x="490.71317829457365" y="-194.1046511627907"/>
      <point x="493.1821705426357" y="-29.984496124031004" type="curve"/>
      <point x="183.6124031007752" y="-29.984496124031004" type="line"/>
      <point x="183.6124031007752" y="-84.41085271317829" type="line" smooth="yes"/>
      <point x="183.6124031007752" y="-302.43023255813955"/>
      <point x="377.0" y="-444.51162790697674"/>
    </contour>
    <contour>
      <point x="678.0193798449612" y="268.8953488372093" type="curve" smooth="yes"/>
      <point x="546.7945736434109" y="268.8953488372093"/>
      <point x="436.79457364341084" y="383.34496124031006"/>
      <point x="436.79457364341084" y="522.1627906976744" type="curve" smooth="yes"/>
      <point x="436.79457364341084" y="663.6744186046511"/>
      <point x="546.1007751937984" y="774.1240310077519"/>
      <point x="678.0193798449612" y="774.1240310077519" type="curve" smooth="yes"/>
      <point x="810.937984496124" y="774.1240310077519"/>
      <point x="925.2441860465116" y="662.2868217054264"/>
      <point x="925.2441860465116" y="522.1627906976744" type="curve" smooth="yes"/>
      <point x="925.2441860465116" y="384.34496124031006"/>
      <point x="808.2441860465116" y="268.8953488372093"/>
    </contour>
  </outline>
</glyph>
<glyph name="copyright" format="2">
  <advance width="1786.9767441860465"/>
  <unicode hex="00A9"/>
  <note>
copyright
</note>
  <outline>
    <contour>
      <point x="892.4883720930233" y="-14.856589147286822" type="curve" smooth="yes"/>
      <point x="1096.4883720930231" y="-14.856589147286822"/>
      <point x="1286.9573643410852" y="67.28682170542636"/>
      <point x="1428.5077519379845" y="197.14341085271317" type="curve" smooth="yes"/>
      <point x="1576.2015503875969" y="334.1434108527132"/>
      <point x="1646.0581395348838" y="512.7558139534884"/>
      <point x="1646.0581395348838" y="706.6124031007752" type="curve" smooth="yes"/>
      <point x="1646.0581395348838" y="914.8372093023256"/>
      <point x="1573.8953488372092" y="1082.3875968992247"/>
      <point x="1429.2015503875969" y="1216.0813953488373" type="curve" smooth="yes"/>
      <point x="1286.7325581395348" y="1348.5503875968993"/>
      <point x="1102.5697674418604" y="1428.0813953488373"/>
      <point x="892.4883720930233" y="1428.0813953488373" type="curve" smooth="yes"/>
      <point x="696.5503875968992" y="1428.0813953488373"/>
      <point x="509.63178294573646" y="1355.937984496124"/>
      <point x="364.7751937984496" y="1218.0813953488373" type="curve" smooth="yes"/>
      <point x="218.7751937984496" y="1079.3875968992247"/>
      <point x="140.91860465116278" y="896.468992248062"/>
      <point x="140.91860465116278" y="706.6124031007752" type="curve" smooth="yes"/>
      <point x="140.91860465116278" y="511.0"/>
      <point x="215.69379844961242" y="335.531007751938"/>
      <point x="364.7751937984496" y="195.8372093023256" type="curve" smooth="yes"/>
      <point x="507.24418604651163" y="61.75581395348837"/>
      <point x="695.3255813953489" y="-14.856589147286822"/>
    </contour>
    <contour>
      <point x="894.7131782945736" y="284.67054263565893" type="curve" smooth="yes"/>
      <point x="1093.4263565891472" y="284.67054263565893"/>
      <point x="1232.875968992248" y="400.22093023255815"/>
      <point x="1252.8565891472867" y="584.6705426356589" type="curve"/>
      <point x="1130.1666666666667" y="584.6705426356589" type="line"/>
      <point x="1113.7170542635658" y="467.99612403100775"/>
      <point x="1025.8372093023256" y="397.1782945736434"/>
      <point x="902.0193798449612" y="397.1782945736434" type="curve" smooth="yes"/>
      <point x="738.7519379844962" y="397.1782945736434"/>
      <point x="643.422480620155" y="520.1201550387597"/>
      <point x="643.422480620155" y="704.6124031007752" type="curve" smooth="yes"/>
      <point x="643.422480620155" y="890.3294573643411"/>
      <point x="739.5891472868217" y="1019.3527131782946"/>
      <point x="902.0193798449612" y="1019.3527131782946" type="curve" smooth="yes"/>
      <point x="1022.1434108527131" y="1019.3527131782946"/>
      <point x="1102.6356589147288" y="947.0038759689922"/>
      <point x="1120.2480620155038" y="850.4728682170543" type="curve"/>
      <point x="1243.5503875968993" y="850.4728682170543" type="line"/>
      <point x="1222.5697674418604" y="1022.922480620155"/>
      <point x="1095.1201550387598" y="1130.860465116279"/>
      <point x="904.0193798449612" y="1130.860465116279" type="curve" smooth="yes"/>
      <point x="667.1821705426356" y="1130.860465116279"/>
      <point x="511.1821705426357" y="963.3488372093024"/>
      <point x="511.1821705426357" y="703.3062015503876" type="curve" smooth="yes"/>
      <point x="511.1821705426357" y="449.26356589147287"/>
      <point x="657.7945736434109" y="284.67054263565893"/>
    </contour>
    <contour>
      <point x="892.4883720930233" y="104.75193798449612" type="curve" smooth="yes"/>
      <point x="724.3449612403101" y="104.75193798449612"/>
      <point x="567.5077519379845" y="170.97674418604652"/>
      <point x="448.5891472868217" y="282.5077519379845" type="curve" smooth="yes"/>
      <point x="321.0581395348837" y="401.6511627906977"/>
      <point x="261.8333333333333" y="552.2441860465116"/>
      <point x="261.8333333333333" y="706.6124031007752" type="curve" smooth="yes"/>
      <point x="261.8333333333333" y="872.2868217054264"/>
      <point x="323.0581395348837" y="1014.9612403100775"/>
      <point x="449.2829457364341" y="1132.7984496124031" type="curve" smooth="yes"/>
      <point x="569.5077519379845" y="1245.6356589147288"/>
      <point x="717.2635658914729" y="1309.1666666666667"/>
      <point x="892.4883720930233" y="1309.1666666666667" type="curve" smooth="yes"/>
      <point x="1062.406976744186" y="1309.1666666666667"/>
      <point x="1226.7751937984497" y="1239.0232558139535"/>
      <point x="1344.6937984496124" y="1130.7984496124031" type="curve" smooth="yes"/>
      <point x="1470.2248062015503" y="1015.9612403100775"/>
      <point x="1525.8372093023256" y="864.9806201550388"/>
      <point x="1525.8372093023256" y="706.6124031007752" type="curve" smooth="yes"/>
      <point x="1525.8372093023256" y="532.4069767441861"/>
      <point x="1469.6124031007753" y="397.34496124031006"/>
      <point x="1346.0813953488373" y="284.5077519379845" type="curve" smooth="yes"/>
      <point x="1226.1627906976744" y="174.97674418604652"/>
      <point x="1065.3255813953488" y="104.75193798449612"/>
    </contour>
  </outline>
</glyph>
<glyph name="ordfeminine" format="2">
  <advance width="835.4573643410853"/>
  <unicode hex="00AA"/>
  <note>
ordfeminine
</note>
  <outline>
    <contour>
      <point x="395.0348837209302" y="813.0852713178294" type="curve" smooth="yes"/>
      <point x="500.52713178294573" y="813.0852713178294"/>
      <point x="597.5891472868217" y="882.5968992248062"/>
      <point x="615.2209302325581" y="978.0891472868217" type="curve"/>
      <point x="615.2209302325581" y="826.922480620155" type="line"/>
      <point x="703.1744186046511" y="826.922480620155" type="line"/>
      <point x="703.1744186046511" y="1438.468992248062" type="line"/>
      <point x="612.9147286821706" y="1438.468992248062" type="line"/>
      <point x="612.9147286821706" y="1284.6899224806202" type="line"/>
      <point x="595.9767441860465" y="1382.5697674418604"/>
      <point x="498.91472868217056" y="1453.7751937984497"/>
      <point x="390.0348837209302" y="1453.7751937984497" type="curve" smooth="yes"/>
      <point x="219.91472868217053" y="1453.7751937984497"/>
      <point x="108.42635658914729" y="1322.2248062015503"/>
      <point x="108.42635658914729" y="1131.4302325581396" type="curve" smooth="yes"/>
      <point x="108.42635658914729" y="943.6356589147287"/>
      <point x="222.60852713178295" y="813.0852713178294"/>
    </contour>
    <contour>
      <point x="401.72868217054264" y="896.4069767441861" type="curve" smooth="yes"/>
      <point x="289.9108527131783" y="896.4069767441861"/>
      <point x="216.93023255813955" y="991.3875968992248"/>
      <point x="216.93023255813955" y="1135.593023255814" type="curve" smooth="yes"/>
      <point x="216.93023255813955" y="1276.9418604651162"/>
      <point x="287.9108527131783" y="1370.453488372093"/>
      <point x="398.72868217054264" y="1370.453488372093" type="curve" smooth="yes"/>
      <point x="510.07751937984494" y="1370.453488372093"/>
      <point x="583.5891472868217" y="1278.1666666666667"/>
      <point x="583.5891472868217" y="1130.7364341085272" type="curve" smooth="yes"/>
      <point x="583.5891472868217" y="986.6937984496124"/>
      <point x="511.07751937984494" y="896.4069767441861"/>
    </contour>
    <contour>
      <point x="109.42635658914729" y="666.1085271317829" type="line"/>
      <point x="718.1937984496124" y="666.1085271317829" type="line"/>
      <point x="718.1937984496124" y="735.7790697674419" type="line"/>
      <point x="109.42635658914729" y="735.7790697674419" type="line"/>
    </contour>
  </outline>
</glyph>
<glyph name="logicalnot" format="2">
  <advance width="1112.9147286821706"/>
  <unicode hex="00AC"/>
  <note>
logicalnot
</note>
  <outline>
    <contour>
      <point x="1114.3410852713178" y="326.20542635658916" type="line"/>
      <point x="1256.4767441860465" y="326.20542635658916" type="line"/>
      <point x="1256.4767441860465" y="882.2441860465116" type="line"/>
      <point x="141.3875968992248" y="882.2441860465116" type="line"/>
      <point x="141.3875968992248" y="736.4341085271318" type="line"/>
      <point x="1114.3410852713178" y="736.4341085271318" type="line"/>
    </contour>
  </outline>
</glyph>
<glyph name="registered" format="2">
  <advance width="1786.9767441860465"/>
  <unicode hex="00AE"/>
  <note>
registered
</note>
  <outline>
    <contour>
      <point x="892.4883720930233" y="-14.856589147286822" type="curve" smooth="yes"/>
      <point x="1096.4883720930231" y="-14.856589147286822"/>
      <point x="1286.9573643410852" y="67.28682170542636"/>
      <point x="1428.5077519379845" y="197.14341085271317" type="curve" smooth="yes"/>
      <point x="1576.2015503875969" y="334.1434108527132"/>
      <point x="1646.0581395348838" y="512.7558139534884"/>
      <point x="1646.0581395348838" y="706.6124031007752" type="curve" smooth="yes"/>
      <point x="1646.0581395348838" y="914.8372093023256"/>
      <point x="1573.8953488372092" y="1082.3875968992247"/>
      <point x="1429.2015503875969" y="1216.0813953488373" type="curve" smooth="yes"/>
      <point x="1286.7325581395348" y="1348.5503875968993"/>
      <point x="1102.5697674418604" y="1428.0813953488373"/>
      <point x="892.4883720930233" y="1428.0813953488373" type="curve" smooth="yes"/>
      <point x="696.5503875968992" y="1428.0813953488373"/>
      <point x="509.63178294573646" y="1355.937984496124"/>
      <point x="364.7751937984496" y="1218.0813953488373" type="curve" smooth="yes"/>
      <point x="218.7751937984496" y="1079.3875968992247"/>
      <point x="140.91860465116278" y="896.468992248062"/>
      <point x="140.91860465116278" y="706.6124031007752" type="curve" smooth="yes"/>
      <point x="140.91860465116278" y="511.0"/>
      <point x="215.69379844961242" y="335.531007751938"/>
      <point x="364.7751937984496" y="195.8372093023256" type="curve" smooth="yes"/>
      <point x="507.24418604651163" y="61.75581395348837"/>
      <point x="695.3255813953489" y="-14.856589147286822"/>
    </contour>
    <contour>
      <point x="892.4883720930233" y="104.75193798449612" type="curve" smooth="yes"/>
      <point x="724.3449612403101" y="104.75193798449612"/>
      <point x="567.5077519379845" y="170.97674418604652"/>
      <point x="448.5891472868217" y="282.5077519379845" type="curve" smooth="yes"/>
      <point x="321.0581395348837" y="401.6511627906977"/>
      <point x="261.8333333333333" y="552.2441860465116"/>
      <point x="261.8333333333333" y="706.6124031007752" type="curve" smooth="yes"/>
      <point x="261.8333333333333" y="872.2868217054264"/>
      <point x="323.0581395348837" y="1014.9612403100775"/>
      <point x="449.2829457364341" y="1132.7984496124031" type="curve" smooth="yes"/>
      <point x="569.5077519379845" y="1245.6356589147288"/>
      <point x="717.2635658914729" y="1309.1666666666667"/>
      <point x="892.4883720930233" y="1309.1666666666667" type="curve" smooth="yes"/>
      <point x="1062.406976744186" y="1309.1666666666667"/>
      <point x="1226.7751937984497" y="1239.0232558139535"/>
      <point x="1344.6937984496124" y="1130.7984496124031" type="curve" smooth="yes"/>
      <point x="1470.2248062015503" y="1015.9612403100775"/>
      <point x="1525.8372093023256" y="864.9806201550388"/>
      <point x="1525.8372093023256" y="706.6124031007752" type="curve" smooth="yes"/>
      <point x="1525.8372093023256" y="532.4069767441861"/>
      <point x="1469.6124031007753" y="397.34496124031006"/>
      <point x="1346.0813953488373" y="284.5077519379845" type="curve" smooth="yes"/>
      <point x="1226.1627906976744" y="174.97674418604652"/>
      <point x="1065.3255813953488" y="104.75193798449612"/>
    </contour>
    <contour>
      <point x="621.4069767441861" y="328.0387596899225" type="line"/>
      <point x="728.484496124031" y="328.0387596899225" type="line"/>
      <point x="728.484496124031" y="661.5736434108527" type="line"/>
      <point x="887.9573643410853" y="661.5736434108527" type="line"/>
      <point x="1057.0813953488373" y="328.0387596899225" type="line"/>
      <point x="1174.0968992248063" y="328.0387596899225" type="line"/>
      <point x="992.3410852713179" y="675.5930232558139" type="line"/>
      <point x="1082.8720930232557" y="703.0813953488372"/>
      <point x="1169.139534883721" y="778.1434108527131"/>
      <point x="1169.139534883721" y="892.4922480620155" type="curve" smooth="yes"/>
      <point x="1169.139534883721" y="1029.3488372093022"/>
      <point x="1068.5077519379845" y="1110.5736434108528"/>
      <point x="840.6705426356589" y="1110.5736434108528" type="curve" smooth="yes"/>
      <point x="621.4069767441861" y="1110.5736434108528" type="line"/>
    </contour>
    <contour>
      <point x="728.484496124031" y="745.7751937984497" type="line"/>
      <point x="728.484496124031" y="1022.9031007751938" type="line"/>
      <point x="874.9573643410853" y="1022.9031007751938" type="line" smooth="yes"/>
      <point x="1001.6317829457364" y="1022.2093023255813"/>
      <point x="1063.8372093023256" y="990.1472868217054"/>
      <point x="1063.8372093023256" y="889.4108527131783" type="curve" smooth="yes"/>
      <point x="1063.8372093023256" y="796.1434108527131"/>
      <point x="1002.6317829457364" y="745.7751937984497"/>
      <point x="878.6511627906976" y="745.7751937984497" type="curve" smooth="yes"/>
    </contour>
  </outline>
</glyph>
<glyph name="degree" format="2">
  <advance width="803.6472868217054"/>
  <unicode hex="00B0"/>
  <note>
degree
</note>
  <outline>
    <contour>
      <point x="399.67054263565893" y="918.4147286821706" type="curve" smooth="yes"/>
      <point x="544.546511627907" y="918.4147286821706"/>
      <point x="661.0348837209302" y="1034.2093023255813"/>
      <point x="661.0348837209302" y="1177.4728682170542" type="curve" smooth="yes"/>
      <point x="661.0348837209302" y="1320.0426356589148"/>
      <point x="544.546511627907" y="1435.8372093023256"/>
      <point x="401.9767441860465" y="1435.8372093023256" type="curve" smooth="yes"/>
      <point x="257.40697674418607" y="1435.8372093023256"/>
      <point x="142.91860465116278" y="1321.3488372093022"/>
      <point x="142.91860465116278" y="1177.4728682170542" type="curve" smooth="yes"/>
      <point x="142.91860465116278" y="1032.9031007751937"/>
      <point x="257.1007751937984" y="918.4147286821706"/>
    </contour>
    <contour>
      <point x="401.9767441860465" y="1005.0658914728682" type="curve" smooth="yes"/>
      <point x="306.4263565891473" y="1005.0658914728682"/>
      <point x="230.26356589147287" y="1081.922480620155"/>
      <point x="230.26356589147287" y="1177.4728682170542" type="curve" smooth="yes"/>
      <point x="230.26356589147287" y="1272.0232558139535"/>
      <point x="306.4263565891473" y="1348.1860465116279"/>
      <point x="401.9767441860465" y="1348.1860465116279" type="curve" smooth="yes"/>
      <point x="497.52713178294573" y="1348.1860465116279"/>
      <point x="573.3837209302326" y="1272.0232558139535"/>
      <point x="573.3837209302326" y="1177.4728682170542" type="curve" smooth="yes"/>
      <point x="573.3837209302326" y="1081.922480620155"/>
      <point x="497.52713178294573" y="1005.0658914728682"/>
    </contour>
  </outline>
</glyph>
<glyph name="plusminus" format="2">
  <advance width="1112.9147286821706"/>
  <unicode hex="00B1"/>
  <note>
plusminus
</note>
  <outline>
    <contour>
      <point x="439.4263565891473" y="340.1240310077519" type="line"/>
      <point x="568.3798449612403" y="340.1240310077519" type="line"/>
      <point x="568.3798449612403" y="588.0658914728682" type="line"/>
      <point x="860.031007751938" y="588.0658914728682" type="line"/>
      <point x="860.031007751938" y="748.2403100775193" type="line"/>
      <point x="568.3798449612403" y="748.2403100775193" type="line"/>
      <point x="568.3798449612403" y="996.4883720930233" type="line"/>
      <point x="439.4263565891473" y="996.4883720930233" type="line"/>
      <point x="439.4263565891473" y="748.2403100775193" type="line"/>
      <point x="147.46899224806202" y="748.2403100775193" type="line"/>
      <point x="147.46899224806202" y="588.0658914728682" type="line"/>
      <point x="439.4263565891473" y="588.0658914728682" type="line"/>
    </contour>
    <contour>
      <point x="147.46899224806202" y="154.06976744186045" type="line"/>
      <point x="859.3372093023256" y="154.06976744186045" type="line"/>
      <point x="859.3372093023256" y="313.5503875968992" type="line"/>
      <point x="147.46899224806202" y="313.5503875968992" type="line"/>
    </contour>
  </outline>
</glyph>
<glyph name="paragraph" format="2">
  <advance width="1193.1317829457364"/>
  <unicode hex="00B6"/>
  <note>
paragraph
</note>
  <outline>
    <contour>
      <point x="515.6124031007752" y="0.0" type="line"/>
      <point x="642.6666666666666" y="0.0" type="line"/>
      <point x="642.6666666666666" y="1316.6782945736434" type="line"/>
      <point x="804.4651162790698" y="1316.6782945736434" type="line"/>
      <point x="804.4651162790698" y="0.0" type="line"/>
      <point x="930.8255813953489" y="0.0" type="line"/>
      <point x="930.8255813953489" y="1316.6782945736434" type="line"/>
      <point x="1056.8255813953488" y="1316.6782945736434" type="line"/>
      <point x="1056.8255813953488" y="1445.0813953488373" type="line"/>
      <point x="559.9767441860465" y="1445.0813953488373" type="line" smooth="yes"/>
      <point x="308.48837209302326" y="1445.0813953488373"/>
      <point x="138.6124031007752" y="1289.124031007752"/>
      <point x="138.6124031007752" y="1061.5542635658915" type="curve" smooth="yes"/>
      <point x="138.6124031007752" y="845.8410852713179"/>
      <point x="291.5503875968992" y="689.4147286821706"/>
      <point x="515.6124031007752" y="679.4147286821706" type="curve"/>
    </contour>
  </outline>
</glyph>
<glyph name="ordmasculine" format="2">
  <advance width="835.3139534883721"/>
  <unicode hex="00BA"/>
  <note>
ordmasculine
</note>
  <outline>
    <contour>
      <point x="417.81007751937983" y="822.5348837209302" type="curve" smooth="yes"/>
      <point x="588.9496124031008" y="822.5348837209302"/>
      <point x="725.3565891472869" y="939.3294573643411"/>
      <point x="725.3565891472869" y="1132.4302325581396" type="curve" smooth="yes"/>
      <point x="725.3565891472869" y="1325.8372093023256"/>
      <point x="589.9496124031008" y="1445.6317829457364"/>
      <point x="417.81007751937983" y="1445.6317829457364" type="curve" smooth="yes"/>
      <point x="244.97674418604652" y="1445.6317829457364"/>
      <point x="112.56976744186046" y="1326.8372093023256"/>
      <point x="112.56976744186046" y="1132.4302325581396" type="curve" smooth="yes"/>
      <point x="112.56976744186046" y="938.3294573643411"/>
      <point x="245.97674418604652" y="822.5348837209302"/>
    </contour>
    <contour>
      <point x="418.1162790697674" y="908.1627906976744" type="curve" smooth="yes"/>
      <point x="308.6666666666667" y="908.1627906976744"/>
      <point x="220.3798449612403" y="989.6937984496124"/>
      <point x="220.3798449612403" y="1132.4302325581396" type="curve" smooth="yes"/>
      <point x="220.3798449612403" y="1275.1666666666667"/>
      <point x="309.6666666666667" y="1359.6976744186047"/>
      <point x="418.1162790697674" y="1359.6976744186047" type="curve" smooth="yes"/>
      <point x="526.5658914728682" y="1359.6976744186047"/>
      <point x="616.8527131782946" y="1275.1666666666667"/>
      <point x="616.8527131782946" y="1132.4302325581396" type="curve" smooth="yes"/>
      <point x="616.8527131782946" y="989.6937984496124"/>
      <point x="526.8720930232558" y="908.1627906976744"/>
    </contour>
    <contour>
      <point x="106.5077519379845" y="666.1085271317829" type="line"/>
      <point x="727.1124031007752" y="666.1085271317829" type="line"/>
      <point x="727.1124031007752" y="735.7790697674419" type="line"/>
      <point x="106.5077519379845" y="735.7790697674419" type="line"/>
    </contour>
  </outline>
</glyph>
<glyph name="AE" format="2">
  <advance width="1972.8217054263566"/>
  <unicode hex="00C6"/>
  <note>
AE
</note>
  <anchor x="1004.9496124031008" y="0.8139534883720927" name="bottom"/>
  <anchor x="1004.9496124031008" y="1430.0" name="top"/>
  <outline>
    <contour>
      <point x="102.9186046511628" y="0.0" type="line"/>
      <point x="240.0968992248062" y="0.0" type="line"/>
      <point x="1172.4612403100775" y="1432.0813953488373" type="line"/>
      <point x="1035.9767441860465" y="1432.0813953488373" type="line"/>
    </contour>
    <contour>
      <point x="497.7906976744186" y="432.20542635658916" type="line"/>
      <point x="1206.5" y="432.20542635658916" type="line"/>
      <point x="1206.5" y="544.8953488372093" type="line"/>
      <point x="497.7906976744186" y="544.8953488372093" type="line"/>
    </contour>
    <contour>
      <point x="1079.2635658914728" y="0.0" type="line"/>
      <point x="1858.4341085271317" y="0.0" type="line"/>
      <point x="1858.4341085271317" y="111.99612403100775" type="line"/>
      <point x="1124.7325581395348" y="111.99612403100775" type="line"/>
      <point x="1253.4573643410852" y="12.0" type="line"/>
      <point x="1253.4573643410852" y="777.6511627906976" type="line"/>
      <point x="1171.3410852713178" y="672.3488372093024" type="line"/>
      <point x="1858.4341085271317" y="672.3488372093024" type="line"/>
      <point x="1858.4341085271317" y="784.3449612403101" type="line"/>
      <point x="1147.7480620155038" y="784.3449612403101" type="line"/>
      <point x="1253.4573643410852" y="682.9612403100775" type="line"/>
      <point x="1253.4573643410852" y="1423.0" type="line"/>
      <point x="1055.5658914728683" y="1320.0852713178294" type="line"/>
      <point x="1858.4341085271317" y="1320.0852713178294" type="line"/>
      <point x="1858.4341085271317" y="1432.0813953488373" type="line"/>
      <point x="1079.2635658914728" y="1432.0813953488373" type="line"/>
    </contour>
  </outline>
</glyph>
<glyph name="Thorn" format="2">
  <advance width="1135.8255813953488"/>
  <unicode hex="00DE"/>
  <note>
Thorn
</note>
  <anchor x="568.2596899224807" y="0.8139534883720927" name="bottom"/>
  <anchor x="568.2596899224807" y="1430.0" name="top"/>
  <outline>
    <contour>
      <point x="250.52713178294573" y="311.20542635658916" type="line"/>
      <point x="490.2170542635659" y="311.20542635658916" type="line" smooth="yes"/>
      <point x="658.1550387596899" y="311.20542635658916"/>
      <point x="796.1124031007752" y="347.36821705426354"/>
      <point x="877.031007751938" y="410.28682170542635" type="curve" smooth="yes"/>
      <point x="981.9069767441861" y="491.6937984496124"/>
      <point x="1026.2131782945737" y="592.7558139534884"/>
      <point x="1026.2131782945737" y="746.0" type="curve" smooth="yes"/>
      <point x="1026.2131782945737" y="884.2441860465116"/>
      <point x="990.9069767441861" y="975.9186046511628"/>
      <point x="905.1124031007752" y="1054.3255813953488" type="curve" smooth="yes"/>
      <point x="824.1937984496124" y="1129.2441860465117"/>
      <point x="676.8488372093024" y="1171.7945736434108"/>
      <point x="491.2170542635659" y="1171.7945736434108" type="curve" smooth="yes"/>
      <point x="249.52713178294573" y="1171.7945736434108" type="line"/>
      <point x="249.52713178294573" y="1064.9612403100775" type="line"/>
      <point x="434.42248062015506" y="1064.9612403100775" type="line" smooth="yes"/>
      <point x="736.3837209302326" y="1064.9612403100775"/>
      <point x="856.7325581395348" y="978.9186046511628"/>
      <point x="856.7325581395348" y="744.0" type="curve" smooth="yes"/>
      <point x="856.7325581395348" y="505.7751937984496"/>
      <point x="736.3837209302326" y="418.0387596899225"/>
      <point x="434.42248062015506" y="418.0387596899225" type="curve" smooth="yes"/>
      <point x="250.52713178294573" y="418.0387596899225" type="line"/>
    </contour>
    <contour>
      <point x="141.6124031007752" y="0.0" type="line"/>
      <point x="312.031007751938" y="0.0" type="line"/>
      <point x="312.031007751938" y="1432.0813953488373" type="line"/>
      <point x="141.6124031007752" y="1432.0813953488373" type="line"/>
    </contour>
  </outline>
</glyph>
<glyph name="germandbls" format="2">
  <advance width="1290.7209302325582"/>
  <unicode hex="00DF"/>
  <note>
germandbls
</note>
  <anchor x="645.3604651162791" y="7.058139534883722" name="bottom"/>
  <anchor x="645.3604651162791" y="993.8565891472869" name="top"/>
  <outline>
    <contour>
      <point x="819.2751937984497" y="-30.08139534883721" type="curve" smooth="yes"/>
      <point x="1086.6007751937984" y="-30.08139534883721"/>
      <point x="1211.108527131783" y="63.36821705426357"/>
      <point x="1211.108527131783" y="284.63178294573646" type="curve" smooth="yes"/>
      <point x="1211.108527131783" y="464.67054263565893"/>
      <point x="1084.7209302325582" y="548.1007751937984"/>
      <point x="857.7209302325582" y="593.5697674418604" type="curve" smooth="yes"/>
      <point x="677.3914728682171" y="628.1007751937984"/>
      <point x="665.0852713178294" y="662.937984496124"/>
      <point x="665.0852713178294" y="733.5930232558139" type="curve" smooth="yes"/>
      <point x="665.0852713178294" y="824.7364341085271"/>
      <point x="733.7596899224807" y="851.5542635658915"/>
      <point x="815.4728682170543" y="901.1860465116279" type="curve" smooth="yes"/>
      <point x="895.8410852713179" y="950.4108527131783"/>
      <point x="1024.9031007751937" y="1003.1860465116279"/>
      <point x="1024.9031007751937" y="1189.7170542635658" type="curve" smooth="yes"/>
      <point x="1024.9031007751937" y="1403.3062015503876"/>
      <point x="880.0077519379845" y="1550.0387596899225"/>
      <point x="628.6046511627907" y="1550.0387596899225" type="curve" smooth="yes"/>
      <point x="396.54651162790697" y="1550.0387596899225"/>
      <point x="248.24418604651163" y="1383.8992248062016"/>
      <point x="248.24418604651163" y="1102.2054263565892" type="curve" smooth="yes"/>
      <point x="248.24418604651163" y="0.0" type="line"/>
      <point x="415.4186046511628" y="0.0" type="line"/>
      <point x="415.4186046511628" y="1066.8217054263566" type="line" smooth="yes"/>
      <point x="415.4186046511628" y="1291.7209302325582"/>
      <point x="473.42248062015506" y="1432.2674418604652"/>
      <point x="637.9922480620155" y="1432.2674418604652" type="curve" smooth="yes"/>
      <point x="807.5038759689922" y="1432.2674418604652"/>
      <point x="879.8488372093024" y="1321.6317829457364"/>
      <point x="879.8488372093024" y="1178.5736434108528" type="curve" smooth="yes"/>
      <point x="879.8488372093024" y="1064.124031007752"/>
      <point x="809.9496124031008" y="1030.4108527131782"/>
      <point x="727.4186046511628" y="980.1860465116279" type="curve" smooth="yes"/>
      <point x="647.7441860465117" y="931.7364341085271"/>
      <point x="536.1317829457364" y="871.6744186046511"/>
      <point x="536.1317829457364" y="724.9418604651163" type="curve" smooth="yes"/>
      <point x="536.1317829457364" y="572.8992248062016"/>
      <point x="589.3565891472869" y="515.6550387596899"/>
      <point x="814.4186046511628" y="471.5736434108527" type="curve" smooth="yes"/>
      <point x="969.5658914728682" y="442.8178294573643"/>
      <point x="1062.6666666666667" y="389.79457364341084"/>
      <point x="1062.6666666666667" y="268.40697674418607" type="curve" smooth="yes"/>
      <point x="1062.6666666666667" y="149.5891472868217"/>
      <point x="975.7674418604652" y="96.85271317829458"/>
      <point x="820.0503875968992" y="96.85271317829458" type="curve" smooth="yes"/>
      <point x="699.9457364341085" y="96.85271317829458"/>
      <point x="631.1085271317829" y="128.75193798449612"/>
      <point x="548.9883720930233" y="169.60852713178295" type="curve"/>
      <point x="544.1317829457364" y="31.775193798449614" type="line"/>
      <point x="631.7635658914728" y="-12.081395348837209"/>
      <point x="725.9263565891473" y="-30.08139534883721"/>
    </contour>
    <contour>
      <point x="77.0" y="881.8604651162791" type="line"/>
      <point x="331.4418604651163" y="881.8604651162791" type="line"/>
      <point x="331.4418604651163" y="998.3255813953489" type="line"/>
      <point x="77.0" y="998.3255813953489" type="line"/>
    </contour>
  </outline>
</glyph>
